<?xml version="1.0" standalone="no"?>
<!DOCTYPE svg PUBLIC "-//W3C//DTD SVG 1.1//EN" "http://www.w3.org/Graphics/SVG/1.1/DTD/svg11.dtd" >
<svg xmlns="http://www.w3.org/2000/svg" xmlns:xlink="http://www.w3.org/1999/xlink" version="1.1">
<metadata>
Created by FontForge 20161003 at Mon Dec 12 09:35:45 2016
 By www-data
(c) 1998-2010 Ray Larabie. See attached license agreement for more information. If EULA is missing, visit www.larabiefonts.com for an updated version of this font.
</metadata>
<defs>
<font id="budmojiggler" horiz-adv-x="593" >
  <font-face 
    font-family="budmojiggler"
    font-weight="400"
    font-stretch="normal"
    units-per-em="1000"
    panose-1="2 0 4 0 0 0 0 0 0 0"
    ascent="750"
    descent="-250"
    x-height="629"
    cap-height="629"
    bbox="-166 -217 1025 880"
    underline-thickness="20"
    underline-position="-163"
    unicode-range="U+0017-F8FF"
  />
<missing-glyph horiz-adv-x="642" 
d="M113 -92q-81 0 -81 70v662q0 71 81 71h415q82 0 82 -71v-662q0 -70 -82 -70h-415zM342 189q8 31 25 46.5t45 29.5q31 15 59 33t48 41.5t32 53.5t12 69q0 47 -21 85t-55.5 65t-79 41.5t-92.5 14.5q-49 0 -93 -24t-89 -85l138 -110q10 14 21.5 25.5t29.5 11.5q16 0 24.5 -8
t8.5 -19q0 -20 -16.5 -31.5t-40 -21t-48 -19t-40.5 -24.5q-23 -21 -35 -45.5t-20 -52.5l-16 -61l60 -17q-21 -1 -40 -9.5t-33.5 -23t-23 -35t-8.5 -45.5q0 -18 6.5 -36.5t20.5 -33t35.5 -24t50.5 -9.5q20 0 38.5 8t33 22.5t23 34.5t8.5 45q0 28 -13 51.5t-36 38.5l71 -20z
" />
    <glyph glyph-name=".notdef" horiz-adv-x="642" 
d="M113 -92q-81 0 -81 70v662q0 71 81 71h415q82 0 82 -71v-662q0 -70 -82 -70h-415zM342 189q8 31 25 46.5t45 29.5q31 15 59 33t48 41.5t32 53.5t12 69q0 47 -21 85t-55.5 65t-79 41.5t-92.5 14.5q-49 0 -93 -24t-89 -85l138 -110q10 14 21.5 25.5t29.5 11.5q16 0 24.5 -8
t8.5 -19q0 -20 -16.5 -31.5t-40 -21t-48 -19t-40.5 -24.5q-23 -21 -35 -45.5t-20 -52.5l-16 -61l60 -17q-21 -1 -40 -9.5t-33.5 -23t-23 -35t-8.5 -45.5q0 -18 6.5 -36.5t20.5 -33t35.5 -24t50.5 -9.5q20 0 38.5 8t33 22.5t23 34.5t8.5 45q0 28 -13 51.5t-36 38.5l71 -20z
" />
    <glyph glyph-name=".null" horiz-adv-x="0" 
 />
    <glyph glyph-name="nonmarkingreturn" horiz-adv-x="246" 
 />
    <glyph glyph-name="uni0017" horiz-adv-x="246" 
 />
    <glyph glyph-name="space" unicode=" " horiz-adv-x="246" 
 />
    <glyph glyph-name="exclam" unicode="!" horiz-adv-x="269" 
d="M169 179q29 -11 46.5 -36t17.5 -57q0 -45 -27 -71.5t-72 -26.5q-43 0 -70.5 26.5t-27.5 71.5q0 32 16.5 57t45.5 36h-58v450h181v-450h-52zM173 86q0 17 -11.5 27.5t-27.5 10.5q-17 0 -27.5 -10.5t-10.5 -27.5q0 -16 10.5 -27.5t27.5 -11.5q16 0 27.5 11.5t11.5 27.5z
M173 551q0 17 -11.5 28t-27.5 11t-27 -11t-11 -28q0 -16 11 -27.5t27 -11.5t27.5 11.5t11.5 27.5zM173 259q0 16 -11.5 27t-27.5 11t-27 -11t-11 -27q0 -17 11 -28t27 -11t27.5 11t11.5 28zM173 454q0 17 -11.5 27.5t-27.5 10.5t-27 -10.5t-11 -27.5q0 -16 11 -27.5
t27 -11.5t27.5 11.5t11.5 27.5zM173 356q0 16 -11.5 27.5t-27.5 11.5t-27 -11.5t-11 -27.5t11 -27t27 -11t27.5 11t11.5 27z" />
    <glyph glyph-name="quotedbl" unicode="&#x22;" horiz-adv-x="383" 
d="M27 324v305h152v-305h-152zM143 565q0 17 -11.5 28t-27.5 11q-17 0 -27.5 -11t-10.5 -28q0 -16 10.5 -27t27.5 -11q16 0 27.5 11t11.5 27zM143 481q0 17 -11.5 27.5t-27.5 10.5q-17 0 -27.5 -10.5t-10.5 -27.5q0 -16 10.5 -27.5t27.5 -11.5q16 0 27.5 11.5t11.5 27.5z
M143 396q0 16 -11.5 27t-27.5 11q-17 0 -27.5 -11t-10.5 -27t10.5 -27.5t27.5 -11.5q16 0 27.5 11.5t11.5 27.5zM204 324v305h152v-305h-152zM320 565q0 17 -11.5 28t-27.5 11q-17 0 -27.5 -11t-10.5 -28q0 -16 10.5 -27t27.5 -11q16 0 27.5 11t11.5 27zM320 481
q0 17 -11.5 27.5t-27.5 10.5q-17 0 -27.5 -10.5t-10.5 -27.5q0 -16 10.5 -27.5t27.5 -11.5q16 0 27.5 11.5t11.5 27.5zM320 396q0 16 -11.5 27t-27.5 11q-17 0 -27.5 -11t-10.5 -27t10.5 -27.5t27.5 -11.5q16 0 27.5 11.5t11.5 27.5z" />
    <glyph glyph-name="numbersign" unicode="#" horiz-adv-x="635" 
d="M223 0l60 166h-39l-62 -166h-143l60 166h-103l49 134h102l14 39h-106l48 132h106l59 158h144l-58 -158h39l59 158h143l-57 -158h101l-49 -132h-101l-14 -39h105l-49 -134h-103l-62 -166h-143zM542 572q0 15 -12 27t-27 12q-17 0 -27.5 -11.5t-10.5 -27.5q0 -17 10.5 -28
t27.5 -11q16 0 27.5 11t11.5 28zM511 487q0 16 -11.5 27.5t-27.5 11.5q-17 0 -28 -11.5t-11 -27.5t11 -27t28 -11q16 0 27.5 11t11.5 27zM572 403q0 17 -11.5 28t-27.5 11q-15 0 -26.5 -11.5t-11.5 -27.5t11 -27t27 -11t27.5 11t11.5 27zM318 533q16 0 27 11t11 28
q0 15 -11.5 27t-26.5 12q-16 0 -27.5 -11.5t-11.5 -27.5q0 -17 11.5 -28t27.5 -11zM480 403q0 17 -11.5 28t-27.5 11t-27.5 -11.5t-11.5 -27.5t11 -27t28 -11q16 0 27.5 11t11.5 27zM325 487q0 16 -11.5 27.5t-27.5 11.5t-27 -11.5t-11 -27.5t11 -27t27 -11t27.5 11t11.5 27
zM386 403q0 17 -10.5 28t-27.5 11q-15 0 -27 -11.5t-12 -27.5t11.5 -27t27.5 -11q17 0 27.5 11t10.5 27zM449 319q0 16 -11 28t-27 12q-17 0 -28 -11.5t-11 -27.5q0 -17 11 -28t28 -11q15 0 26.5 11t11.5 27zM511 235q0 16 -11.5 27.5t-27.5 11.5t-27.5 -11.5t-11.5 -27.5
t11.5 -27t27.5 -11t27.5 11t11.5 27zM294 403q0 17 -11.5 28t-27.5 11q-15 0 -26.5 -11.5t-11.5 -27.5t11 -27t27 -11t27.5 11t11.5 27zM346 339h-43l-14 -40h44zM418 235q0 16 -11 27.5t-27 11.5q-17 0 -28 -11.5t-11 -27.5t11 -27t28 -11q16 0 27 11t11 27zM202 403
q0 17 -11.5 28t-27.5 11t-27.5 -11.5t-11.5 -27.5t11 -27t28 -11q16 0 27.5 11t11.5 27zM264 319q0 16 -11.5 28t-27.5 12t-27.5 -11.5t-11.5 -27.5q0 -17 11.5 -28t27.5 -11q15 0 27 11t12 27zM325 235q0 16 -11 27.5t-28 11.5q-16 0 -27 -11.5t-11 -27.5t11 -27t27 -11
q17 0 28 11t11 27zM387 151q0 16 -11 27.5t-27 11.5t-27.5 -12t-11.5 -27q0 -16 11 -27t28 -11q16 0 27 11t11 27zM233 235q0 16 -11.5 27.5t-27.5 11.5t-27.5 -11.5t-11.5 -27.5t11.5 -27t27.5 -11t27.5 11t11.5 27zM357 66q0 17 -11.5 28t-27.5 11q-17 0 -27.5 -11
t-10.5 -28q0 -16 10.5 -27t27.5 -11q16 0 27.5 11.5t11.5 26.5zM140 235q0 16 -11 27.5t-27 11.5q-17 0 -28 -11.5t-11 -27.5t11 -27t28 -11q16 0 27 11t11 27zM202 151q0 16 -11.5 27.5t-27.5 11.5q-15 0 -27 -12t-12 -27q0 -16 11.5 -27t27.5 -11t27.5 11t11.5 27zM171 66
q0 17 -11 28t-27 11t-27.5 -11t-11.5 -28q0 -16 11.5 -27t27.5 -11q15 0 26.5 11.5t11.5 26.5z" />
    <glyph glyph-name="dollar" unicode="$" horiz-adv-x="503" 
d="M186 -82v74q-132 24 -163 156l174 65q0 -58 54 -58q17 0 31.5 7t14.5 21q0 13 -18 23.5t-53 24.5q-62 25 -100.5 48.5t-60.5 49t-30 53.5t-8 63q0 75 40 124.5t119 65.5v87h123v-88q125 -24 155 -143q-7 0 -172 -71q-3 66 -47 66q-23 0 -33 -9.5t-10 -20.5
q0 -6 3.5 -12.5t14.5 -14.5t30.5 -17.5t51.5 -22.5q51 -21 84.5 -42t53 -45t27.5 -52.5t8 -63.5q0 -81 -42.5 -128t-123.5 -64v-76h-123zM286 648q0 16 -11 27.5t-28 11.5q-16 0 -27.5 -11.5t-11.5 -27.5t12 -27t27 -11q17 0 28 11t11 27zM372 525q0 15 -10.5 27t-26.5 12
t-28 -11.5t-12 -27.5t11.5 -27.5t26.5 -11.5q17 0 28 11t11 28zM286 555q0 17 -11 28t-28 11q-16 0 -27.5 -11t-11.5 -28q0 -15 12 -26.5t27 -11.5q17 0 28 11t11 27zM196 523q0 16 -11.5 27.5t-27.5 11.5q-17 0 -28 -11.5t-11 -27.5t11.5 -27t27.5 -11t27.5 11t11.5 27z
M370 272q0 15 -11.5 27t-26.5 12q-17 0 -28 -11.5t-11 -27.5t11 -27t28 -11q16 0 27 11t11 27zM381 155q15 0 26.5 12t11.5 27q0 16 -11 27.5t-27 11.5q-17 0 -28 -11.5t-11 -27.5t11 -27.5t28 -11.5zM284 318q0 16 -11.5 27t-27.5 11q-17 0 -27.5 -11t-10.5 -27t10.5 -27.5
t27.5 -11.5q15 0 27 11.5t12 27.5zM155 443q0 16 -11.5 27t-27.5 11t-27.5 -11t-11.5 -27t11.5 -27.5t27.5 -11.5t27.5 11.5t11.5 27.5zM164 324q16 0 27 11.5t11 27.5q0 17 -11 28t-27 11t-27.5 -11t-11.5 -28q0 -16 11.5 -27.5t27.5 -11.5zM377 113q0 17 -11 28t-27 11
t-27.5 -11.5t-11.5 -27.5t11.5 -27t27.5 -11t27 11t11 27zM249 43q17 0 27 10.5t10 27.5q0 16 -10.5 27.5t-27.5 11.5q-15 0 -27 -11.5t-12 -27.5q0 -17 12 -27.5t28 -10.5zM200 112q0 17 -11 27.5t-28 10.5q-15 0 -26.5 -11t-11.5 -27q0 -15 11 -27.5t26 -12.5
q17 0 28.5 12t11.5 28zM249 -50q17 0 27 11t10 27q0 17 -10.5 28t-27.5 11q-15 0 -27 -11.5t-12 -27.5t12 -27t28 -11z" />
    <glyph glyph-name="percent" unicode="%" horiz-adv-x="757" 
d="M738 137q0 -72 -43.5 -110.5t-115.5 -38.5q-70 0 -113 38.5t-43 110.5v69q0 69 42 108t114 39q75 0 117 -40.5t42 -106.5v-69zM691 222q0 14 -11 26t-26 12q-16 0 -26.5 -11.5t-10.5 -26.5t10.5 -26t26.5 -11t26.5 11t10.5 26zM617 289q0 15 -11.5 26.5t-26.5 11.5
t-26.5 -11t-11.5 -27q0 -14 11.5 -25.5t26.5 -11.5q17 0 27.5 11.5t10.5 25.5zM691 117q0 16 -11 26.5t-26 10.5q-16 0 -26.5 -10t-10.5 -27q0 -15 10.5 -26t26.5 -11t26.5 11t10.5 26zM596 206q0 30 -17 30q-15 0 -15 -30v-72q0 -29 15 -29q17 0 17 32v69zM541 222
q0 14 -11 26t-26 12t-26.5 -11.5t-11.5 -26.5t11.5 -26t26.5 -11q17 0 27 11t10 26zM617 50q0 15 -11.5 26t-26.5 11t-26.5 -10.5t-11.5 -26.5t11.5 -27t26.5 -11q17 0 27.5 11t10.5 27zM541 117q0 16 -11 26.5t-26 10.5t-26.5 -10t-11.5 -27q0 -15 11.5 -26t26.5 -11
q17 0 27 11t10 26zM163 0l296 629h132l-297 -629h-131zM541 582q0 16 -9.5 27t-26.5 11q-15 0 -27 -11t-12 -27q0 -15 12 -26t26 -11q17 0 27 11t10 26zM507 508q0 15 -11 26.5t-26 11.5q-16 0 -26.5 -11.5t-10.5 -26.5q0 -17 10.5 -27t26.5 -10q15 0 26 10t11 27zM473 433
q0 15 -11.5 26.5t-25.5 11.5q-16 0 -27.5 -11t-11.5 -27t11 -26.5t27 -10.5q14 0 26 10.5t12 26.5zM438 359q0 15 -11 26t-27 11q-17 0 -27 -11t-10 -26q0 -17 10 -27.5t27 -10.5q16 0 27 10.5t11 27.5zM365 246q16 0 26.5 10.5t10.5 27.5q0 14 -10 25.5t-27 11.5
q-15 0 -26 -11.5t-11 -25.5q0 -16 11 -27t26 -11zM368 209q0 15 -11 26.5t-27 11.5q-15 0 -26 -11.5t-11 -26.5q0 -17 11 -27.5t26 -10.5q16 0 27 10.5t11 27.5zM297 97q14 0 25 10.5t11 26.5t-11 26.5t-25 10.5q-17 0 -27.5 -10.5t-10.5 -26.5t10.5 -26.5t27.5 -10.5z
M298 56q0 15 -10.5 26.5t-27.5 11.5q-14 0 -25.5 -11.5t-11.5 -26.5q0 -16 11 -26.5t26 -10.5q17 0 27.5 10.5t10.5 26.5zM330 424q0 -72 -42 -110t-114 -38t-114.5 38t-42.5 110v69q0 70 42.5 109t114.5 39t114 -39t42 -109v-69zM283 513q0 17 -11.5 27.5t-25.5 10.5
q-16 0 -27 -10.5t-11 -27.5q0 -15 11 -26t27 -11q14 0 25.5 11t11.5 26zM208 580q0 17 -11 27.5t-26 10.5q-16 0 -27 -10.5t-11 -27.5q0 -14 11 -25.5t27 -11.5q15 0 26 11.5t11 25.5zM283 409q0 16 -11.5 26.5t-25.5 10.5q-16 0 -27 -10.5t-11 -26.5q0 -17 11 -27t27 -10
q14 0 25.5 10t11.5 27zM189 493q0 30 -15 30q-16 0 -16 -30v-71q0 -29 16 -29q15 0 15 29v71zM133 513q0 17 -11 27.5t-26 10.5t-26.5 -10.5t-11.5 -27.5q0 -15 11.5 -26t26.5 -11t26 11t11 26zM171 304q15 0 26 11t11 27q0 15 -11 26t-26 11q-16 0 -27 -11t-11 -26
q0 -16 11 -27t27 -11zM133 409q0 16 -11 26.5t-26 10.5t-26.5 -10.5t-11.5 -26.5q0 -17 11.5 -27t26.5 -10t26 10t11 27z" />
    <glyph glyph-name="ampersand" unicode="&#x26;" horiz-adv-x="618" 
d="M458 -34l-61 79q-32 -28 -70.5 -42.5t-97.5 -14.5q-44 0 -82 14.5t-66 40.5t-44.5 62t-16.5 78q0 117 118 187q-36 48 -36 108q0 37 14 67t38.5 51.5t58.5 33t73 11.5q37 0 70 -11.5t57 -31.5t38 -48t14 -62q0 -88 -87 -149l48 -55l74 61l117 -122l-86 -68l67 -88z
M370 555q0 16 -11 27.5t-27 11.5t-27.5 -11t-11.5 -28q0 -16 11.5 -27t27.5 -11q17 0 27.5 11t10.5 27zM432 487q0 16 -11.5 27.5t-27.5 11.5t-27.5 -11.5t-11.5 -27.5q0 -17 11.5 -27.5t27.5 -10.5q15 0 27 11t12 27zM272 557q0 17 -10.5 28t-27.5 11q-16 0 -27.5 -10.5
t-11.5 -27.5q0 -16 11.5 -27.5t27.5 -11.5t27 11.5t11 26.5zM281 457q25 16 25 34q0 16 -20 16t-20 -16q0 -13 15 -34zM383 405q0 16 -11.5 27.5t-27.5 11.5q-15 0 -26.5 -12t-11.5 -27q0 -16 11 -27.5t27 -11.5t27.5 11.5t11.5 27.5zM491 193q16 0 27 11.5t11 27.5t-11 27
t-27 11t-27.5 -11t-11.5 -27t11.5 -27.5t27.5 -11.5zM212 490q0 16 -12 27t-27 11q-17 0 -28 -10.5t-11 -27.5q0 -16 11 -27.5t27 -11.5t28 11.5t12 27.5zM256 404q0 15 -10.5 29.5t-24.5 14.5q-17 0 -29.5 -12t-12.5 -29q0 -16 11.5 -27t27.5 -11q15 0 26.5 10.5t11.5 24.5
zM316 327q0 16 -12 27t-27 11q-16 0 -27 -11t-11 -27t11 -27.5t27 -11.5t27.5 11.5t11.5 27.5zM386 241q0 16 -11.5 27.5t-27.5 11.5q-17 0 -28 -11.5t-11 -27.5t11 -27.5t28 -11.5q16 0 27.5 11.5t11.5 27.5zM449 167q0 16 -11 27.5t-28 11.5q-16 0 -27.5 -11.5
t-11.5 -27.5q0 -17 11.5 -27.5t27.5 -10.5t27.5 11t11.5 27zM517 82q0 16 -11 27.5t-27 11.5t-27.5 -11.5t-11.5 -27.5q0 -17 11.5 -27.5t27.5 -10.5q15 0 26.5 11t11.5 27zM215 302q0 16 -11 27.5t-28 11.5q-16 0 -27 -11.5t-11 -27.5q0 -17 11 -27.5t27 -10.5
q17 0 28 10.5t11 27.5zM234 245q-30 -21 -30 -51q0 -17 11 -28t29 -11q25 0 48 17zM374 102q0 17 -11.5 27.5t-27.5 10.5t-27 -10.5t-11 -27.5q0 -16 11 -27.5t27 -11.5t27.5 11.5t11.5 27.5zM118 172q17 0 27.5 11.5t10.5 27.5t-10.5 27t-27.5 11q-16 0 -27.5 -11
t-11.5 -27t11.5 -27.5t27.5 -11.5zM270 76q0 16 -11 27.5t-27 11.5q-17 0 -28 -11.5t-11 -27.5q0 -15 11.5 -26.5t27.5 -11.5t27 11t11 27zM149 83q17 0 27.5 11.5t10.5 27.5t-11 27t-27 11t-27.5 -10.5t-11.5 -27.5q0 -16 11.5 -27.5t27.5 -11.5z" />
    <glyph glyph-name="quotesingle" unicode="'" horiz-adv-x="209" 
d="M28 324v305h152v-305h-152zM144 565q0 17 -11.5 28t-27.5 11q-17 0 -27.5 -11t-10.5 -28q0 -16 10.5 -27t27.5 -11q16 0 27.5 11t11.5 27zM144 481q0 17 -11.5 27.5t-27.5 10.5q-17 0 -27.5 -10.5t-10.5 -27.5q0 -16 10.5 -27.5t27.5 -11.5q16 0 27.5 11.5t11.5 27.5z
M144 396q0 16 -11.5 27t-27.5 11q-17 0 -27.5 -11t-10.5 -27t10.5 -27.5t27.5 -11.5q16 0 27.5 11.5t11.5 27.5z" />
    <glyph glyph-name="parenleft" unicode="(" horiz-adv-x="316" 
d="M185 -78q-151 191 -151 377t151 376l128 -90q-115 -148 -115 -287q0 -140 115 -285zM247 571q0 16 -11.5 27.5t-27.5 11.5q-17 0 -27.5 -11.5t-10.5 -27.5q0 -17 10.5 -27.5t27.5 -10.5q15 0 27 11t12 27zM199 488q0 16 -11.5 27.5t-27.5 11.5t-27 -11.5t-11 -27.5
t11 -27.5t27 -11.5t27.5 11.5t11.5 27.5zM128 360q16 0 27 11.5t11 27.5t-11 27.5t-27 11.5q-17 0 -28 -11.5t-11 -27.5t11 -27.5t28 -11.5zM153 304q0 16 -11.5 27.5t-27.5 11.5t-27 -11.5t-11 -27.5q0 -17 11 -28t27 -11t27.5 11t11.5 28zM247 37q0 16 -12 27.5t-27 11.5
q-17 0 -27.5 -11t-10.5 -28q0 -16 10.5 -27.5t27.5 -11.5q16 0 27.5 11.5t11.5 27.5zM199 120q0 16 -11.5 27.5t-27.5 11.5t-27 -11.5t-11 -27.5t11 -27.5t27 -11.5t27.5 11.5t11.5 27.5zM166 209q0 16 -11 27.5t-27 11.5q-17 0 -28 -11.5t-11 -27.5t11 -27t28 -11
q16 0 27 11t11 27z" />
    <glyph glyph-name="parenright" unicode=")" horiz-adv-x="316" 
d="M228 209q0 16 -11 27.5t-28 11.5q-16 0 -27.5 -11.5t-11.5 -27.5t11.5 -27t27.5 -11q17 0 28 11t11 27zM195 120q0 16 -11.5 27.5t-27.5 11.5t-27 -11.5t-11 -27.5t11 -27.5t27 -11.5t27.5 11.5t11.5 27.5zM147 37q0 17 -11 28t-28 11q-15 0 -26.5 -11.5t-11.5 -27.5
t11 -27.5t27 -11.5q17 0 28 11.5t11 27.5zM241 304q0 16 -11.5 27.5t-27.5 11.5t-27 -11.5t-11 -27.5q0 -17 11 -28t27 -11t27.5 11t11.5 28zM228 399q0 16 -11 27.5t-28 11.5q-16 0 -27.5 -11.5t-11.5 -27.5t11.5 -27.5t27.5 -11.5q17 0 28 11.5t11 27.5zM195 488
q0 16 -11.5 27.5t-27.5 11.5t-27 -11.5t-11 -27.5t11 -27.5t27 -11.5t27.5 11.5t11.5 27.5zM147 571q0 16 -11 27.5t-28 11.5q-16 0 -27 -11.5t-11 -27.5t11.5 -27t26.5 -11q17 0 28 10.5t11 27.5zM3 13q115 142 115 285q0 142 -115 287l129 90q150 -189 150 -376t-150 -377
z" />
    <glyph glyph-name="asterisk" unicode="*" horiz-adv-x="498" 
d="M309 173l-60 147l-58 -147l-150 107l124 100l-160 7l56 174l136 -84l-42 152h189l-43 -152l137 84l56 -174l-161 -7l125 -100zM417 424q17 0 27.5 11t10.5 28q0 16 -10.5 27t-27.5 11q-16 0 -27.5 -11t-11.5 -27t11.5 -27.5t27.5 -11.5zM248 544q16 0 27 11.5t11 27.5
q0 17 -11 28t-27 11t-27.5 -11t-11.5 -28q0 -16 11.5 -27.5t27.5 -11.5zM374 434q0 16 -11.5 27.5t-27.5 11.5t-27 -11.5t-11 -27.5q0 -17 11 -27.5t27 -10.5q15 0 27 11t12 27zM248 459q16 0 27 11.5t11 27.5t-10.5 27.5t-27.5 11.5q-16 0 -27.5 -11.5t-11.5 -27.5
t11.5 -27.5t27.5 -11.5zM290 409q0 17 -11.5 28t-27.5 11q-17 0 -27.5 -11t-10.5 -28q0 -16 10.5 -27.5t27.5 -11.5q16 0 27.5 11.5t11.5 27.5zM301 299q17 0 27.5 11t10.5 28q0 15 -11 26.5t-27 11.5t-27.5 -11t-11.5 -27q0 -17 11.5 -28t27.5 -11zM388 265q0 16 -11 27.5
t-28 11.5q-16 0 -27 -11.5t-11 -27.5t11 -27t27 -11q17 0 28 11t11 27zM205 430q0 16 -11 27.5t-28 11.5q-16 0 -27 -11.5t-11 -27.5t11 -27.5t27 -11.5q17 0 28 11.5t11 27.5zM124 460q0 16 -11 27.5t-27 11.5t-27.5 -12t-11.5 -27q0 -16 11 -27t28 -11q16 0 27 11t11 27z
M235 335q0 16 -10.5 27.5t-27.5 11.5q-16 0 -27.5 -11.5t-11.5 -27.5t11.5 -27t27.5 -11q17 0 27.5 11t10.5 27zM189 268q0 16 -11.5 27.5t-27.5 11.5t-27 -11.5t-11 -27.5t11 -27.5t27 -11.5t27.5 11.5t11.5 27.5z" />
    <glyph glyph-name="plus" unicode="+" horiz-adv-x="491" 
d="M460 314q0 15 -11.5 27t-26.5 12q-16 0 -27.5 -11.5t-11.5 -27.5q0 -17 11.5 -27.5t27.5 -10.5t27 10.5t11 27.5zM375 314q0 15 -11.5 27t-26.5 12q-16 0 -27.5 -11.5t-11.5 -27.5q0 -17 11.5 -27.5t27.5 -10.5t27 10.5t11 27.5zM292 313q0 15 -11.5 27t-26.5 12
q-17 0 -28 -11.5t-11 -27.5q0 -17 11 -27.5t28 -10.5q16 0 27 10.5t11 27.5zM205 314q0 15 -11.5 27t-27.5 12t-27 -11.5t-11 -27.5q0 -17 11 -27.5t27 -10.5q17 0 28 10.5t11 27.5zM120 314q0 15 -11.5 27t-27.5 12t-27 -11.5t-11 -27.5q0 -17 11 -27.5t27 -10.5
q17 0 28 10.5t11 27.5zM258 103q15 0 25 12t10 27q0 16 -11 27.5t-27 11.5q-17 0 -28 -11.5t-11 -27.5t12.5 -27.5t29.5 -11.5zM255 188q15 0 26.5 12t11.5 27q0 16 -11 27t-27 11q-17 0 -28 -11t-11 -27t11 -27.5t28 -11.5zM255 359q15 0 26.5 11t11.5 27t-11 27.5
t-27 11.5q-17 0 -28 -11.5t-11 -27.5q0 -17 11 -27.5t28 -10.5zM255 444q15 0 26.5 11t11.5 27t-11 27.5t-27 11.5q-17 0 -28 -11.5t-11 -27.5q0 -17 11 -27.5t28 -10.5zM186 78v168h-168v132h168v167h132v-167h168v-132h-168v-168h-132z" />
    <glyph glyph-name="comma" unicode="," horiz-adv-x="246" 
d="M13 -50l48 276l173 -34l-74 -271zM178 156q0 16 -11 27.5t-28 11.5q-16 0 -27 -11.5t-11 -27.5t11 -27t27 -11q17 0 28 11t11 27zM157 75q0 16 -11.5 27t-27.5 11q-17 0 -27.5 -11t-10.5 -27q0 -17 10.5 -28t27.5 -11q16 0 27.5 11t11.5 28zM135 -12q0 17 -11 28t-27 11
t-27.5 -11t-11.5 -28q0 -16 11.5 -27t27.5 -11t27 11t11 27z" />
    <glyph glyph-name="hyphen" unicode="-" horiz-adv-x="350" 
d="M20 225v160h310v-160h-310zM297 308q0 16 -11 27.5t-27 11.5t-27.5 -11t-11.5 -28q0 -16 11.5 -27t27.5 -11q17 0 27.5 11t10.5 27zM213 308q0 16 -11.5 27.5t-27.5 11.5t-27.5 -11t-11.5 -28q0 -16 11.5 -27t27.5 -11q17 0 28 11t11 27zM128 308q0 16 -12 27.5t-27 11.5
q-16 0 -27.5 -11t-11.5 -28q0 -16 11.5 -27t27.5 -11t27.5 11t11.5 27z" />
    <glyph glyph-name="period" unicode="." horiz-adv-x="244" 
d="M122 -12q-43 0 -70.5 26.5t-27.5 71.5q0 43 27.5 71t70.5 28t70.5 -28.5t27.5 -70.5q0 -45 -26.5 -71.5t-71.5 -26.5zM122 47q16 0 27 11.5t11 27.5q0 17 -11 27.5t-27 10.5q-17 0 -28 -10.5t-11 -27.5q0 -16 11 -27.5t28 -11.5z" />
    <glyph glyph-name="slash" unicode="/" horiz-adv-x="338" 
d="M2 -10l170 649h164l-165 -649h-169zM276 566q0 17 -10.5 28t-27.5 11q-15 0 -27 -11.5t-12 -27.5t11.5 -27t27.5 -11q17 0 27.5 11t10.5 27zM217 446q16 0 27 11.5t11 27.5q0 15 -11.5 26.5t-26.5 11.5q-17 0 -28 -11t-11 -27t11 -27.5t28 -11.5zM233 402
q0 17 -11.5 27.5t-27.5 10.5t-27.5 -10.5t-11.5 -27.5q0 -16 12 -27.5t27 -11.5q16 0 27.5 11.5t11.5 27.5zM211 320q0 16 -11 27.5t-28 11.5q-16 0 -27 -11.5t-11 -27.5t11 -27.5t27 -11.5t27.5 11.5t11.5 27.5zM189 238q0 17 -11.5 27.5t-27.5 10.5t-27 -11t-11 -27
t10.5 -27.5t27.5 -11.5q16 0 27.5 11.5t11.5 27.5zM167 156q0 15 -11.5 27t-26.5 12q-16 0 -27.5 -11.5t-11.5 -27.5t11.5 -27t27.5 -11t27 11t11 27zM106 34q16 0 27 11.5t11 27.5q0 17 -11 28t-27 11t-27.5 -11t-11.5 -28q0 -15 12 -27t27 -12z" />
    <glyph glyph-name="zero" unicode="0" horiz-adv-x="494" 
d="M461 207q0 -106 -56 -162.5t-158 -56.5q-100 0 -156.5 56.5t-56.5 162.5v216q0 106 56.5 162.5t156.5 56.5q102 0 158 -56.5t56 -162.5v-216zM330 539q0 15 -11.5 27t-27.5 12t-27 -11.5t-11 -27.5q0 -17 11 -27.5t27 -10.5t27.5 10.5t11.5 27.5zM357 444q16 0 27.5 13.5
t11.5 28.5q0 16 -12 26t-27 10q-16 0 -27.5 -11.5t-11.5 -27.5q0 -17 11.5 -28t27.5 -11zM379 355q16 0 27 11t11 28q0 16 -11 27.5t-27 11.5q-17 0 -28 -11.5t-11 -27.5q0 -17 11 -28t28 -11zM242 539q0 15 -11.5 27t-27.5 12t-27 -11.5t-11 -27.5q0 -17 11 -27.5t27 -10.5
q17 0 28 10.5t11 27.5zM379 266q16 0 27 11.5t11 27.5q0 17 -11 28t-27 11q-17 0 -28 -11t-11 -28q0 -16 11 -27.5t28 -11.5zM138 444q16 0 27 11t11 28q0 16 -11 27.5t-27 11.5t-27.5 -11.5t-11.5 -27.5q0 -17 11.5 -28t27.5 -11zM379 178q16 0 27 11.5t11 27.5
q0 17 -11 27.5t-27 10.5q-17 0 -28 -10.5t-11 -27.5q0 -16 11 -27.5t28 -11.5zM294 423q0 23 -12.5 39t-34.5 16t-35 -16t-13 -39v-217q0 -24 13 -39.5t35 -15.5t34.5 15.5t12.5 39.5v217zM155 396q0 17 -11 28t-27 11q-17 0 -28 -11t-11 -28q0 -16 11 -27t28 -11
q16 0 27 11t11 27zM396 136q0 17 -11.5 28t-27.5 11t-27.5 -11t-11.5 -28q0 -16 11.5 -27.5t27.5 -11.5t27.5 11.5t11.5 27.5zM155 308q0 16 -11 27.5t-27 11.5q-17 0 -28 -11.5t-11 -27.5t11 -27t28 -11q16 0 27 11t11 27zM330 80q0 17 -11.5 27.5t-27.5 10.5t-27 -10.5
t-11 -27.5q0 -16 11 -27.5t27 -11.5t27.5 12t11.5 27zM117 181q16 0 27 11.5t11 27.5t-11 27.5t-27 11.5q-17 0 -28 -11.5t-11 -27.5t11 -27.5t28 -11.5zM138 97q16 0 27 11.5t11 27.5q0 17 -11 28t-27 11t-27.5 -11t-11.5 -28q0 -16 11.5 -27.5t27.5 -11.5zM242 80
q0 17 -11 27.5t-28 10.5q-16 0 -27 -10.5t-11 -27.5q0 -16 11 -27.5t27 -11.5t27.5 12t11.5 27z" />
    <glyph glyph-name="one" unicode="1" horiz-adv-x="305" 
d="M86 0v460l-72 -16v153l253 52v-649h-181zM219 549q0 16 -10.5 27.5t-27.5 11.5q-16 0 -27.5 -11.5t-11.5 -27.5t11.5 -27t27.5 -11q17 0 27.5 11t10.5 27zM181 418q17 0 27.5 11t10.5 28q0 16 -10.5 27.5t-27.5 11.5q-16 0 -27.5 -11.5t-11.5 -27.5q0 -17 11.5 -28
t27.5 -11zM129 536q0 16 -11.5 27.5t-27.5 11.5q-17 0 -28 -11.5t-11 -27.5t11.5 -27.5t27.5 -11.5t27.5 11t11.5 28zM181 325q17 0 27.5 11.5t10.5 27.5q0 17 -10.5 27.5t-27.5 10.5q-16 0 -27.5 -10.5t-11.5 -27.5q0 -16 11.5 -27.5t27.5 -11.5zM219 271q0 16 -10.5 27.5
t-27.5 11.5q-16 0 -27.5 -11.5t-11.5 -27.5t11.5 -27t27.5 -11q17 0 27.5 11t10.5 27zM181 140q17 0 27.5 11t10.5 28q0 16 -10.5 27.5t-27.5 11.5q-16 0 -27.5 -11.5t-11.5 -27.5q0 -17 11.5 -28t27.5 -11zM181 47q17 0 27.5 11.5t10.5 27.5t-10.5 27t-27.5 11
q-16 0 -27.5 -11t-11.5 -27t11.5 -27.5t27.5 -11.5z" />
    <glyph glyph-name="two" unicode="2" horiz-adv-x="540" 
d="M13 0l265 393q11 16 16 29t5 20q0 18 -9 25.5t-29 7.5q-24 0 -33.5 -17.5t-9.5 -65.5h-180q0 60 12 106.5t39 78t69.5 48t102.5 16.5q57 0 99 -14.5t69.5 -40.5t41.5 -62.5t14 -79.5q0 -74 -50 -139l-99 -131h181v-174h-504zM348 486q16 0 27 11t11 28q0 16 -11 27.5
t-27 11.5q-17 0 -28 -11.5t-11 -27.5t11.5 -27.5t27.5 -11.5zM396 414q16 0 27 11.5t11 27.5t-11 27t-27 11t-27.5 -11t-11.5 -27t11.5 -27.5t27.5 -11.5zM302 555q0 17 -11.5 28t-27.5 11q-17 0 -28 -11t-11 -28q0 -15 11.5 -26.5t27.5 -11.5t27.5 11t11.5 27zM405 373
q0 16 -12 27.5t-27 11.5q-16 0 -27 -11t-11 -28q0 -16 11 -27.5t27 -11.5t27.5 11.5t11.5 27.5zM216 525q0 16 -11 27.5t-28 11.5q-16 0 -27 -11.5t-11 -27.5t11.5 -27.5t26.5 -11.5q17 0 28 11t11 28zM360 301q0 16 -11 27t-27 11q-17 0 -28 -11t-11 -27t11 -27.5t27 -11.5
t27.5 11.5t11.5 27.5zM139 409q17 0 27.5 11t10.5 28q0 16 -10.5 27t-27.5 11q-16 0 -27.5 -11t-11.5 -27t11.5 -27.5t27.5 -11.5zM480 84q0 17 -11.5 28t-27.5 11t-27.5 -10.5t-11.5 -27.5q0 -16 11.5 -27.5t27.5 -11.5t27.5 11.5t11.5 26.5zM314 228q0 17 -10.5 28
t-27.5 11q-16 0 -27.5 -11t-11.5 -28q0 -15 11.5 -26.5t27.5 -11.5q17 0 27.5 11t10.5 27zM395 84q0 17 -11.5 28t-27.5 11t-27 -10.5t-11 -27.5q0 -16 11 -27.5t27 -11.5q15 0 27 11.5t12 26.5zM270 157q0 16 -11.5 27.5t-27.5 11.5t-27.5 -11.5t-11.5 -27.5
q0 -17 11.5 -28t27.5 -11t27.5 11t11.5 28zM310 84q0 17 -11.5 28t-27.5 11q-17 0 -27.5 -10.5t-10.5 -27.5q0 -16 10.5 -27.5t27.5 -11.5q15 0 27 11.5t12 26.5zM225 84q0 17 -11.5 28t-27.5 11q-17 0 -27.5 -10.5t-10.5 -27.5q0 -16 10.5 -27.5t27.5 -11.5q16 0 27.5 11.5
t11.5 26.5z" />
    <glyph glyph-name="three" unicode="3" horiz-adv-x="498" 
d="M373 525q0 16 -11 27.5t-28 11.5q-16 0 -27 -11.5t-11 -27.5t11.5 -27.5t26.5 -11.5q17 0 28 11t11 28zM421 453q0 16 -11 27t-28 11q-16 0 -27 -11t-11 -27t11 -27.5t27 -11.5q17 0 28 11.5t11 27.5zM288 555q0 17 -11.5 28t-27.5 11t-27 -11t-11 -28q0 -15 11.5 -26.5
t26.5 -11.5q16 0 27.5 11t11.5 27zM353 334q17 0 27.5 11.5t10.5 27.5t-11 27.5t-27 11.5t-27.5 -11t-11.5 -28q0 -16 11.5 -27.5t27.5 -11.5zM165 486q16 0 27 11t11 28t-11.5 28t-28.5 11q-15 0 -26 -12t-11 -27q0 -16 11.5 -27.5t27.5 -11.5zM399 250q0 16 -11.5 27.5
t-27.5 11.5q-17 0 -27.5 -11t-10.5 -28q0 -16 10.5 -27t27.5 -11q16 0 27.5 11t11.5 27zM333 311q0 16 -11 27t-28 11q-16 0 -27.5 -11t-11.5 -27q0 -17 11.5 -28t27.5 -11q17 0 28 11t11 28zM421 165q0 16 -11 27.5t-28 11.5q-16 0 -27 -11.5t-11 -27.5q0 -17 11 -27.5
t27 -10.5q17 0 28 10.5t11 27.5zM333 53q16 0 27 11t11 28q0 16 -11 27t-27 11q-17 0 -28 -11t-11 -27q0 -17 11 -28t28 -11zM243 31q17 0 27.5 11.5t10.5 27.5t-10.5 27t-27.5 11q-15 0 -27 -11t-12 -27t11.5 -27.5t27.5 -11.5zM147 179q0 16 -11.5 27.5t-27.5 11.5
q-17 0 -27.5 -11.5t-10.5 -27.5q0 -17 10.5 -28t27.5 -11q16 0 27.5 11t11.5 28zM197 102q0 16 -11 27.5t-27 11.5q-17 0 -28 -11.5t-11 -27.5t11.5 -27t27.5 -11t27 10.5t11 27.5zM221 390q12 0 25.5 2.5t24 8.5t17.5 17t7 28t-12.5 28.5t-28.5 11.5q-23 0 -37.5 -14
t-20.5 -34l-142 69q23 69 75 101.5t124 32.5q40 0 78 -13.5t68 -38t48 -59t18 -77.5q0 -35 -13.5 -68t-39.5 -54q35 -28 48.5 -57.5t13.5 -74.5q0 -50 -17 -89t-47.5 -66t-71.5 -41.5t-89 -14.5q-56 0 -98.5 17.5t-71 49t-43 75.5t-14.5 98l159 21q-1 -2 -1 -10q0 -16 4 -32
t12.5 -28.5t21.5 -20.5t31 -8q24 0 36 14.5t12 37.5q0 18 -6.5 28.5t-17 16t-24.5 7t-28 1.5v135z" />
    <glyph glyph-name="four" unicode="4" horiz-adv-x="530" 
d="M264 0v160h-242v147l243 322h177v-311h75v-158h-75v-160h-178zM394 574q0 17 -11.5 27.5t-27.5 10.5t-27 -10.5t-11 -27.5q0 -16 11 -27.5t27 -11.5t27.5 11.5t11.5 27.5zM394 489q0 17 -11.5 28t-27.5 11t-27 -11t-11 -28q0 -16 11 -27.5t27 -11.5t27.5 11.5t11.5 27.5z
M322 520q0 15 -11.5 27t-27.5 12t-27.5 -11.5t-11.5 -27.5t11.5 -27.5t27.5 -11.5q17 0 28 11.5t11 27.5zM394 404q0 16 -11.5 27.5t-27.5 11.5t-27 -11.5t-11 -27.5t11 -27.5t27 -11.5t27.5 11.5t11.5 27.5zM268 454q0 16 -11.5 27t-27.5 11t-27 -11t-11 -27t11 -27.5
t27 -11.5t27.5 11.5t11.5 27.5zM394 319q0 16 -11.5 27.5t-27.5 11.5t-27 -11.5t-11 -27.5q0 -17 11 -27.5t27 -10.5t27.5 10.5t11.5 27.5zM479 234q0 16 -11.5 27.5t-27.5 11.5t-27 -11.5t-11 -27.5q0 -17 11 -27.5t27 -10.5t27.5 10.5t11.5 27.5zM394 234q0 16 -11.5 27.5
t-27.5 11.5t-27 -11.5t-11 -27.5q0 -17 11 -27.5t27 -10.5t27.5 10.5t11.5 27.5zM269 381l-52 -63h52v63zM176 349q17 0 27.5 11t10.5 28q0 16 -10.5 27.5t-27.5 11.5q-16 0 -27.5 -12t-11.5 -27q0 -17 11.5 -28t27.5 -11zM309 234q0 16 -11.5 27.5t-27.5 11.5
q-17 0 -27.5 -11.5t-10.5 -27.5q0 -17 10.5 -27.5t27.5 -10.5q16 0 27.5 10.5t11.5 27.5zM394 149q0 17 -11.5 27.5t-27.5 10.5t-27 -10.5t-11 -27.5q0 -16 11 -27.5t27 -11.5t27.5 11.5t11.5 27.5zM123 283q16 0 27 11t11 28q0 16 -11 27t-27 11t-27.5 -11t-11.5 -27
q0 -17 11.5 -28t27.5 -11zM223 234q0 16 -10.5 27.5t-27.5 11.5q-16 0 -27.5 -11.5t-11.5 -27.5q0 -17 11.5 -27.5t27.5 -10.5q17 0 27.5 10.5t10.5 27.5zM394 64q0 17 -11.5 27.5t-27.5 10.5t-27 -10.5t-11 -27.5q0 -16 11 -27.5t27 -11.5t27.5 11.5t11.5 27.5zM139 234
q0 16 -11 27.5t-28 11.5q-16 0 -27.5 -11.5t-11.5 -27.5q0 -17 11.5 -27.5t27.5 -10.5q17 0 28 10.5t11 27.5z" />
    <glyph glyph-name="five" unicode="5" horiz-adv-x="459" 
d="M186 462v-48q37 8 61 8q43 0 78 -16t60 -44.5t39 -66.5t14 -82q0 -50 -15.5 -91t-45 -71t-72 -46.5t-96.5 -16.5q-75 0 -117.5 34.5t-68.5 95.5l159 58q3 -8 11.5 -14.5t23.5 -6.5q20 0 29 15t9 38q0 54 -42 54q-18 0 -27.5 -8.5t-14.5 -25.5h-145v401h403v-167h-243z
M401 548q0 17 -11.5 27.5t-27.5 10.5q-17 0 -28 -10.5t-11 -27.5q0 -16 11 -27.5t28 -11.5q16 0 27.5 11.5t11.5 27.5zM315 548q0 17 -11 27.5t-28 10.5q-16 0 -27 -10.5t-11 -27.5q0 -16 11 -27.5t27 -11.5q17 0 28 11.5t11 27.5zM192 509q17 0 27.5 11.5t10.5 27.5
q0 17 -10.5 27.5t-27.5 10.5q-16 0 -27.5 -10.5t-11.5 -27.5q0 -16 11.5 -27.5t27.5 -11.5zM107 509q16 0 27 11.5t11 27.5q0 17 -11 27.5t-27 10.5t-27.5 -10.5t-11.5 -27.5q0 -16 11.5 -27.5t27.5 -11.5zM368 275q0 16 -11.5 27t-27.5 11t-27 -11t-11 -27q0 -17 11 -28
t27 -11q15 0 27 11.5t12 27.5zM305 328q0 16 -12 27.5t-27 11.5q-17 0 -27.5 -11.5t-10.5 -27.5t10.5 -27t27.5 -11q16 0 27.5 11t11.5 27zM107 424q16 0 27 11.5t11 27.5t-11 27t-27 11t-27.5 -11t-11.5 -27t11.5 -27.5t27.5 -11.5zM344 156q15 0 26.5 11.5t11.5 27.5
t-11 27.5t-27 11.5q-17 0 -28 -11.5t-11 -27.5t11 -27.5t28 -11.5zM220 333q0 16 -11.5 27.5t-27.5 11.5t-27 -11.5t-11 -27.5q0 -17 11 -27.5t27 -10.5q17 0 28 10.5t11 27.5zM107 339q16 0 27 11.5t11 27.5t-11 27.5t-27 11.5t-27.5 -11.5t-11.5 -27.5t11.5 -27.5
t27.5 -11.5zM312 82q16 0 27 11.5t11 27.5q0 17 -11 28t-27 11t-27.5 -11t-11.5 -28q0 -15 11.5 -27t27.5 -12zM145 293q0 16 -11 27.5t-27 11.5t-27.5 -11.5t-11.5 -27.5q0 -17 11.5 -27.5t27.5 -10.5t27 10.5t11 27.5zM274 79q0 16 -11.5 27.5t-27.5 11.5
q-17 0 -27.5 -11.5t-10.5 -27.5q0 -17 10.5 -28t27.5 -11q16 0 27.5 11t11.5 28zM192 93q0 16 -11 27.5t-27 11.5t-27.5 -11.5t-11.5 -27.5t11.5 -27t27.5 -11t27 11t11 27z" />
    <glyph glyph-name="six" unicode="6" horiz-adv-x="486" 
d="M295 402q81 -7 125.5 -61t44.5 -138q0 -48 -17 -87.5t-47 -68t-71 -44t-89 -15.5t-89 16t-71.5 44.5t-47.5 68.5t-17 89q0 84 72 195l149 228h215zM343 569q0 16 -11.5 27t-27.5 11t-27.5 -11t-11.5 -27t11.5 -27.5t27.5 -11.5t27.5 12t11.5 27zM299 496q0 16 -11.5 27.5
t-27.5 11.5q-17 0 -27.5 -11.5t-10.5 -27.5q0 -17 10.5 -27.5t27.5 -10.5q16 0 27.5 10.5t11.5 27.5zM255 423q0 16 -11 27.5t-27 11.5t-27.5 -11.5t-11.5 -27.5t11.5 -27t27.5 -11q17 0 27.5 11t10.5 27zM372 300q0 16 -12.5 27.5t-26.5 11.5q-16 0 -27 -11.5t-11 -27.5
t11 -27.5t27 -11.5t27.5 11.5t11.5 27.5zM369 189q17 0 27.5 11.5t10.5 27.5q0 17 -10.5 27.5t-27.5 10.5q-16 0 -27.5 -10.5t-11.5 -27.5q0 -16 11.5 -27.5t27.5 -11.5zM291 334q0 17 -10.5 28t-27.5 11q-16 0 -27.5 -11t-11.5 -28q0 -15 12 -26.5t27 -11.5q17 0 27.5 11
t10.5 27zM212 350q0 16 -11.5 27.5t-27.5 11.5q-17 0 -28 -11.5t-11 -27.5q0 -17 11 -27.5t28 -10.5q16 0 27.5 10.5t11.5 27.5zM394 150q0 16 -11.5 27t-27.5 11t-27.5 -11t-11.5 -27t11.5 -27.5t26.5 -11.5q16 0 28 11t12 28zM241 153q20 0 32 15t12 35q0 21 -11.5 35.5
t-32.5 14.5q-20 0 -32 -14.5t-12 -35.5q0 -20 12 -35t32 -15zM167 277q0 17 -10.5 28t-27.5 11q-16 0 -27.5 -11t-11.5 -28q0 -15 11.5 -26.5t27.5 -11.5q17 0 27.5 11t10.5 27zM338 88q0 16 -11.5 27.5t-27.5 11.5q-17 0 -28 -11.5t-11 -27.5t11 -27t28 -11q15 0 27 11
t12 27zM148 197q0 15 -11.5 26.5t-27.5 11.5t-27.5 -11t-11.5 -27q0 -17 11 -28t27 -11q17 0 28.5 11t11.5 28zM255 76q0 16 -10.5 27.5t-27.5 11.5q-16 0 -27.5 -11.5t-11.5 -27.5t11.5 -27t27.5 -11t27 11.5t11 26.5zM183 119q0 16 -11.5 27.5t-27.5 11.5
q-17 0 -27.5 -11.5t-10.5 -27.5q0 -17 10.5 -27.5t27.5 -10.5q16 0 27.5 10.5t11.5 27.5z" />
    <glyph glyph-name="seven" unicode="7" horiz-adv-x="486" 
d="M25 0l201 462h-207v167h462l-255 -629h-201zM391 541q0 15 -11.5 27t-27.5 12t-27.5 -11.5t-11.5 -27.5t11.5 -27.5t27.5 -11.5q17 0 28 11.5t11 27.5zM304 540q0 16 -11 27.5t-28 11.5q-15 0 -26.5 -12t-11.5 -27q0 -16 11 -27.5t27 -11.5q17 0 28 11.5t11 27.5z
M358 463q0 15 -12 26.5t-27 11.5q-16 0 -27 -11t-11 -27t11 -27.5t27 -11.5t27.5 11.5t11.5 27.5zM181 501q16 0 27 11.5t11 27.5t-11 27.5t-27 11.5t-27.5 -12t-11.5 -27q0 -16 11.5 -27.5t27.5 -11.5zM286 345q16 0 27 12t11 27q0 17 -10.5 28t-27.5 11q-16 0 -27.5 -11
t-11.5 -28q0 -16 11.5 -27.5t27.5 -11.5zM96 501q16 0 27 11.5t11 27.5t-11 27.5t-27 11.5q-15 0 -27 -12t-12 -27q0 -16 11.5 -27.5t27.5 -11.5zM253 267q16 0 27 11.5t11 27.5q0 17 -11 27.5t-27 10.5q-17 0 -28 -10.5t-11 -27.5q0 -16 11 -27.5t28 -11.5zM258 228
q0 16 -11.5 27t-27.5 11t-27 -10.5t-11 -27.5q0 -16 11 -27.5t27 -11.5t27.5 11.5t11.5 27.5zM225 150q0 16 -11.5 27t-27.5 11q-17 0 -27.5 -10.5t-10.5 -27.5q0 -16 10.5 -27.5t27.5 -11.5q16 0 27.5 11.5t11.5 27.5zM192 71q0 16 -11.5 27.5t-27.5 11.5t-27.5 -11.5
t-11.5 -27.5q0 -17 11.5 -27.5t27.5 -10.5q15 0 27 11t12 27z" />
    <glyph glyph-name="eight" unicode="8" horiz-adv-x="509" 
d="M423 331q58 -48 58 -134q0 -99 -55.5 -154t-170.5 -55t-171.5 56t-56.5 153q0 86 58 135q-46 43 -46 117q0 42 16 77t44.5 60.5t67.5 40t86 14.5q46 0 85.5 -14t68.5 -39t45.5 -60.5t16.5 -78.5q0 -75 -46 -118zM402 502q0 16 -11 27.5t-27 11.5t-27.5 -11.5t-11.5 -27.5
t11.5 -27t27.5 -11t27 11.5t11 26.5zM333 555q0 16 -11 27.5t-27 11.5t-27.5 -11t-11.5 -28q0 -16 11.5 -27t27.5 -11q17 0 27.5 11t10.5 27zM422 422q0 17 -11.5 27.5t-27.5 10.5t-27.5 -10t-11.5 -27q0 -16 11.5 -28t27.5 -12t27.5 12t11.5 27zM251 557q0 17 -11 28
t-27 11t-27.5 -10.5t-11.5 -27.5q0 -16 11.5 -27.5t27.5 -11.5q15 0 26.5 11.5t11.5 26.5zM300 443q0 20 -11 32.5t-34 12.5q-20 0 -33.5 -12t-13.5 -32t13.5 -33t33.5 -13t32.5 12t12.5 33zM375 352q0 16 -11.5 27.5t-27.5 11.5t-27.5 -11.5t-11.5 -27.5q0 -17 11.5 -28
t27.5 -11t27.5 11t11.5 28zM410 278q0 17 -11 28t-28 11q-15 0 -26.5 -11.5t-11.5 -27.5t11 -27.5t27 -11.5q17 0 28 11.5t11 27.5zM182 506q0 15 -11.5 26.5t-26.5 11.5q-16 0 -27.5 -11t-11.5 -27q0 -17 11 -28t27 -11t27.5 11t11.5 28zM436 201q0 17 -11.5 27.5
t-27.5 10.5q-17 0 -27.5 -10.5t-10.5 -27.5q0 -16 10.5 -27.5t27.5 -11.5q16 0 27.5 11.5t11.5 27.5zM295 326q0 17 -11 28t-28 11q-16 0 -27 -11t-11 -28q0 -15 11 -27t26 -12q17 0 28.5 11.5t11.5 27.5zM176 418q0 15 -11 29t-26 14q-16 0 -28.5 -11.5t-12.5 -28.5
q0 -16 11 -27.5t28 -11.5q14 0 26.5 10.5t12.5 25.5zM216 351q0 16 -11 27.5t-28 11.5q-16 0 -27 -11.5t-11 -27.5t11 -27.5t27 -11.5t27.5 11t11.5 28zM409 123q0 17 -11.5 28t-27.5 11t-27 -11.5t-11 -27.5t10.5 -27t27.5 -11q16 0 27.5 11t11.5 27zM255 150q22 0 34.5 15
t12.5 38q0 52 -47 52q-23 0 -36 -14.5t-13 -37.5t13 -38t36 -15zM173 278q0 16 -11.5 27.5t-27.5 11.5t-27 -11t-11 -28q0 -16 11 -27.5t27 -11.5t27.5 11.5t11.5 27.5zM342 76q0 16 -11 27.5t-28 11.5q-16 0 -27 -11.5t-11 -27.5t11 -27t27 -11t27.5 11.5t11.5 26.5z
M148 201q0 17 -11.5 27.5t-27.5 10.5t-27 -11t-11 -27t10.5 -27.5t27.5 -11.5q16 0 27.5 11.5t11.5 27.5zM241 76q0 16 -11.5 27.5t-27.5 11.5t-27 -11.5t-11 -27.5q0 -15 11 -26.5t27 -11.5t27.5 11t11.5 27zM175 123q0 17 -11.5 28t-27.5 11q-17 0 -28 -11t-11 -28
q0 -16 11.5 -27t27.5 -11t27.5 11t11.5 27z" />
    <glyph glyph-name="nine" unicode="9" horiz-adv-x="491" 
d="M35 0l157 227q-79 6 -124.5 60t-45.5 139q0 47 17 86.5t47 68t71 44.5t90 16q48 0 89 -15.5t71 -44t47 -68.5t17 -89q0 -87 -71 -196l-149 -228h-216zM382 510q0 16 -11 27.5t-27 11.5t-28 -11.5t-12 -27.5t12 -27.5t27 -11.5q16 0 27.5 11.5t11.5 27.5zM310 552
q0 16 -12 27.5t-27 11.5q-17 0 -27.5 -11t-10.5 -28q0 -16 10.5 -27.5t27.5 -11.5q16 0 27.5 11.5t11.5 27.5zM417 433q0 16 -11 27t-28 11q-16 0 -27.5 -11t-11.5 -27t11.5 -27.5t27.5 -11.5t27.5 11.5t11.5 27.5zM228 541q0 15 -12 27t-27 12q-16 0 -27.5 -11.5
t-11.5 -27.5q0 -17 11.5 -28t27.5 -11t27.5 11t11.5 28zM358 312q17 0 27.5 11.5t10.5 27.5q0 17 -10.5 28t-27.5 11q-16 0 -27.5 -11t-11.5 -28q0 -16 11.5 -27.5t27.5 -11.5zM246 376q20 0 32.5 14.5t12.5 35.5q0 20 -12.5 34.5t-32.5 14.5t-32 -14.5t-12 -34.5
q0 -21 12 -35.5t32 -14.5zM133 441q16 0 27 11.5t11 27.5t-11 27t-27 11t-27.5 -11t-11.5 -27t11.5 -27.5t27.5 -11.5zM353 279q0 15 -11.5 27t-26.5 12q-16 0 -27.5 -11.5t-11.5 -27.5q0 -17 11 -28t27 -11t27.5 11t11.5 28zM234 255q17 0 27.5 11.5t10.5 27.5
q0 17 -10.5 28t-27.5 11q-16 0 -27.5 -11.5t-11.5 -27.5t11.5 -27.5t27.5 -11.5zM157 401q0 16 -11.5 27t-27.5 11t-27 -11t-11 -27t11 -27.5t27 -11.5q17 0 28 11.5t11 27.5zM192 329q0 16 -11 27.5t-27 11.5q-17 0 -28 -11.5t-11 -27.5q0 -17 11 -27.5t28 -10.5
q16 0 27 10.5t11 27.5zM310 205q0 17 -11.5 28t-27.5 11q-17 0 -27.5 -11t-10.5 -28q0 -16 10.5 -27.5t27.5 -11.5q15 0 27 12t12 27zM227 94q16 0 27 11.5t11 27.5t-11 27t-27 11t-27.5 -11t-11.5 -27t11.5 -27.5t27.5 -11.5zM223 60q0 16 -12 27t-27 11q-17 0 -28 -10.5
t-11 -27.5q0 -16 10.5 -27.5t27.5 -11.5q16 0 28 11.5t12 27.5z" />
    <glyph glyph-name="colon" unicode=":" horiz-adv-x="268" 
d="M232 146q0 -45 -26.5 -71t-71.5 -26t-72 26t-27 71q0 43 27 71t72 28q43 0 70.5 -28.5t27.5 -70.5zM172 146q0 17 -11 28t-27 11q-17 0 -28 -11t-11 -28q0 -16 11 -27t28 -11q16 0 27 11t11 27zM134 351q-45 0 -72 26.5t-27 71.5q0 43 27 71t72 28q43 0 70.5 -28.5
t27.5 -70.5q0 -45 -26.5 -71.5t-71.5 -26.5zM134 410q16 0 27 11.5t11 27.5q0 17 -11 27.5t-27 10.5q-17 0 -28 -10.5t-11 -27.5q0 -16 11 -27.5t28 -11.5z" />
    <glyph glyph-name="semicolon" unicode=";" horiz-adv-x="264" 
d="M13 -50l48 276l173 -34l-74 -271zM178 156q0 16 -11 27.5t-28 11.5q-16 0 -27 -11.5t-11 -27.5t11 -27t27 -11q17 0 28 11t11 27zM157 75q0 16 -11.5 27t-27.5 11q-17 0 -27.5 -11t-10.5 -27q0 -17 10.5 -28t27.5 -11q16 0 27.5 11t11.5 28zM135 -12q0 17 -11 28t-27 11
t-27.5 -11t-11.5 -28q0 -16 11.5 -27t27.5 -11t27 11t11 27zM237 413q0 -45 -26.5 -71t-71.5 -26t-72 26t-27 71q0 43 27 71t72 28q43 0 70.5 -28t27.5 -71zM177 413q0 17 -11 28t-27 11q-17 0 -28 -11t-11 -28q0 -16 11 -27t28 -11q16 0 27 11t11 27z" />
    <glyph glyph-name="less" unicode="&#x3c;" horiz-adv-x="547" 
d="M17 252v140l513 199v-143l-320 -125l320 -126v-145zM502 491q0 16 -10.5 27.5t-27.5 11.5q-16 0 -27.5 -11.5t-11.5 -27.5t11.5 -27t27.5 -11q17 0 27.5 11t10.5 27zM385 420q17 0 27.5 11.5t10.5 27.5q0 17 -10.5 27.5t-27.5 10.5q-16 0 -27.5 -10.5t-11.5 -27.5
q0 -16 12 -27.5t27 -11.5zM307 388q16 0 27 11.5t11 27.5q0 17 -11 27.5t-27 10.5q-17 0 -28 -10.5t-11 -27.5q0 -15 11.5 -27t27.5 -12zM228 357q16 0 27 11t11 28q0 16 -11 27t-27 11q-17 0 -28 -11t-11 -27q0 -17 11 -28t28 -11zM464 114q17 0 27.5 11.5t10.5 27.5
t-10.5 27.5t-27.5 11.5q-16 0 -27.5 -11.5t-11.5 -27.5t11.5 -27.5t27.5 -11.5zM385 147q17 0 27.5 11t10.5 28q0 16 -10.5 27t-27.5 11q-15 0 -27 -11.5t-12 -26.5q0 -17 11.5 -28t27.5 -11zM307 178q16 0 27 11.5t11 27.5q0 17 -11 27.5t-27 10.5t-27.5 -11t-11.5 -27
t11 -27.5t28 -11.5zM149 325q16 0 27 11.5t11 27.5t-11 27t-27 11t-27.5 -11.5t-11.5 -26.5q0 -16 11.5 -27.5t27.5 -11.5zM228 210q16 0 27 11.5t11 27.5t-11 27t-27 11q-17 0 -28 -11t-11 -27t11 -27.5t28 -11.5zM149 242q16 0 27 11t11 28q0 16 -11 27t-27 11t-27.5 -11
t-11.5 -27t11.5 -27.5t27.5 -11.5zM113 321q0 17 -11.5 28t-27.5 11q-17 0 -28 -11t-11 -28q0 -15 11.5 -27t27.5 -12t27.5 11.5t11.5 27.5z" />
    <glyph glyph-name="equal" unicode="=" horiz-adv-x="504" 
d="M18 364v132h468v-132h-468zM422 392q16 0 27 11t11 28q0 15 -11.5 27t-26.5 12q-16 0 -27.5 -11.5t-11.5 -27.5q0 -17 11.5 -28t27.5 -11zM337 392q16 0 27 11t11 28q0 15 -11.5 27t-26.5 12q-16 0 -27.5 -11.5t-11.5 -27.5q0 -17 11.5 -28t27.5 -11zM291 431
q0 15 -12 27t-27 12q-17 0 -28 -11.5t-11 -27.5q0 -17 11 -28t28 -11q16 0 27.5 11t11.5 28zM205 431q0 15 -11.5 27t-27.5 12t-27 -11.5t-11 -27.5q0 -17 11 -28t27 -11q17 0 28 11t11 28zM120 431q0 15 -11.5 27t-27.5 12t-27 -11.5t-11 -27.5q0 -17 11 -28t27 -11
q17 0 28 11t11 28zM18 129v131h468v-131h-468zM422 157q16 0 27 11t11 28q0 15 -11.5 26.5t-26.5 11.5q-16 0 -27.5 -11t-11.5 -27q0 -17 11.5 -28t27.5 -11zM337 157q16 0 27 11t11 28q0 15 -11.5 26.5t-26.5 11.5q-16 0 -27.5 -11t-11.5 -27q0 -17 11.5 -28t27.5 -11z
M291 196q0 15 -12 26.5t-27 11.5q-17 0 -28 -11t-11 -27q0 -17 11 -28t28 -11q16 0 27.5 11t11.5 28zM205 196q0 15 -11.5 26.5t-27.5 11.5t-27 -11t-11 -27q0 -17 11 -28t27 -11q17 0 28 11t11 28zM120 196q0 15 -11.5 26.5t-27.5 11.5t-27 -11t-11 -27q0 -17 11 -28
t27 -11q17 0 28 11t11 28z" />
    <glyph glyph-name="greater" unicode="&#x3e;" horiz-adv-x="556" 
d="M20 52v145l320 126l-320 125v143l515 -199v-140zM516 321q0 17 -11.5 28t-27.5 11t-27.5 -11t-11.5 -28q0 -15 11.5 -27t27.5 -12t27.5 11.5t11.5 27.5zM441 364q0 16 -11.5 27t-27.5 11t-27 -11.5t-11 -26.5q0 -16 10.5 -27.5t27.5 -11.5q16 0 27.5 11.5t11.5 27.5z
M362 396q0 16 -11.5 27t-27.5 11q-17 0 -27.5 -11t-10.5 -27q0 -17 10.5 -28t27.5 -11q16 0 27.5 11t11.5 28zM441 281q0 16 -11.5 27t-27.5 11q-17 0 -27.5 -11t-10.5 -27t11 -27.5t27 -11.5t27.5 11t11.5 28zM283 427q0 17 -11.5 27.5t-27.5 10.5t-27 -10.5t-11 -27.5
q0 -15 11.5 -27t26.5 -12q16 0 27.5 11.5t11.5 27.5zM204 459q0 17 -11.5 27.5t-27.5 10.5t-27 -10.5t-11 -27.5q0 -16 11.5 -27.5t26.5 -11.5q16 0 27.5 11.5t11.5 27.5zM125 491q0 16 -10.5 27.5t-27.5 11.5q-16 0 -27.5 -11.5t-11.5 -27.5t11.5 -27t27.5 -11
q17 0 27.5 11t10.5 27zM362 249q0 16 -11.5 27t-27.5 11q-17 0 -27.5 -11t-10.5 -27t10.5 -27.5t27.5 -11.5q16 0 27.5 11.5t11.5 27.5zM283 217q0 17 -11.5 27.5t-27.5 10.5q-15 0 -26.5 -11t-11.5 -27t11 -27.5t27 -11.5t27.5 11.5t11.5 27.5zM204 186q0 16 -11.5 27
t-27.5 11q-15 0 -26.5 -11.5t-11.5 -26.5q0 -17 11 -28t27 -11t27.5 11t11.5 28zM87 114q17 0 27.5 11.5t10.5 27.5t-10.5 27.5t-27.5 11.5q-16 0 -27.5 -11.5t-11.5 -27.5t11.5 -27.5t27.5 -11.5z" />
    <glyph glyph-name="question" unicode="?" horiz-adv-x="431" 
d="M214 181q31 -10 50 -35.5t19 -59.5q0 -43 -27.5 -70.5t-70.5 -27.5q-50 0 -74 29.5t-24 68.5q0 34 18.5 59.5t49.5 35.5h-57v58q0 26 5 51t20 48q10 15 28 28.5t35.5 26.5t30.5 26t13 28q0 28 -27 28q-21 0 -30.5 -15t-15.5 -32l-149 65q18 46 40.5 75t49.5 45t58 22
t67 6q39 0 74 -12.5t61.5 -35.5t42.5 -57t16 -77q0 -27 -6 -48t-17.5 -39t-29 -35.5t-40.5 -36.5q-20 -17 -31.5 -36t-11.5 -48v-35h-67zM185 47q16 0 27 11.5t11 27.5q0 17 -10 27.5t-28 10.5q-17 0 -28 -10.5t-11 -27.5q0 -16 11 -27.5t28 -11.5zM376 460q0 17 -11 28
t-27 11q-17 0 -28 -11t-11 -28q0 -16 11 -27t28 -11q16 0 27 11t11 27zM327 389q0 15 -12 27t-27 12q-17 0 -28 -11.5t-11 -27.5q0 -17 11 -28t28 -11q16 0 27.5 11t11.5 28zM244 556q0 17 -11 28t-28 11q-16 0 -27.5 -11t-11.5 -28q0 -15 12 -27t27 -12q17 0 28 11.5
t11 27.5zM269 323q0 15 -11.5 26.5t-27.5 11.5t-27 -11t-11 -27q0 -17 11 -28t27 -11q17 0 28 11t11 28zM159 526q0 16 -11 27t-28 11q-16 0 -27.5 -11t-11.5 -27t12 -27.5t27 -11.5q17 0 28 11t11 28zM223 245q0 17 -11 28t-27 11q-17 0 -28 -11t-11 -28q0 -15 11.5 -26.5
t27.5 -11.5t27 11t11 27zM329 533q0 16 -11 27.5t-27 11.5q-17 0 -28 -11.5t-11 -27.5t11.5 -27t27.5 -11t27 11t11 27z" />
    <glyph glyph-name="at" unicode="@" horiz-adv-x="808" 
d="M628 -83q-87 -60 -212 -60q-84 0 -155.5 26t-124 73.5t-82 113.5t-29.5 146q0 85 31.5 156t87.5 122t132 79t165 28q75 0 138 -21t108.5 -59.5t71 -93t25.5 -120.5q0 -58 -18 -108t-50 -86.5t-75 -57.5t-92 -21q-53 0 -84 26q-17 -18 -41 -24.5t-49 -6.5
q-35 0 -65.5 12.5t-53.5 35t-36.5 55t-13.5 72.5q0 51 15 93t42 72t64.5 46.5t83.5 16.5q81 0 128.5 -39t47.5 -108q0 -33 -6.5 -58.5t-21.5 -57.5h9q17 0 33.5 13.5t29.5 33.5t21 44.5t8 45.5q0 40 -16.5 73.5t-46.5 57t-70.5 36.5t-88.5 13q-62 0 -114.5 -20t-91 -55.5
t-60.5 -85t-22 -107.5q0 -55 19.5 -100.5t55 -78t84.5 -50.5t108 -18q87 0 158 40zM663 419q17 0 27.5 11t10.5 28q0 16 -10.5 27t-27.5 11q-16 0 -27.5 -11t-11.5 -27q0 -17 11.5 -28t27.5 -11zM626 511q0 16 -11.5 27t-27.5 11t-27 -11t-11 -27t11 -27.5t27 -11.5
q17 0 28 11.5t11 27.5zM711 336q17 0 27.5 11.5t10.5 27.5q0 17 -10.5 27.5t-27.5 10.5q-16 0 -27.5 -10.5t-11.5 -27.5q0 -16 11.5 -27.5t27.5 -11.5zM496 497q16 0 27 11t11 28q0 16 -11 27.5t-27 11.5q-17 0 -28 -11.5t-11 -27.5q0 -17 11 -28t28 -11zM757 275
q0 16 -11.5 27t-27.5 11t-27 -11.5t-11 -26.5q0 -17 10.5 -28t27.5 -11q16 0 27.5 11t11.5 28zM401 499q17 0 27.5 11.5t10.5 27.5q0 17 -10.5 27.5t-27.5 10.5q-16 0 -27.5 -10.5t-11.5 -27.5q0 -16 11.5 -27.5t27.5 -11.5zM729 187q0 15 -11.5 27t-27.5 12t-27 -11.5
t-11 -27.5q0 -17 11 -27.5t27 -10.5q17 0 28 10.5t11 27.5zM505 281q16 0 27 11.5t11 27.5t-11 27.5t-27 11.5q-17 0 -28 -11.5t-11 -27.5t11 -27.5t28 -11.5zM341 516q0 16 -11.5 27t-27.5 11t-27 -11.5t-11 -26.5q0 -17 10.5 -28t27.5 -11q16 0 27.5 11t11.5 28zM454 370
q0 16 -11.5 27.5t-27.5 11.5t-27.5 -11.5t-11.5 -27.5q0 -17 11.5 -27.5t27.5 -10.5q15 0 27 11t12 27zM664 125q0 16 -10.5 27.5t-27.5 11.5q-16 0 -27.5 -11.5t-11.5 -27.5q0 -15 12 -26.5t27 -11.5q17 0 27.5 11t10.5 27zM505 189q15 0 26.5 11.5t11.5 27.5
q0 17 -11 27.5t-27 10.5q-17 0 -28 -10.5t-11 -27.5q0 -16 11 -27.5t28 -11.5zM254 471q0 17 -11.5 28t-27.5 11q-17 0 -28 -11t-11 -28q0 -15 11.5 -26.5t27.5 -11.5t27.5 11t11.5 27zM577 106q0 16 -11 27t-28 11q-15 0 -26.5 -11.5t-11.5 -26.5q0 -16 11 -27.5t27 -11.5
q17 0 28 11.5t11 27.5zM354 324q0 17 -10.5 28t-27.5 11q-16 0 -27.5 -11t-11.5 -28q0 -16 11.5 -27t27.5 -11q17 0 27.5 11t10.5 27zM373 160q16 0 29.5 10t24 26t16.5 35.5t6 39.5q0 47 -32 47q-16 0 -29.5 -9.5t-24 -24.5t-16.5 -34t-6 -38q0 -52 32 -52zM501 145
q0 16 -11 27.5t-27 11.5t-27.5 -11.5t-11.5 -27.5t11.5 -27t27.5 -11t27 11t11 27zM187 402q0 17 -11 28t-27 11q-17 0 -28 -11t-11 -28q0 -16 11 -27t28 -11q16 0 27 11t11 27zM318 237q0 17 -11.5 28t-27.5 11t-27.5 -11t-11.5 -28q0 -16 11.5 -27.5t27.5 -11.5t27.5 11.5
t11.5 27.5zM594 -60q0 16 -11.5 27.5t-27.5 11.5q-17 0 -27.5 -11.5t-10.5 -27.5q0 -15 11 -26.5t27 -11.5t27.5 11t11.5 27zM421 100q0 16 -11 27.5t-28 11.5q-15 0 -26.5 -12t-11.5 -27q0 -17 11 -28t27 -11q17 0 28 11t11 28zM339 140q0 17 -11.5 28t-27.5 11t-27.5 -11
t-11.5 -28q0 -15 12 -26.5t27 -11.5q16 0 27.5 11t11.5 27zM144 315q0 17 -11.5 28t-27.5 11t-27.5 -11t-11.5 -28q0 -16 11.5 -27.5t27.5 -11.5t27.5 11.5t11.5 27.5zM499 -80q0 17 -11 28t-28 11q-15 0 -26.5 -11.5t-11.5 -27.5t11 -27t27 -11q17 0 28 11t11 27zM92 187
q15 0 26.5 11.5t11.5 27.5t-11 27.5t-27 11.5q-17 0 -28 -11.5t-11 -27.5q0 -17 11 -28t28 -11zM405 -82q0 17 -11.5 27.5t-27.5 10.5q-15 0 -26.5 -11t-11.5 -27t11 -27.5t27 -11.5t27.5 11.5t11.5 27.5zM101 95q15 0 26.5 11.5t11.5 27.5t-11 27t-27 11q-17 0 -28 -11
t-11 -27t11 -27.5t28 -11.5zM320 -53q0 16 -11.5 27.5t-27.5 11.5t-27 -12t-11 -27q0 -17 11 -28t27 -11t27.5 11t11.5 28zM176 51q0 16 -11.5 27.5t-27.5 11.5t-27.5 -11.5t-11.5 -27.5t11.5 -27t27.5 -11t27.5 10.5t11.5 27.5zM201 -52q17 0 27.5 11.5t10.5 27.5
q0 17 -10.5 27.5t-27.5 10.5q-16 0 -27.5 -10.5t-11.5 -27.5q0 -16 11.5 -27.5t27.5 -11.5z" />
    <glyph glyph-name="A" unicode="A" horiz-adv-x="664" 
d="M453 0l-20 66h-199l-21 -66h-207l218 629h216l219 -629h-206zM375 514q16 0 27 11t11 28q0 15 -11.5 26.5t-26.5 11.5q-16 0 -27.5 -11t-11.5 -27q0 -17 11.5 -28t27.5 -11zM436 472q0 16 -11.5 27.5t-27.5 11.5t-27 -11.5t-11 -27.5t10.5 -27.5t27.5 -11.5
q16 0 27.5 11.5t11.5 27.5zM290 514q16 0 27 11t11 28q0 15 -11.5 26.5t-26.5 11.5q-17 0 -28 -11t-11 -27q0 -17 11 -28t28 -11zM464 391q0 17 -11.5 28t-27.5 11t-27.5 -11.5t-11.5 -27.5t11 -27t28 -11q16 0 27.5 11t11.5 27zM453 273q16 0 27 11t11 28q0 16 -11 27
t-27 11t-27.5 -11t-11.5 -27q0 -17 11.5 -28t27.5 -11zM519 231q0 15 -11.5 27t-27.5 12t-27 -11.5t-11 -27.5t11 -27.5t27 -11.5t27.5 11.5t11.5 27.5zM547 150q0 16 -12 27.5t-27 11.5q-16 0 -27 -11t-11 -28q0 -16 11 -27t27 -11t27.5 11t11.5 27zM332 406l-53 -183h107z
M574 71q0 16 -11 27t-28 11q-15 0 -27 -11.5t-12 -26.5q0 -17 11.5 -28t27.5 -11q17 0 28 11t11 28zM423 108q16 0 27 11t11 28q0 16 -11 27.5t-27 11.5t-27.5 -11.5t-11.5 -27.5t11.5 -27.5t27.5 -11.5zM369 147q0 16 -11 27.5t-28 11.5q-16 0 -27.5 -11.5t-11.5 -27.5
t12 -27.5t27 -11.5q17 0 28 11t11 28zM279 147q0 16 -11.5 27.5t-27.5 11.5t-27 -11.5t-11 -27.5t11 -27.5t27 -11.5t27.5 11t11.5 28zM192 150q0 16 -12 27.5t-27 11.5q-16 0 -27.5 -11t-11.5 -28q0 -16 11.5 -27t27.5 -11t27.5 11t11.5 27zM164 71q0 15 -12 26.5t-27 11.5
q-17 0 -27.5 -11t-10.5 -27q0 -17 10.5 -28t27.5 -11q16 0 27.5 11t11.5 28zM302 473q0 15 -11.5 27t-27.5 12t-27 -11.5t-11 -27.5t11 -27.5t27 -11.5t27.5 11.5t11.5 27.5zM275 392q0 15 -11.5 27t-27.5 12t-27 -11.5t-11 -27.5t11 -27.5t27 -11.5t27.5 11.5t11.5 27.5z
M219 231q0 15 -11.5 27t-27.5 12t-27 -11.5t-11 -27.5t11 -27.5t27 -11.5t27.5 11.5t11.5 27.5zM247 312q0 15 -11.5 27t-27.5 12t-27 -11.5t-11 -27.5t11 -27.5t27 -11.5t27.5 11.5t11.5 27.5z" />
    <glyph glyph-name="B" unicode="B" horiz-adv-x="515" 
d="M37 0v629h239q45 0 81.5 -12t62.5 -35.5t40.5 -57t14.5 -75.5q0 -79 -58 -122q29 -17 47.5 -52t18.5 -81q0 -94 -55 -144t-163 -50h-228zM245 152q23 0 37.5 13.5t14.5 36.5q0 50 -64 50h-13v-100h25zM220 392q40 0 55.5 10t15.5 36q0 28 -17.5 37.5t-53.5 9.5v-93z
M306 288q16 0 27 11t11 28q0 16 -11 27t-27 11q-17 0 -28 -11t-11 -27q0 -17 11 -28t28 -11zM263 81q0 16 -11 27.5t-28 11.5q-16 0 -27 -11.5t-11 -27.5q0 -17 11 -27.5t27 -10.5q17 0 28 10.5t11 27.5zM426 171q0 17 -11.5 27.5t-27.5 10.5q-17 0 -27.5 -10.5t-10.5 -27.5
q0 -16 10.5 -27.5t27.5 -11.5q16 0 27.5 11.5t11.5 27.5zM415 264q0 17 -11 27.5t-28 10.5q-15 0 -26.5 -11t-11.5 -27t11 -27.5t27 -11.5q17 0 28 11.5t11 27.5zM252 325q0 17 -11.5 28t-27.5 11q-17 0 -27.5 -11t-10.5 -28q0 -15 11 -27t27 -12t27.5 11.5t11.5 27.5z
M164 275q0 16 -11.5 27t-27.5 11t-27 -11t-11 -27q0 -17 11 -28t27 -11t27.5 11t11.5 28zM164 81q0 16 -11.5 27.5t-27.5 11.5t-27 -11.5t-11 -27.5q0 -17 11 -27.5t27 -10.5t27.5 10.5t11.5 27.5zM164 459q0 17 -11.5 28t-27.5 11t-27 -11t-11 -28q0 -16 11 -27t27 -11
t27.5 11t11.5 27zM350 543q0 16 -11 27.5t-27 11.5t-27.5 -11t-11.5 -28q0 -16 11.5 -27t27.5 -11q17 0 27.5 11t10.5 27zM164 553q0 16 -11.5 27t-27.5 11t-27 -11t-11 -27q0 -17 11 -28t27 -11t27.5 11t11.5 28zM409 394q0 17 -11.5 28t-27.5 11t-27 -10.5t-11 -27.5
q0 -16 11 -28t27 -12t27.5 12t11.5 27zM258 554q0 17 -11.5 28t-27.5 11t-27 -11t-11 -28q0 -16 11 -27t27 -11q15 0 27 11t12 27zM164 174q0 16 -11.5 27.5t-27.5 11.5t-27 -11.5t-11 -27.5t11 -27.5t27 -11.5t27.5 11.5t11.5 27.5zM164 367q0 16 -11.5 27.5t-27.5 11.5
t-27 -11.5t-11 -27.5t11 -27.5t27 -11.5t27.5 11.5t11.5 27.5zM380 444q16 0 27 12t11 27q0 16 -11 27.5t-27 11.5t-27.5 -11.5t-11.5 -27.5t11.5 -27.5t27.5 -11.5zM362 99q0 17 -11.5 28t-27.5 11q-17 0 -27.5 -11t-10.5 -28q0 -16 10.5 -27.5t27.5 -11.5q16 0 27.5 11.5
t11.5 27.5z" />
    <glyph glyph-name="C" unicode="C" horiz-adv-x="640" 
d="M632 152q-19 -36 -45 -66t-61 -51.5t-79 -34t-98 -12.5q-71 0 -130.5 24t-103 67.5t-67.5 103.5t-24 131q0 72 24 132t67.5 103.5t103 67.5t130.5 24q103 0 167 -35.5t102 -104.5l-136 -126q-39 89 -128 89q-32 0 -57.5 -11.5t-44.5 -31.5t-29 -47.5t-10 -59.5t10 -59
t28.5 -47t44.5 -31.5t58 -11.5q55 0 88 25.5t48 63.5zM551 486q0 16 -11.5 27t-27.5 11t-27 -11t-11 -27t11 -27.5t27 -11.5t27.5 11.5t11.5 27.5zM475 537q0 16 -11 27t-28 11q-16 0 -27.5 -11t-11.5 -27t11.5 -27.5t27.5 -11.5t27.5 12t11.5 27zM385 554q0 16 -11 27
t-28 11q-15 0 -27 -11.5t-12 -26.5q0 -17 11.5 -28t27.5 -11q17 0 28 11t11 28zM295 532q0 16 -11.5 27t-27.5 11q-17 0 -27.5 -11t-10.5 -27t10.5 -27.5t27.5 -11.5q15 0 27 12t12 27zM554 147q0 16 -11.5 27.5t-27.5 11.5t-27.5 -11.5t-11.5 -27.5t11.5 -27.5t27.5 -11.5
q15 0 27 12t12 27zM222 477q0 16 -11.5 27.5t-27.5 11.5t-27.5 -11.5t-11.5 -27.5t11.5 -27.5t27.5 -11.5q15 0 27 11.5t12 27.5zM438 55q16 0 27 11.5t11 27.5t-10.5 27.5t-27.5 11.5q-16 0 -27.5 -11.5t-11.5 -27.5t11.5 -27.5t27.5 -11.5zM173 403q0 17 -11.5 28
t-27.5 11t-27 -11t-11 -28q0 -15 11.5 -26.5t26.5 -11.5q16 0 27.5 11t11.5 27zM158 316q0 17 -11.5 27.5t-27.5 10.5q-17 0 -27.5 -10.5t-10.5 -27.5q0 -16 10.5 -27.5t27.5 -11.5q16 0 27.5 11.5t11.5 27.5zM385 76q0 16 -11 27t-28 11q-16 0 -27.5 -11t-11.5 -27
t11.5 -27.5t27.5 -11.5q17 0 28 11.5t11 27.5zM173 225q0 17 -11.5 28t-27.5 11t-27 -11t-11 -28q0 -15 11.5 -27t26.5 -12q16 0 27.5 11.5t11.5 27.5zM297 97q0 16 -11.5 27.5t-27.5 11.5q-17 0 -28 -11.5t-11 -27.5t11 -27t28 -11q15 0 27 11t12 27zM185 110q15 0 26.5 12
t11.5 27q0 16 -11 27t-27 11t-27.5 -11t-11.5 -27t11.5 -27.5t27.5 -11.5z" />
    <glyph glyph-name="D" unicode="D" horiz-adv-x="575" 
d="M37 0v631h174q69 0 131 -19.5t108 -58t73 -97t27 -136.5q0 -66 -20.5 -124.5t-62.5 -102t-106 -68.5t-150 -25h-174zM427 475q0 16 -11.5 27t-27.5 11t-27.5 -11t-11.5 -27t11.5 -27.5t27.5 -11.5q15 0 27 11.5t12 27.5zM318 491q16 0 27 12t11 27q0 16 -11 27.5
t-27 11.5t-27.5 -11.5t-11.5 -27.5t11.5 -27.5t27.5 -11.5zM437 362q16 0 27 11.5t11 27.5q0 17 -11 27.5t-27 10.5q-17 0 -28 -10.5t-11 -27.5q0 -16 11 -27.5t28 -11.5zM259 554q0 16 -11 27t-28 11q-15 0 -27 -11.5t-12 -26.5q0 -17 11.5 -28t27.5 -11q17 0 28 11t11 28z
M491 314q0 16 -11 27.5t-27 11.5t-27.5 -11t-11.5 -28q0 -16 11.5 -27t27.5 -11t27 11t11 27zM171 549q0 16 -10.5 27.5t-27.5 11.5q-16 0 -27.5 -11.5t-11.5 -27.5t11.5 -27t27.5 -11q17 0 27.5 11t10.5 27zM437 188q16 0 27 11.5t11 27.5q0 17 -11 27.5t-27 10.5
q-17 0 -28 -10.5t-11 -27.5q0 -16 11 -27.5t28 -11.5zM219 165q66 0 101 39t35 111q0 151 -136 151v-301zM133 418q17 0 27.5 11t10.5 28q0 16 -10.5 27.5t-27.5 11.5q-16 0 -27.5 -11.5t-11.5 -27.5q0 -17 11.5 -28t27.5 -11zM427 154q0 16 -11.5 27t-27.5 11t-27.5 -11
t-11.5 -27t11.5 -27.5t27.5 -11.5q15 0 27 12t12 27zM133 325q17 0 27.5 11.5t10.5 27.5q0 17 -10.5 27.5t-27.5 10.5q-16 0 -27.5 -10.5t-11.5 -27.5q0 -16 11.5 -27.5t27.5 -11.5zM356 98q0 16 -11 27.5t-27 11.5t-27.5 -11.5t-11.5 -27.5t11.5 -27t27.5 -11t27 11t11 27z
M171 271q0 16 -10.5 27.5t-27.5 11.5q-16 0 -27.5 -11.5t-11.5 -27.5t11.5 -27t27.5 -11q17 0 27.5 11t10.5 27zM133 140q17 0 27.5 11t10.5 28q0 16 -10.5 27.5t-27.5 11.5q-16 0 -27.5 -11.5t-11.5 -27.5q0 -17 11.5 -28t27.5 -11zM259 76q0 16 -11 27t-28 11
q-16 0 -27.5 -11t-11.5 -27t11.5 -27.5t27.5 -11.5q17 0 28 11.5t11 27.5zM133 47q17 0 27.5 11.5t10.5 27.5t-10.5 27t-27.5 11q-16 0 -27.5 -11t-11.5 -27t11.5 -27.5t27.5 -11.5z" />
    <glyph glyph-name="E" unicode="E" horiz-adv-x="444" 
d="M37 0v629h377v-159h-182v-73h182v-159h-182v-73h182v-165h-377zM357 549q0 16 -11.5 27.5t-27.5 11.5t-27 -11.5t-11 -27.5t11 -27t27 -11t27.5 11t11.5 27zM265 549q0 16 -11.5 27.5t-27.5 11.5q-17 0 -28 -11.5t-11 -27.5t11 -27t28 -11q16 0 27.5 11t11.5 27zM171 549
q0 16 -10.5 27.5t-27.5 11.5q-16 0 -27.5 -11.5t-11.5 -27.5t11.5 -27t27.5 -11q17 0 27.5 11t10.5 27zM357 318q0 16 -11.5 27t-27.5 11t-27 -11t-11 -27t11 -27.5t27 -11.5t27.5 11.5t11.5 27.5zM133 418q17 0 27.5 11t10.5 28q0 16 -10.5 27.5t-27.5 11.5
q-16 0 -27.5 -11.5t-11.5 -27.5q0 -17 11.5 -28t27.5 -11zM265 318q0 16 -11.5 27t-27.5 11q-17 0 -28 -11t-11 -27t11 -27.5t28 -11.5q16 0 27.5 11.5t11.5 27.5zM133 325q17 0 27.5 11.5t10.5 27.5q0 17 -10.5 27.5t-27.5 10.5q-16 0 -27.5 -10.5t-11.5 -27.5
q0 -16 11.5 -27.5t27.5 -11.5zM171 271q0 16 -10.5 27.5t-27.5 11.5q-16 0 -27.5 -11.5t-11.5 -27.5t11.5 -27t27.5 -11q17 0 27.5 11t10.5 27zM357 86q0 16 -11.5 27t-27.5 11t-27 -11t-11 -27t11 -27.5t27 -11.5t27.5 11.5t11.5 27.5zM133 140q17 0 27.5 11t10.5 28
q0 16 -10.5 27.5t-27.5 11.5q-16 0 -27.5 -11.5t-11.5 -27.5q0 -17 11.5 -28t27.5 -11zM265 86q0 16 -11.5 27t-27.5 11q-17 0 -28 -11t-11 -27t11 -27.5t28 -11.5q16 0 27.5 11.5t11.5 27.5zM133 47q17 0 27.5 11.5t10.5 27.5t-10.5 27t-27.5 11q-16 0 -27.5 -11t-11.5 -27
t11.5 -27.5t27.5 -11.5z" />
    <glyph glyph-name="F" unicode="F" horiz-adv-x="433" 
d="M37 0v629h377v-159h-182v-73h182v-159h-182v-238h-195zM357 549q0 16 -11.5 27.5t-27.5 11.5t-27 -11.5t-11 -27.5t11 -27t27 -11t27.5 11t11.5 27zM265 549q0 16 -11.5 27.5t-27.5 11.5q-17 0 -28 -11.5t-11 -27.5t11 -27t28 -11q16 0 27.5 11t11.5 27zM171 549
q0 16 -10.5 27.5t-27.5 11.5q-16 0 -27.5 -11.5t-11.5 -27.5t11.5 -27t27.5 -11q17 0 27.5 11t10.5 27zM357 318q0 16 -11.5 27t-27.5 11t-27 -11t-11 -27t11 -27.5t27 -11.5t27.5 11.5t11.5 27.5zM133 418q17 0 27.5 11t10.5 28q0 16 -10.5 27.5t-27.5 11.5
q-16 0 -27.5 -11.5t-11.5 -27.5q0 -17 11.5 -28t27.5 -11zM265 318q0 16 -11.5 27t-27.5 11q-17 0 -28 -11t-11 -27t11 -27.5t28 -11.5q16 0 27.5 11.5t11.5 27.5zM133 325q17 0 27.5 11.5t10.5 27.5q0 17 -10.5 27.5t-27.5 10.5q-16 0 -27.5 -10.5t-11.5 -27.5
q0 -16 11.5 -27.5t27.5 -11.5zM171 271q0 16 -10.5 27.5t-27.5 11.5q-16 0 -27.5 -11.5t-11.5 -27.5t11.5 -27t27.5 -11q17 0 27.5 11t10.5 27zM133 140q17 0 27.5 11t10.5 28q0 16 -10.5 27.5t-27.5 11.5q-16 0 -27.5 -11.5t-11.5 -27.5q0 -17 11.5 -28t27.5 -11zM133 47
q17 0 27.5 11.5t10.5 27.5t-10.5 27t-27.5 11q-16 0 -27.5 -11t-11.5 -27t11.5 -27.5t27.5 -11.5z" />
    <glyph glyph-name="G" unicode="G" horiz-adv-x="706" 
d="M339 218v158h340q2 -17 3 -33.5t1 -33.5q0 -57 -16 -109t-55 -100q-45 -54 -111 -83t-144 -29q-72 0 -132.5 24t-104.5 67t-68.5 103t-24.5 132q0 70 25 130t69 104t105.5 68.5t133.5 24.5q57 0 100 -9.5t75 -28t55.5 -45.5t42.5 -61l-137 -106q-23 40 -53 58t-85 18
q-29 0 -53.5 -10.5t-43 -30t-29 -48t-10.5 -64.5q0 -31 9.5 -58.5t27.5 -48.5t44 -33t58 -12q68 0 110 56h-132zM563 488q0 16 -11.5 27.5t-27.5 11.5t-27 -11.5t-11 -27.5t11 -27.5t27 -11.5q15 0 27 11.5t12 27.5zM484 538q0 16 -11 27t-28 11q-16 0 -27 -11t-11 -27
t11 -27.5t27 -11.5t27.5 11.5t11.5 27.5zM354 513q17 0 27.5 11t10.5 28q0 16 -10.5 27.5t-27.5 11.5q-16 0 -27.5 -12t-11.5 -27q0 -17 11.5 -28t27.5 -11zM624 297q0 16 -11.5 27.5t-27.5 11.5t-27 -11t-11 -28q0 -16 11 -27t27 -11q17 0 28 11t11 27zM539 297
q0 16 -11.5 27.5t-26.5 11.5q-16 0 -27.5 -11t-11.5 -28q0 -16 11.5 -27t27.5 -11t27 11t11 27zM306 530q0 16 -11.5 27.5t-27.5 11.5q-17 0 -28 -11.5t-11 -27.5t11 -27.5t28 -11.5q15 0 27 12t12 27zM605 213q0 16 -11 27.5t-28 11.5q-16 0 -27 -11.5t-11 -27.5t11 -27
t27 -11q17 0 28 11t11 27zM454 297q0 16 -11.5 27.5t-26.5 11.5q-16 0 -27.5 -11t-11.5 -28q0 -16 11.5 -27t27.5 -11t27 11t11 27zM233 475q0 16 -11.5 27t-27.5 11t-27.5 -11t-11.5 -27t11.5 -27.5t27.5 -11.5q15 0 27 11.5t12 27.5zM553 142q0 17 -11.5 28t-27.5 11
q-17 0 -28 -11t-11 -28q0 -16 11 -27.5t28 -11.5q15 0 27 12t12 27zM183 401q0 17 -11.5 27.5t-27.5 10.5t-27 -10.5t-11 -27.5q0 -15 11.5 -27t26.5 -12q16 0 27.5 11.5t11.5 27.5zM444 53q15 0 26.5 11.5t11.5 27.5q0 17 -11 27.5t-27 10.5t-27.5 -10.5t-11.5 -27.5
q0 -16 11.5 -27.5t27.5 -11.5zM168 314q0 17 -11.5 28t-27.5 11q-17 0 -27.5 -11t-10.5 -28q0 -16 10.5 -27t27.5 -11q16 0 27.5 11t11.5 27zM353 37q17 0 27.5 11.5t10.5 27.5t-10.5 27t-27.5 11q-16 0 -27.5 -11t-11.5 -27t11.5 -27.5t27.5 -11.5zM183 227
q0 17 -11.5 27.5t-27.5 10.5t-27 -10.5t-11 -27.5q0 -15 11.5 -27t26.5 -12q16 0 27.5 11.5t11.5 27.5zM303 98q0 16 -11 27.5t-27 11.5q-17 0 -28 -11.5t-11 -27.5t11 -27t28 -11q15 0 26.5 11t11.5 27zM233 154q0 16 -11.5 27t-27.5 11t-27.5 -11t-11.5 -27t11.5 -27.5
t27.5 -11.5q15 0 27 12t12 27z" />
    <glyph glyph-name="H" unicode="H" horiz-adv-x="606" 
d="M374 0v237h-142v-237h-195v629h195v-228h142v228h195v-629h-195zM512 549q0 16 -11 27.5t-27 11.5t-27.5 -11.5t-11.5 -27.5t11.5 -27t27.5 -11t27 11t11 27zM474 418q16 0 27 11t11 28q0 16 -11 27.5t-27 11.5t-27.5 -11.5t-11.5 -27.5q0 -17 11.5 -28t27.5 -11z
M474 325q16 0 27 11.5t11 27.5q0 17 -11 27.5t-27 10.5t-27.5 -10.5t-11.5 -27.5q0 -16 11.5 -27.5t27.5 -11.5zM512 271q0 16 -11 27.5t-27 11.5t-27.5 -11.5t-11.5 -27.5t11.5 -27t27.5 -11t27 11t11 27zM395 282q17 0 27.5 11t10.5 28q0 16 -10.5 27.5t-27.5 11.5
q-16 0 -27.5 -11.5t-11.5 -27.5q0 -17 11.5 -28t27.5 -11zM172 549q0 16 -11 27.5t-27 11.5t-27.5 -11.5t-11.5 -27.5t11.5 -27t27.5 -11t27 11t11 27zM474 140q16 0 27 11t11 28q0 16 -11 27.5t-27 11.5t-27.5 -11.5t-11.5 -27.5q0 -17 11.5 -28t27.5 -11zM344 321
q0 16 -11.5 27.5t-27.5 11.5t-27.5 -11.5t-11.5 -27.5q0 -17 11.5 -28t27.5 -11t27.5 11t11.5 28zM134 418q16 0 27 11t11 28q0 16 -11 27.5t-27 11.5t-27.5 -11.5t-11.5 -27.5q0 -17 11.5 -28t27.5 -11zM474 47q16 0 27 11.5t11 27.5t-11 27t-27 11t-27.5 -11t-11.5 -27
t11.5 -27.5t27.5 -11.5zM217 282q16 0 27 11t11 28q0 16 -11 27.5t-27 11.5q-17 0 -28 -11.5t-11 -27.5q0 -17 11 -28t28 -11zM134 325q16 0 27 11.5t11 27.5q0 17 -11 27.5t-27 10.5t-27.5 -10.5t-11.5 -27.5q0 -16 11.5 -27.5t27.5 -11.5zM172 271q0 16 -11 27.5t-27 11.5
t-27.5 -11.5t-11.5 -27.5t11.5 -27t27.5 -11t27 11t11 27zM134 140q16 0 27 11t11 28q0 16 -11 27.5t-27 11.5t-27.5 -11.5t-11.5 -27.5q0 -17 11.5 -28t27.5 -11zM134 47q16 0 27 11.5t11 27.5t-11 27t-27 11t-27.5 -11t-11.5 -27t11.5 -27.5t27.5 -11.5z" />
    <glyph glyph-name="I" unicode="I" horiz-adv-x="271" 
d="M37 0v629h197v-629h-197zM171 549q0 16 -10.5 27.5t-27.5 11.5q-16 0 -27.5 -11.5t-11.5 -27.5t11.5 -27t27.5 -11q17 0 27.5 11t10.5 27zM133 418q17 0 27.5 11t10.5 28q0 16 -10.5 27.5t-27.5 11.5q-16 0 -27.5 -11.5t-11.5 -27.5q0 -17 11.5 -28t27.5 -11zM133 325
q17 0 27.5 11.5t10.5 27.5q0 17 -10.5 27.5t-27.5 10.5q-16 0 -27.5 -10.5t-11.5 -27.5q0 -16 11.5 -27.5t27.5 -11.5zM171 271q0 16 -10.5 27.5t-27.5 11.5q-16 0 -27.5 -11.5t-11.5 -27.5t11.5 -27t27.5 -11q17 0 27.5 11t10.5 27zM133 140q17 0 27.5 11t10.5 28
q0 16 -10.5 27.5t-27.5 11.5q-16 0 -27.5 -11.5t-11.5 -27.5q0 -17 11.5 -28t27.5 -11zM133 47q17 0 27.5 11.5t10.5 27.5t-10.5 27t-27.5 11q-16 0 -27.5 -11t-11.5 -27t11.5 -27.5t27.5 -11.5z" />
    <glyph glyph-name="J" unicode="J" horiz-adv-x="385" 
d="M15 165q30 -7 46 -8t26 -1q24 0 38 6.5t21.5 18.5t9.5 29.5t2 38.5v380h195v-389q0 -123 -58 -187.5t-167 -64.5q-38 0 -66.5 4t-46.5 9v164zM300 549q0 16 -11.5 27.5t-27.5 11.5t-27 -11.5t-11 -27.5t11 -27t27 -11t27.5 11t11.5 27zM300 457q0 16 -11.5 27.5
t-27.5 11.5t-27 -11.5t-11 -27.5q0 -17 11 -28t27 -11t27.5 11t11.5 28zM300 364q0 17 -11.5 27.5t-27.5 10.5t-27 -10.5t-11 -27.5q0 -16 11 -27.5t27 -11.5t27.5 11.5t11.5 27.5zM300 271q0 16 -11.5 27.5t-27.5 11.5t-27 -11.5t-11 -27.5t11 -27t27 -11t27.5 11t11.5 27z
M285 179q0 16 -11.5 27.5t-27.5 11.5q-17 0 -28 -11.5t-11 -27.5q0 -17 11 -28t28 -11q16 0 27.5 11t11.5 28zM238 102q0 16 -11 27t-28 11q-16 0 -27.5 -11t-11.5 -27q0 -17 11.5 -28t27.5 -11q17 0 28 11t11 28zM107 39q16 0 27 11.5t11 27.5t-11 27.5t-27 11.5
t-27.5 -11.5t-11.5 -27.5t11.5 -27.5t27.5 -11.5z" />
    <glyph glyph-name="K" unicode="K" horiz-adv-x="520" 
d="M297 0l-65 148v-148h-195v629h195v-126l57 126h219l-170 -296l176 -333h-217zM409 558q0 16 -11.5 27t-27.5 11q-17 0 -27.5 -10.5t-10.5 -27.5q0 -16 10.5 -27.5t27.5 -11.5q16 0 27.5 11.5t11.5 27.5zM357 478q0 16 -11.5 27.5t-27.5 11.5t-27 -11.5t-11 -27.5
q0 -17 11 -28t27 -11t27.5 11.5t11.5 27.5zM171 549q0 16 -10.5 27.5t-27.5 11.5q-16 0 -27.5 -11.5t-11.5 -27.5t11.5 -27t27.5 -11q17 0 27.5 11t10.5 27zM270 363q16 0 27 11.5t11 27.5q0 17 -11 27.5t-27 10.5t-27.5 -10.5t-11.5 -27.5q0 -16 11.5 -27.5t27.5 -11.5z
M133 418q17 0 27.5 11t10.5 28q0 16 -10.5 27.5t-27.5 11.5q-16 0 -27.5 -11.5t-11.5 -27.5q0 -17 11.5 -28t27.5 -11zM259 321q0 16 -11 27.5t-28 11.5q-16 0 -27.5 -11.5t-11.5 -27.5q0 -17 11.5 -28t27.5 -11q17 0 28 11t11 28zM276 200q16 0 27 11.5t11 27.5
q0 17 -11 27.5t-27 10.5q-17 0 -28 -10.5t-11 -27.5q0 -16 11 -27.5t28 -11.5zM133 325q17 0 27.5 11.5t10.5 27.5q0 17 -10.5 27.5t-27.5 10.5q-16 0 -27.5 -10.5t-11.5 -27.5q0 -16 11.5 -27.5t27.5 -11.5zM362 156q0 16 -11.5 27.5t-27.5 11.5q-17 0 -27.5 -11.5
t-10.5 -27.5t10.5 -27t27.5 -11q16 0 27.5 11t11.5 27zM407 76q0 16 -11.5 27t-27.5 11t-27.5 -11t-11.5 -27t11.5 -27.5t27.5 -11.5t27.5 11.5t11.5 27.5zM171 271q0 16 -10.5 27.5t-27.5 11.5q-16 0 -27.5 -11.5t-11.5 -27.5t11.5 -27t27.5 -11q17 0 27.5 11t10.5 27z
M133 140q17 0 27.5 11t10.5 28q0 16 -10.5 27.5t-27.5 11.5q-16 0 -27.5 -11.5t-11.5 -27.5q0 -17 11.5 -28t27.5 -11zM133 47q17 0 27.5 11.5t10.5 27.5t-10.5 27t-27.5 11q-16 0 -27.5 -11t-11.5 -27t11.5 -27.5t27.5 -11.5z" />
    <glyph glyph-name="L" unicode="L" horiz-adv-x="396" 
d="M37 0v629h195v-464h149v-165h-344zM171 549q0 16 -10.5 27.5t-27.5 11.5q-16 0 -27.5 -11.5t-11.5 -27.5t11.5 -27t27.5 -11q17 0 27.5 11t10.5 27zM133 418q17 0 27.5 11t10.5 28q0 16 -10.5 27.5t-27.5 11.5q-16 0 -27.5 -11.5t-11.5 -27.5q0 -17 11.5 -28t27.5 -11z
M133 325q17 0 27.5 11.5t10.5 27.5q0 17 -10.5 27.5t-27.5 10.5q-16 0 -27.5 -10.5t-11.5 -27.5q0 -16 11.5 -27.5t27.5 -11.5zM171 271q0 16 -10.5 27.5t-27.5 11.5q-16 0 -27.5 -11.5t-11.5 -27.5t11.5 -27t27.5 -11q17 0 27.5 11t10.5 27zM357 86q0 16 -11.5 27t-27.5 11
t-27 -11t-11 -27t11 -27.5t27 -11.5t27.5 11.5t11.5 27.5zM133 140q17 0 27.5 11t10.5 28q0 16 -10.5 27.5t-27.5 11.5q-16 0 -27.5 -11.5t-11.5 -27.5q0 -17 11.5 -28t27.5 -11zM265 86q0 16 -11.5 27t-27.5 11q-17 0 -28 -11t-11 -27t11 -27.5t28 -11.5q16 0 27.5 11.5
t11.5 27.5zM133 47q17 0 27.5 11.5t10.5 27.5t-10.5 27t-27.5 11q-16 0 -27.5 -11t-11.5 -27t11.5 -27.5t27.5 -11.5z" />
    <glyph glyph-name="M" unicode="M" horiz-adv-x="772" 
d="M554 0v321l-169 -364l-167 362v-319h-183v629h221l130 -287l137 287h214v-629h-183zM680 549q0 16 -11.5 27.5t-27.5 11.5q-17 0 -28 -11.5t-11 -27.5t11 -27t28 -11q16 0 27.5 11t11.5 27zM680 457q0 16 -11.5 27.5t-27.5 11.5q-17 0 -28 -11.5t-11 -27.5q0 -17 11 -28
t28 -11q16 0 27.5 11t11.5 28zM554 465q16 0 27 11.5t11 27.5t-11 27.5t-27 11.5q-17 0 -28 -11.5t-11 -27.5t11 -27.5t28 -11.5zM680 364q0 17 -11.5 27.5t-27.5 10.5q-17 0 -28 -10.5t-11 -27.5q0 -16 11 -27.5t28 -11.5q16 0 27.5 11.5t11.5 27.5zM553 420
q0 16 -11.5 27.5t-27.5 11.5q-17 0 -28 -11.5t-11 -27.5q0 -17 11 -28t28 -11q16 0 27.5 11t11.5 28zM680 271q0 16 -11.5 27.5t-27.5 11.5q-17 0 -28 -11.5t-11 -27.5t11 -27t28 -11q16 0 27.5 11t11.5 27zM680 179q0 16 -11.5 27.5t-27.5 11.5q-17 0 -28 -11.5t-11 -27.5
q0 -17 11 -28t28 -11q16 0 27.5 11t11.5 28zM513 335q0 17 -11 28t-27 11t-27.5 -11t-11.5 -28q0 -15 11.5 -26.5t27.5 -11.5t27 11t11 27zM680 86q0 16 -11.5 27t-27.5 11q-17 0 -28 -11t-11 -27t11 -27.5t28 -11.5q16 0 27.5 11.5t11.5 27.5zM257 504q0 16 -11 27.5
t-28 11.5q-16 0 -27 -11.5t-11 -27.5t11 -27.5t27 -11.5q17 0 28 11.5t11 27.5zM475 252q0 15 -12 27t-27 12q-16 0 -27.5 -11.5t-11.5 -27.5t11.5 -27.5t27.5 -11.5t27.5 11.5t11.5 27.5zM170 549q0 16 -11 27.5t-28 11.5q-16 0 -27.5 -11.5t-11.5 -27.5t11.5 -27t27.5 -11
q17 0 28 11t11 27zM297 420q0 16 -11 27.5t-28 11.5q-16 0 -27.5 -11.5t-11.5 -27.5q0 -17 11.5 -28t27.5 -11q17 0 28 11t11 28zM336 335q0 17 -11 28t-28 11q-16 0 -27 -11t-11 -28q0 -16 11 -27t27 -11t27.5 11.5t11.5 26.5zM375 252q0 16 -11 27.5t-28 11.5
q-15 0 -27 -12t-12 -27q0 -16 11.5 -27.5t27.5 -11.5q17 0 28 11.5t11 27.5zM170 457q0 16 -11 27.5t-28 11.5q-16 0 -27.5 -11.5t-11.5 -27.5q0 -17 11.5 -28t27.5 -11q17 0 28 11t11 28zM422 168q0 16 -11 27.5t-28 11.5q-16 0 -27.5 -11.5t-11.5 -27.5q0 -17 11.5 -28
t27.5 -11q17 0 28 11t11 28zM170 364q0 17 -11 27.5t-28 10.5q-16 0 -27.5 -10.5t-11.5 -27.5q0 -16 11.5 -27.5t27.5 -11.5q17 0 28 11.5t11 27.5zM170 271q0 16 -11 27.5t-28 11.5q-16 0 -27.5 -11.5t-11.5 -27.5t11.5 -27t27.5 -11q17 0 28 11t11 27zM170 179
q0 16 -11 27.5t-28 11.5q-16 0 -27.5 -11.5t-11.5 -27.5q0 -17 11.5 -28t27.5 -11q17 0 28 11t11 28zM170 86q0 16 -11 27t-28 11q-16 0 -27.5 -11t-11.5 -27t11.5 -27.5t27.5 -11.5q17 0 28 11.5t11 27.5z" />
    <glyph glyph-name="N" unicode="N" horiz-adv-x="649" 
d="M433 0l-203 302v-302h-193v629h194l190 -315v315h191v-629h-179zM558 549q0 16 -11 27.5t-28 11.5q-16 0 -27.5 -11.5t-11.5 -27.5t11.5 -27t27.5 -11q17 0 28 11t11 27zM558 457q0 16 -11 27.5t-28 11.5q-16 0 -27.5 -11.5t-11.5 -27.5q0 -17 11.5 -28t27.5 -11
q17 0 28 11t11 28zM558 364q0 17 -11 27.5t-28 10.5q-16 0 -27.5 -10.5t-11.5 -27.5q0 -16 11.5 -27.5t27.5 -11.5q17 0 28 11.5t11 27.5zM558 271q0 16 -11 27.5t-28 11.5q-16 0 -27.5 -11.5t-11.5 -27.5t11.5 -27t27.5 -11q17 0 28 11t11 27zM213 454q16 0 27 11.5
t11 27.5t-11 27.5t-27 11.5t-27.5 -11.5t-11.5 -27.5q0 -15 11.5 -27t27.5 -12zM558 179q0 16 -11 27.5t-28 11.5q-16 0 -27.5 -11.5t-11.5 -27.5q0 -17 11.5 -28t27.5 -11q17 0 28 11t11 28zM171 549q0 16 -10.5 27.5t-27.5 11.5q-16 0 -27.5 -11.5t-11.5 -27.5t11.5 -27
t27.5 -11q17 0 27.5 11t10.5 27zM301 407q0 16 -11.5 27t-27.5 11t-27.5 -11t-11.5 -27t11.5 -27.5t27.5 -11.5t27.5 11.5t11.5 27.5zM358 321q0 15 -12 27t-27 12q-16 0 -27 -11.5t-11 -27.5q0 -17 11 -28t27 -11t27.5 11t11.5 28zM422 227q0 16 -11 27t-28 11
q-15 0 -27 -11.5t-12 -26.5q0 -17 11.5 -28t27.5 -11q17 0 28 11t11 28zM558 86q0 16 -11 27t-28 11q-16 0 -27.5 -11t-11.5 -27t11.5 -27.5t27.5 -11.5q17 0 28 11.5t11 27.5zM133 418q17 0 27.5 11t10.5 28q0 16 -10.5 27.5t-27.5 11.5q-16 0 -27.5 -11.5t-11.5 -27.5
q0 -17 11.5 -28t27.5 -11zM479 148q0 16 -11 27t-28 11q-16 0 -27 -11t-11 -27q0 -17 11 -28t27 -11t27.5 11.5t11.5 27.5zM133 325q17 0 27.5 11.5t10.5 27.5q0 17 -10.5 27.5t-27.5 10.5q-16 0 -27.5 -10.5t-11.5 -27.5q0 -16 11.5 -27.5t27.5 -11.5zM171 271
q0 16 -10.5 27.5t-27.5 11.5q-16 0 -27.5 -11.5t-11.5 -27.5t11.5 -27t27.5 -11q17 0 27.5 11t10.5 27zM133 140q17 0 27.5 11t10.5 28q0 16 -10.5 27.5t-27.5 11.5q-16 0 -27.5 -11.5t-11.5 -27.5q0 -17 11.5 -28t27.5 -11zM133 47q17 0 27.5 11.5t10.5 27.5t-10.5 27
t-27.5 11q-16 0 -27.5 -11t-11.5 -27t11.5 -27.5t27.5 -11.5z" />
    <glyph glyph-name="O" unicode="O" horiz-adv-x="716" 
d="M690 314q0 -71 -25.5 -130.5t-70 -103t-105.5 -68t-131 -24.5q-71 0 -131.5 24.5t-105 68t-70 103t-25.5 130.5q0 72 25 132t69.5 103.5t105.5 67.5t132 24q70 0 130.5 -24.5t105.5 -68t70.5 -103.5t25.5 -131zM358 515q17 0 27.5 11t10.5 28q0 16 -10.5 27t-27.5 11
q-15 0 -27 -11.5t-12 -26.5q0 -17 11.5 -28t27.5 -11zM302 530q0 16 -11.5 27.5t-27.5 11.5q-17 0 -28 -11.5t-11 -27.5t11 -27.5t28 -11.5q15 0 27 12t12 27zM358 165q61 0 99 38.5t38 110.5t-38 111t-99 39q-63 0 -100 -38.5t-37 -111.5q0 -72 37 -110.5t100 -38.5z
M225 480q0 16 -11.5 27.5t-27.5 11.5t-27 -11.5t-11 -27.5t11 -27t27 -11t27.5 11t11.5 27zM139 365q16 0 27 11.5t11 27.5q0 17 -11 28t-27 11t-27.5 -11t-11.5 -28q0 -15 11.5 -27t27.5 -12zM163 314q0 17 -11.5 28t-27.5 11q-17 0 -27.5 -11t-10.5 -28q0 -16 10.5 -27
t27.5 -11q16 0 27.5 11t11.5 27zM358 37q17 0 27.5 11.5t10.5 27.5t-10.5 27t-27.5 11q-16 0 -27.5 -11t-11.5 -27t11.5 -27.5t27.5 -11.5zM176 225q0 17 -11.5 28t-27.5 11t-27.5 -11t-11.5 -28q0 -15 12 -27t27 -12q16 0 27.5 11.5t11.5 27.5zM302 98q0 16 -11.5 27.5
t-27.5 11.5q-17 0 -28 -11.5t-11 -27.5t11 -27t28 -11q15 0 27 11t12 27zM225 148q0 16 -11.5 27t-27.5 11t-27 -11t-11 -27t11 -27.5t27 -11.5t27.5 12t11.5 27zM453 491q17 0 27.5 11.5t10.5 27.5t-10.5 27.5t-27.5 11.5q-16 0 -27.5 -11.5t-11.5 -27.5q0 -15 12 -27
t27 -12zM568 480q0 16 -11.5 27.5t-27.5 11.5t-27 -11.5t-11 -27.5t11.5 -27t26.5 -11q16 0 27.5 11t11.5 27zM616 404q0 17 -11.5 28t-27.5 11t-27.5 -11t-11.5 -28q0 -16 11.5 -27.5t27.5 -11.5q15 0 27 12t12 27zM630 314q0 17 -11 28t-28 11q-16 0 -27 -11t-11 -28
q0 -16 11 -27t27 -11q17 0 28 11t11 27zM579 186q15 0 26.5 12t11.5 27q0 17 -11 28t-27 11t-27.5 -11t-11.5 -28q0 -16 11.5 -27.5t27.5 -11.5zM491 98q0 16 -10.5 27.5t-27.5 11.5q-16 0 -27.5 -11.5t-11.5 -27.5t12 -27t27 -11q17 0 27.5 11t10.5 27zM568 148
q0 16 -11.5 27t-27.5 11t-27 -11t-11 -27q0 -15 11.5 -27t26.5 -12q16 0 27.5 11.5t11.5 27.5z" />
    <glyph glyph-name="P" unicode="P" horiz-adv-x="507" 
d="M37 0v629h229q51 0 93 -15t72 -43.5t46.5 -68.5t16.5 -91q0 -106 -59.5 -163.5t-174.5 -57.5h-28v-190h-195zM412 495q0 16 -11 27t-28 11q-16 0 -27.5 -11t-11.5 -27q0 -17 11.5 -28t27.5 -11t27.5 11.5t11.5 27.5zM343 546q0 15 -12 27t-27 12q-17 0 -28 -11.5
t-11 -27.5q0 -17 11 -28t28 -11q16 0 27.5 11t11.5 28zM431 414q0 16 -11 27.5t-28 11.5q-16 0 -27 -11t-11 -27t11 -28t27 -12t27.5 12t11.5 27zM258 551q0 16 -11 27t-28 11q-16 0 -27 -10.5t-11 -26.5t11 -27.5t27 -11.5t27.5 11.5t11.5 26.5zM421 331q0 16 -11 27.5
t-28 11.5q-15 0 -26.5 -12t-11.5 -27q0 -17 11 -28t27 -11q17 0 28 11t11 28zM171 549q0 16 -10.5 27.5t-27.5 11.5q-16 0 -27.5 -11.5t-11.5 -27.5t11.5 -27t27.5 -11q17 0 27.5 11t10.5 27zM232 354q37 1 51 16t14 43q0 29 -14 42.5t-51 13.5v-115zM346 284
q0 16 -11.5 27.5t-27.5 11.5t-27 -11.5t-11 -27.5t11.5 -27.5t26.5 -11.5q16 0 27.5 11t11.5 28zM133 418q17 0 27.5 11t10.5 28q0 16 -10.5 27.5t-27.5 11.5q-16 0 -27.5 -11.5t-11.5 -27.5q0 -17 11.5 -28t27.5 -11zM223 237q16 0 27 11t11 28q0 16 -11 27t-27 11
t-27.5 -11t-11.5 -27q0 -17 11.5 -28t27.5 -11zM133 325q17 0 27.5 11.5t10.5 27.5q0 17 -10.5 27.5t-27.5 10.5q-16 0 -27.5 -10.5t-11.5 -27.5q0 -16 11.5 -27.5t27.5 -11.5zM171 271q0 16 -10.5 27.5t-27.5 11.5q-16 0 -27.5 -11.5t-11.5 -27.5t11.5 -27t27.5 -11
q17 0 27.5 11t10.5 27zM133 140q17 0 27.5 11t10.5 28q0 16 -10.5 27.5t-27.5 11.5q-16 0 -27.5 -11.5t-11.5 -27.5q0 -17 11.5 -28t27.5 -11zM133 47q17 0 27.5 11.5t10.5 27.5t-10.5 27t-27.5 11q-16 0 -27.5 -11t-11.5 -27t11.5 -27.5t27.5 -11.5z" />
    <glyph glyph-name="Q" unicode="Q" horiz-adv-x="713" 
d="M534 35q-80 -47 -177 -47q-71 0 -131.5 24.5t-105 68t-70 103t-25.5 130.5q0 72 25 132t69.5 103.5t105.5 67.5t132 24q70 0 130.5 -24.5t105.5 -68t70.5 -103.5t25.5 -131q0 -103 -55 -185l46 -47l-95 -96zM521 436q15 0 26.5 11.5t11.5 27.5t-11 27t-27 11t-27.5 -11
t-11.5 -27t11.5 -27.5t27.5 -11.5zM489 530q0 16 -11 27.5t-28 11.5q-16 0 -27 -11.5t-11 -27.5t11 -27.5t27 -11.5t27.5 12t11.5 27zM570 362q16 0 27 11.5t11 27.5q0 17 -11 27.5t-27 10.5t-27.5 -10.5t-11.5 -27.5q0 -16 11.5 -27.5t27.5 -11.5zM353 515q17 0 27.5 11
t10.5 28q0 16 -10.5 27t-27.5 11q-15 0 -27 -11.5t-12 -26.5q0 -17 11.5 -28t27.5 -11zM624 314q0 16 -11.5 27.5t-27.5 11.5t-27 -11t-11 -28q0 -16 11 -27t27 -11q17 0 28 11t11 27zM570 188q16 0 27 11.5t11 27.5q0 17 -11 27.5t-27 10.5t-27.5 -10.5t-11.5 -27.5
q0 -16 11.5 -27.5t27.5 -11.5zM265 491q15 0 26.5 12t11.5 27q0 16 -11 27.5t-27 11.5q-17 0 -28 -11.5t-11 -27.5t11 -27.5t28 -11.5zM521 115q15 0 26.5 12t11.5 27q0 16 -11 27t-27 11t-27.5 -11t-11.5 -27t11.5 -27.5t27.5 -11.5zM496 218q0 16 -11.5 27t-27.5 11
t-27.5 -11.5t-11.5 -26.5q0 -17 11 -28t28 -11q16 0 27.5 11t11.5 28zM625 85q0 17 -11 27.5t-28 10.5q-16 0 -27 -10.5t-11 -27.5q0 -16 11 -27.5t27 -11.5t27.5 12t11.5 27zM357 211l99 99l34 -34q2 9 3 19t1 19q0 33 -10 60.5t-28 47.5t-43.5 31t-55.5 11t-55 -11
t-43.5 -31t-28.5 -47.5t-10 -60.5t10 -60t28.5 -47t43.5 -31t55 -11q23 0 41 6zM233 475q0 16 -11.5 27t-27.5 11t-27.5 -11t-11.5 -27t11.5 -27.5t27.5 -11.5q15 0 27 11.5t12 27.5zM489 98q0 16 -11 27.5t-28 11.5q-16 0 -27 -11.5t-11 -27.5t11 -27t27 -11t27.5 11
t11.5 27zM183 401q0 17 -11.5 27.5t-27.5 10.5t-27 -10.5t-11 -27.5q0 -15 11.5 -27t26.5 -12q16 0 27.5 11.5t11.5 27.5zM168 314q0 17 -11.5 28t-27.5 11q-17 0 -27.5 -11t-10.5 -28q0 -16 10.5 -27t27.5 -11q16 0 27.5 11t11.5 27zM353 37q17 0 27.5 11.5t10.5 27.5
t-10.5 27t-27.5 11q-16 0 -27.5 -11t-11.5 -27t11.5 -27.5t27.5 -11.5zM183 227q0 17 -11.5 27.5t-27.5 10.5t-27 -10.5t-11 -27.5q0 -15 11.5 -27t26.5 -12q16 0 27.5 11.5t11.5 27.5zM303 98q0 16 -11 27.5t-27 11.5q-17 0 -28 -11.5t-11 -27.5t11 -27t28 -11
q15 0 26.5 11t11.5 27zM233 154q0 16 -11.5 27t-27.5 11t-27.5 -11t-11.5 -27t11.5 -27.5t27.5 -11.5q15 0 27 12t12 27z" />
    <glyph glyph-name="R" unicode="R" horiz-adv-x="570" 
d="M323 0l-91 176v-176h-195v629h239q54 0 98.5 -15t76 -42t48.5 -66t17 -87q0 -66 -31 -111.5t-85 -61.5l159 -246h-236zM435 495q0 16 -11.5 27t-27.5 11t-27 -11t-11 -27q0 -17 11 -28t27 -11t27.5 11.5t11.5 27.5zM358 546q0 15 -12 27t-27 12q-16 0 -27 -11.5
t-11 -27.5q0 -17 11 -28t27 -11t27.5 11t11.5 28zM416 372q15 0 26.5 11.5t11.5 27.5t-11 27t-27 11t-27.5 -10.5t-11.5 -27.5q0 -16 11.5 -27.5t27.5 -11.5zM265 551q0 16 -10.5 27t-27.5 11q-16 0 -27.5 -10.5t-11.5 -26.5t11.5 -27.5t27.5 -11.5t27 11.5t11 26.5z
M381 289q16 0 27 11.5t11 27.5t-11 27t-27 11t-27.5 -11.5t-11.5 -26.5q0 -16 11 -27.5t28 -11.5zM253 354q65 0 65 59q0 56 -69 56h-17v-115h21zM171 549q0 16 -10.5 27.5t-27.5 11.5q-16 0 -27.5 -11.5t-11.5 -27.5t11.5 -27t27.5 -11q17 0 27.5 11t10.5 27zM133 418
q17 0 27.5 11t10.5 28q0 16 -10.5 27.5t-27.5 11.5q-16 0 -27.5 -11.5t-11.5 -27.5q0 -17 11.5 -28t27.5 -11zM346 276q0 17 -11.5 27.5t-27.5 10.5q-15 0 -26.5 -11t-11.5 -27t11 -27.5t27 -11.5t27.5 11.5t11.5 27.5zM383 179q0 17 -11 28t-28 11q-15 0 -26.5 -11.5
t-11.5 -27.5t11 -27.5t27 -11.5q17 0 28 11.5t11 27.5zM133 325q17 0 27.5 11.5t10.5 27.5q0 17 -10.5 27.5t-27.5 10.5q-16 0 -27.5 -10.5t-11.5 -27.5q0 -16 11.5 -27.5t27.5 -11.5zM217 237q16 0 27 11t11 28q0 16 -11 27t-27 11q-17 0 -28 -11t-11 -27q0 -17 11 -28
t28 -11zM430 84q0 17 -11.5 28t-27.5 11t-27 -11.5t-11 -27.5t10.5 -27.5t27.5 -11.5q16 0 27.5 11.5t11.5 27.5zM171 271q0 16 -10.5 27.5t-27.5 11.5q-16 0 -27.5 -11.5t-11.5 -27.5t11.5 -27t27.5 -11q17 0 27.5 11t10.5 27zM133 140q17 0 27.5 11t10.5 28
q0 16 -10.5 27.5t-27.5 11.5q-16 0 -27.5 -11.5t-11.5 -27.5q0 -17 11.5 -28t27.5 -11zM133 47q17 0 27.5 11.5t10.5 27.5t-10.5 27t-27.5 11q-16 0 -27.5 -11t-11.5 -27t11.5 -27.5t27.5 -11.5z" />
    <glyph glyph-name="S" unicode="S" horiz-adv-x="517" 
d="M386 533q0 16 -10.5 28t-26.5 12q-17 0 -28.5 -12t-11.5 -28t11.5 -27t27.5 -11t27 10.5t11 27.5zM255 523q16 0 27 11.5t11 27.5q0 17 -11 28t-27 11q-17 0 -28 -11t-11 -28q0 -15 11.5 -27t27.5 -12zM199 533q0 16 -11.5 27t-27.5 11t-27 -11t-11 -27t11.5 -27.5
t26.5 -11.5q16 0 27.5 11.5t11.5 27.5zM383 277q0 15 -11.5 27t-27.5 12t-27 -11.5t-11 -27.5t11 -27t27 -11t27.5 11t11.5 27zM432 195q0 16 -11.5 27.5t-27.5 11.5t-27.5 -11.5t-11.5 -27.5t11.5 -27.5t27.5 -11.5q15 0 27 12t12 27zM260 279q15 0 26.5 11.5t11.5 27.5
t-11 27t-27 11t-27.5 -11t-11.5 -27t11.5 -27.5t27.5 -11.5zM123 404q17 0 27.5 11.5t10.5 27.5t-10.5 27t-27.5 11q-16 0 -27.5 -11t-11.5 -27t11.5 -27.5t27.5 -11.5zM171 324q17 0 27.5 11.5t10.5 27.5q0 17 -10.5 28t-27.5 11q-16 0 -27.5 -11t-11.5 -28
q0 -16 11.5 -27.5t27.5 -11.5zM349 67q16 0 26.5 11.5t10.5 27.5q0 17 -10.5 27.5t-27.5 10.5q-15 0 -27 -11t-12 -27t12 -27.5t28 -11.5zM258 40q16 0 27 11t11 28q0 16 -11.5 27.5t-27.5 11.5t-27.5 -12t-11.5 -27q0 -17 11.5 -28t28.5 -11zM200 115q0 17 -11.5 28
t-27.5 11t-27 -11.5t-11 -27.5q0 -15 10.5 -27t26.5 -12t28 11.5t12 27.5zM302 429q-4 22 -14.5 40.5t-37.5 18.5q-16 0 -27 -8.5t-11 -23.5q0 -14 8.5 -23t20.5 -15t25.5 -10t24.5 -7q34 -11 69.5 -25.5t62.5 -37.5q32 -28 50 -64t18 -76q0 -52 -19 -91.5t-52 -65.5
t-76 -39.5t-91 -13.5q-39 0 -76 9t-67 28.5t-50 50t-26 73.5l171 54q0 -24 16 -36.5t39 -12.5q16 0 28.5 7t12.5 25q0 10 -8.5 18t-20.5 14t-25.5 11t-23.5 10q-39 16 -75.5 31t-65.5 44q-25 24 -39.5 57.5t-14.5 68.5q0 49 17.5 86.5t48 63t70.5 38.5t85 13q39 0 74.5 -7.5
t64.5 -25.5t49 -46.5t28 -70.5z" />
    <glyph glyph-name="T" unicode="T" horiz-adv-x="556" 
d="M181 0v465h-164v164h522v-164h-164v-465h-194zM504 549q0 16 -11.5 27.5t-27.5 11.5q-17 0 -27.5 -11.5t-10.5 -27.5t10.5 -27t27.5 -11q16 0 27.5 11t11.5 27zM411 549q0 16 -11.5 27.5t-27.5 11.5t-27.5 -11.5t-11.5 -27.5t11.5 -27t27.5 -11t27.5 11t11.5 27zM318 549
q0 16 -11 27.5t-27 11.5q-17 0 -28 -11.5t-11 -27.5t11 -27t28 -11q16 0 27 11t11 27zM225 549q0 16 -11 27.5t-28 11.5q-16 0 -27 -11.5t-11 -27.5t11 -27t27 -11q17 0 28 11t11 27zM280 418q16 0 27 11t11 28q0 16 -11 27.5t-27 11.5q-17 0 -28 -11.5t-11 -27.5
q0 -17 11 -28t28 -11zM133 549q0 16 -11.5 27.5t-27.5 11.5t-27.5 -11.5t-11.5 -27.5t11.5 -27t27.5 -11t27.5 11t11.5 27zM280 325q16 0 27 11.5t11 27.5q0 17 -11 27.5t-27 10.5q-17 0 -28 -10.5t-11 -27.5q0 -16 11 -27.5t28 -11.5zM318 271q0 16 -11 27.5t-27 11.5
q-17 0 -28 -11.5t-11 -27.5t11 -27t28 -11q16 0 27 11t11 27zM280 140q16 0 27 11t11 28q0 16 -11 27.5t-27 11.5q-17 0 -28 -11.5t-11 -27.5q0 -17 11 -28t28 -11zM280 47q16 0 27 11.5t11 27.5t-11 27t-27 11q-17 0 -28 -11t-11 -27t11 -27.5t28 -11.5z" />
    <glyph glyph-name="U" unicode="U" 
d="M365 629h194v-397q0 -57 -18.5 -102.5t-52.5 -77t-82.5 -48t-109.5 -16.5q-60 0 -109 16.5t-83 48t-52.5 77t-18.5 102.5v397h195v-380q0 -45 15.5 -65t52.5 -20q38 0 53.5 20t15.5 65v380zM504 549q0 16 -11.5 27.5t-27.5 11.5q-17 0 -27.5 -11.5t-10.5 -27.5t10.5 -27
t27.5 -11q16 0 27.5 11t11.5 27zM504 457q0 16 -11.5 27.5t-27.5 11.5q-17 0 -27.5 -11.5t-10.5 -27.5q0 -17 10.5 -28t27.5 -11q16 0 27.5 11t11.5 28zM504 364q0 17 -11.5 27.5t-27.5 10.5q-17 0 -27.5 -10.5t-10.5 -27.5q0 -16 10.5 -27.5t27.5 -11.5q16 0 27.5 11.5
t11.5 27.5zM504 271q0 16 -11.5 27.5t-27.5 11.5q-17 0 -27.5 -11.5t-10.5 -27.5t10.5 -27t27.5 -11q16 0 27.5 11t11.5 27zM163 549q0 16 -11.5 27.5t-27.5 11.5t-27 -11.5t-11 -27.5t11 -27t27 -11t27.5 11t11.5 27zM443 140q16 0 27 11t11 28q0 16 -11 27.5t-27 11.5
t-27.5 -11.5t-11.5 -27.5q0 -17 11.5 -28t27.5 -11zM163 457q0 16 -11.5 27.5t-27.5 11.5t-27 -11.5t-11 -27.5q0 -17 11 -28t27 -11t27.5 11t11.5 28zM423 103q0 17 -11 28t-27 11t-27.5 -11t-11.5 -28q0 -16 11.5 -27t27.5 -11t27 11t11 27zM163 364q0 17 -11.5 27.5
t-27.5 10.5t-27 -10.5t-11 -27.5q0 -16 11 -27.5t27 -11.5t27.5 11.5t11.5 27.5zM163 271q0 16 -11.5 27.5t-27.5 11.5t-27 -11.5t-11 -27.5t11 -27t27 -11t27.5 11t11.5 27zM337 80q0 15 -12 26.5t-27 11.5q-16 0 -27 -11t-11 -27q0 -17 11 -28t27 -11t27.5 11t11.5 28z
M186 179q0 16 -11.5 27.5t-27.5 11.5q-17 0 -28 -11.5t-11 -27.5q0 -17 11 -28t28 -11q16 0 27.5 11t11.5 28zM244 103q0 17 -11.5 28t-27.5 11q-17 0 -28 -11t-11 -28q0 -16 11 -27t28 -11q15 0 27 11.5t12 26.5z" />
    <glyph glyph-name="V" unicode="V" horiz-adv-x="586" 
d="M205 0l-199 629h208l83 -338l84 338h199l-199 -629h-176zM504 559q0 16 -11.5 27t-27.5 11q-17 0 -27.5 -11t-10.5 -27t10.5 -27.5t27.5 -11.5q16 0 27.5 11.5t11.5 27.5zM438 439q17 0 27.5 11.5t10.5 27.5q0 17 -10.5 28t-27.5 11q-16 0 -27.5 -11t-11.5 -28
q0 -16 11.5 -27.5t27.5 -11.5zM449 398q0 16 -10.5 27.5t-27.5 11.5q-16 0 -27.5 -11.5t-11.5 -27.5t12 -27t27 -11q17 0 27.5 10.5t10.5 27.5zM425 318q0 16 -11.5 27t-27.5 11q-17 0 -27.5 -11t-10.5 -27t11 -27.5t27 -11.5t27.5 11.5t11.5 27.5zM168 559q0 16 -11 27
t-28 11q-16 0 -27 -11t-11 -27t11 -27.5t27 -11.5q17 0 28 11.5t11 27.5zM196 478q0 17 -11.5 28t-27.5 11q-17 0 -28 -11t-11 -28q0 -16 11 -27.5t28 -11.5q15 0 27 12t12 27zM400 237q0 17 -11 28t-28 11q-16 0 -27 -11t-11 -28q0 -16 11 -27.5t27 -11.5t27.5 12t11.5 27z
M223 398q0 16 -11.5 27.5t-27.5 11.5q-17 0 -28 -11.5t-11 -27.5q0 -17 11 -27.5t28 -10.5q15 0 27 11t12 27zM246 318q0 16 -11 27t-28 11q-16 0 -27 -11t-11 -27t11.5 -27.5t26.5 -11.5q17 0 28 11.5t11 27.5zM379 157q0 18 -13.5 29t-31.5 11q-14 0 -23 -12.5t-9 -27.5
q0 -17 10.5 -28t27.5 -11q15 0 27 11.5t12 27.5zM234 198q16 0 27 11.5t11 27.5q0 17 -11 28t-27 11q-17 0 -28 -11t-11 -28q0 -15 11.5 -27t27.5 -12zM255 118q17 0 27.5 11t10.5 28q0 15 -9 27.5t-24 12.5q-17 0 -30.5 -11t-13.5 -29q0 -17 11.5 -28t27.5 -11zM330 76
q0 16 -11.5 27.5t-27.5 11.5q-17 0 -27.5 -11.5t-10.5 -27.5t10.5 -27t27.5 -11q16 0 27.5 11.5t11.5 26.5z" />
    <glyph glyph-name="W" unicode="W" horiz-adv-x="927" 
d="M546 0l-80 305l-84 -305h-177l-199 629h208l83 -338l85 338h173l83 -338l84 338h199l-199 -629h-176zM425 318q0 16 -11.5 27t-27.5 11t-27 -11t-11 -27t11.5 -27.5t26.5 -11.5q16 0 27.5 11.5t11.5 27.5zM169 559q0 16 -11.5 27t-27.5 11q-17 0 -27.5 -11t-10.5 -27
t10.5 -27.5t27.5 -11.5q16 0 27.5 11.5t11.5 27.5zM194 478q0 17 -11.5 28t-27.5 11q-17 0 -28 -11t-11 -28q0 -16 11 -27.5t28 -11.5q15 0 27 12t12 27zM402 236q0 17 -11.5 28t-27.5 11q-17 0 -28 -11t-11 -28q0 -16 11 -27.5t28 -11.5q15 0 27 12t12 27zM219 398
q0 16 -11.5 27.5t-27.5 11.5t-27.5 -11.5t-11.5 -27.5q0 -17 11.5 -27.5t27.5 -10.5q15 0 27 11t12 27zM240 318q0 16 -11.5 27t-27.5 11q-17 0 -27.5 -11t-10.5 -27t11 -27.5t27 -11.5t27.5 11.5t11.5 27.5zM224 196q16 0 27 11.5t11 27.5q0 17 -11 28t-27 11t-27.5 -11
t-11.5 -28q0 -15 11.5 -27t27.5 -12zM333 80q0 16 -11.5 27.5t-27.5 11.5t-27 -11.5t-11 -27.5t11 -27t27 -11t27.5 11.5t11.5 26.5zM465 482q0 16 -10.5 27.5t-27.5 11.5q-16 0 -27.5 -11.5t-11.5 -27.5t12 -27t27 -11q17 0 27.5 11t10.5 27zM376 155q0 16 -11 27t-28 11
q-16 0 -27 -11t-11 -27t11 -27.5t27 -11.5q17 0 28 11.5t11 27.5zM289 155q0 16 -11 27t-28 11q-16 0 -27 -11t-11 -27t11 -27.5t27 -11.5q17 0 28 11.5t11 27.5zM446 399q0 16 -11 27t-28 11q-16 0 -27 -11t-11 -27t11 -27.5t27 -11.5q17 0 28 11.5t11 27.5zM429 559
q0 -16 11 -27.5t28 -11.5q16 0 27 11.5t11 27.5t-11 27t-27 11q-17 0 -28 -11t-11 -27zM510 318q0 -16 11.5 -27.5t27.5 -11.5q15 0 26.5 11.5t11.5 27.5t-11 27t-27 11t-27.5 -11t-11.5 -27zM766 559q0 -16 11.5 -27.5t27.5 -11.5q17 0 27.5 11.5t10.5 27.5t-10.5 27
t-27.5 11q-16 0 -27.5 -11t-11.5 -27zM741 478q0 -15 12 -27t27 -12q17 0 28 11.5t11 27.5q0 17 -11 28t-28 11q-16 0 -27.5 -11t-11.5 -28zM533 236q0 -15 12 -27t27 -12q17 0 28 11.5t11 27.5q0 17 -11 28t-28 11q-16 0 -27.5 -11t-11.5 -28zM716 398q0 -16 12 -27t27 -11
q16 0 27.5 10.5t11.5 27.5q0 16 -11.5 27.5t-27.5 11.5t-27.5 -11.5t-11.5 -27.5zM695 318q0 -16 11.5 -27.5t27.5 -11.5t27 11.5t11 27.5t-10.5 27t-27.5 11q-16 0 -27.5 -11t-11.5 -27zM711 196q16 0 27.5 12t11.5 27q0 17 -11.5 28t-27.5 11t-27 -11t-11 -28
q0 -16 11 -27.5t27 -11.5zM602 80q0 -15 11.5 -26.5t27.5 -11.5t27 11t11 27t-11 27.5t-27 11.5t-27.5 -11.5t-11.5 -27.5zM470 482q0 -16 10.5 -27t27.5 -11q15 0 27 11t12 27t-11.5 27.5t-27.5 11.5q-17 0 -27.5 -11.5t-10.5 -27.5zM559 155q0 -16 11 -27.5t28 -11.5
q16 0 27 11.5t11 27.5t-11 27t-27 11q-17 0 -28 -11t-11 -27zM646 155q0 -16 11 -27.5t28 -11.5q16 0 27 11.5t11 27.5t-11 27t-27 11q-17 0 -28 -11t-11 -27zM489 399q0 -16 11 -27.5t28 -11.5q16 0 27 11.5t11 27.5t-11 27t-27 11q-17 0 -28 -11t-11 -27z" />
    <glyph glyph-name="X" unicode="X" horiz-adv-x="622" 
d="M392 0l-83 174l-81 -174h-224l192 336l-171 293h225l65 -135l63 135h223l-173 -293l191 -336h-227zM453 525q17 0 27.5 11t10.5 28q0 15 -11 26.5t-27 11.5t-27.5 -11t-11.5 -27q0 -17 11.5 -28t27.5 -11zM448 484q0 16 -11.5 27t-27.5 11t-27.5 -11t-11.5 -27
t11.5 -27.5t27.5 -11.5t27.5 11.5t11.5 27.5zM395 404q0 16 -11 27.5t-28 11.5q-16 0 -27 -11.5t-11 -27.5t11 -27.5t27 -11.5q17 0 28 11.5t11 27.5zM206 564q0 16 -11.5 27t-27.5 11t-27 -11t-11 -27q0 -17 11 -28t27 -11t27.5 11t11.5 28zM252 484q0 16 -11 27t-28 11
q-16 0 -27 -11t-11 -27t11 -27.5t27 -11.5q17 0 28 11.5t11 27.5zM307 404q0 16 -11.5 27.5t-27.5 11.5q-17 0 -28 -11.5t-11 -27.5t11 -27.5t28 -11.5q16 0 27.5 11.5t11.5 27.5zM342 324q0 17 -11.5 28t-27.5 11t-27 -11t-11 -28q0 -16 11 -27t27 -11t27.5 11t11.5 27z
M402 245q0 16 -11 27.5t-27 11.5q-17 0 -28 -11.5t-11 -27.5t11.5 -27t27.5 -11t27 10.5t11 27.5zM453 162q0 17 -11 28t-28 11q-16 0 -27.5 -11t-11.5 -28q0 -16 11.5 -27.5t27.5 -11.5q17 0 28 11.5t11 27.5zM493 82q0 16 -11 27.5t-28 11.5q-16 0 -27 -11.5t-11 -27.5
q0 -17 11 -27.5t27 -10.5q17 0 28 10.5t11 27.5zM298 245q0 16 -10.5 27.5t-27.5 11.5q-16 0 -27.5 -11.5t-11.5 -27.5q0 -17 11.5 -27.5t27.5 -10.5t27 11t11 27zM246 162q0 17 -11.5 28t-27.5 11t-27 -11t-11 -28q0 -16 11 -27.5t27 -11.5t27.5 12t11.5 27zM202 82
q0 16 -11.5 27.5t-27.5 11.5q-17 0 -28 -11.5t-11 -27.5q0 -17 11 -27.5t28 -10.5q16 0 27.5 10.5t11.5 27.5z" />
    <glyph glyph-name="Y" unicode="Y" horiz-adv-x="606" 
d="M205 0v280l-204 349h222l80 -170l80 170h222l-204 -349v-280h-196zM499 564q0 15 -12 26.5t-27 11.5q-16 0 -27 -11t-11 -27q0 -17 11 -28t27 -11t27.5 11t11.5 28zM454 476q0 16 -10.5 27.5t-27.5 11.5q-16 0 -27.5 -11.5t-11.5 -27.5q0 -17 11.5 -27.5t27.5 -10.5
q17 0 27.5 10.5t10.5 27.5zM364 350q16 0 27 11t11 28q0 16 -11 27.5t-27 11.5t-27.5 -11.5t-11.5 -27.5q0 -17 11.5 -28t27.5 -11zM190 564q0 15 -12 26.5t-27 11.5q-16 0 -27 -11t-11 -27q0 -17 11 -28t27 -11t27.5 11t11.5 28zM236 476q0 16 -11.5 27.5t-27.5 11.5
t-27 -11.5t-11 -27.5q0 -17 11 -27.5t27 -10.5t27.5 10.5t11.5 27.5zM244 350q17 0 27 11t10 28q0 16 -10.5 27.5t-27.5 11.5q-16 0 -27.5 -11.5t-11.5 -27.5q0 -17 12 -28t28 -11zM341 302q0 16 -11 27t-28 11q-16 0 -27 -11t-11 -27q0 -17 11 -28t27 -11q17 0 28 11t11 28
zM341 193q0 16 -11 27.5t-28 11.5q-16 0 -27 -11.5t-11 -27.5t11 -27t27 -11q17 0 28 11t11 27zM341 92q0 17 -11 28t-28 11q-16 0 -27 -11t-11 -28q0 -16 11 -27t27 -11q17 0 28 11t11 27z" />
    <glyph glyph-name="Z" unicode="Z" horiz-adv-x="566" 
d="M9 0l249 469h-231v160h530l-248 -464h219v-165h-519zM427 541q0 15 -11.5 27t-27.5 12t-27.5 -11.5t-11.5 -27.5t11.5 -27.5t27.5 -11.5q17 0 28 11.5t11 27.5zM333 540q0 16 -11.5 27.5t-27.5 11.5q-15 0 -27 -12t-12 -27q0 -16 11.5 -27.5t27.5 -11.5t27.5 11.5
t11.5 27.5zM394 448q0 15 -12 26.5t-27 11.5q-17 0 -27.5 -11t-10.5 -27q0 -17 10.5 -28t27.5 -11q16 0 27.5 11t11.5 28zM202 501q16 0 27 11.5t11 27.5t-11 27.5t-27 11.5t-27.5 -12t-11.5 -27q0 -16 11 -27.5t28 -11.5zM345 361q0 16 -11 27.5t-27 11.5t-27.5 -11.5
t-11.5 -27.5q0 -17 11.5 -27.5t27.5 -10.5q15 0 26.5 11t11.5 27zM147 540q0 16 -11 27.5t-28 11.5q-15 0 -26.5 -12t-11.5 -27q0 -16 11 -27.5t27 -11.5q17 0 28 11.5t11 27.5zM304 276q0 16 -11.5 27t-27.5 11t-27 -11t-11 -27q0 -17 11 -28t27 -11t27.5 11t11.5 28z
M442 50q15 0 26.5 11.5t11.5 27.5t-11 27.5t-27 11.5t-27.5 -11.5t-11.5 -27.5q0 -17 11.5 -28t27.5 -11zM349 50q16 0 27 11.5t11 27.5t-10.5 27.5t-27.5 11.5q-16 0 -27.5 -11.5t-11.5 -27.5q0 -17 11.5 -28t27.5 -11zM212 146q16 0 27 11.5t11 27.5q0 15 -11.5 26.5
t-26.5 11.5q-17 0 -28 -11t-11 -27t11 -27.5t28 -11.5zM295 89q0 16 -11.5 27.5t-27.5 11.5t-27 -11.5t-11 -27.5q0 -17 11 -28t27 -11q15 0 27 11.5t12 27.5zM164 50q15 0 26.5 11.5t11.5 27.5t-11 27.5t-27 11.5q-17 0 -28 -11.5t-11 -27.5q0 -17 11 -28t28 -11z" />
    <glyph glyph-name="bracketleft" unicode="[" horiz-adv-x="315" 
d="M61 -66v783h254v-155h-89v-474h89v-154h-254zM239 598q16 0 27 11.5t11 27.5t-11 27t-27 11t-27.5 -11t-11.5 -27t11.5 -27.5t27.5 -11.5zM184 637q0 16 -11 27t-28 11q-16 0 -27 -11t-11 -27t11 -27.5t27 -11.5q17 0 28 11.5t11 27.5zM184 530q0 16 -11 27.5t-28 11.5
q-16 0 -27 -11.5t-11 -27.5t11 -27.5t27 -11.5q17 0 28 11.5t11 27.5zM184 425q0 16 -11 27.5t-28 11.5q-16 0 -27 -11.5t-11 -27.5t11 -27.5t27 -11.5q17 0 28 11.5t11 27.5zM184 323q0 16 -11 27.5t-28 11.5q-16 0 -27 -11.5t-11 -27.5q0 -17 11 -27.5t27 -10.5
q17 0 28 10.5t11 27.5zM184 219q0 17 -11 28t-28 11q-16 0 -27 -11t-11 -28q0 -16 11 -27t27 -11q17 0 28 11t11 27zM184 119q0 16 -11 27.5t-28 11.5q-16 0 -27 -11.5t-11 -27.5q0 -17 11 -27.5t27 -10.5q17 0 28 10.5t11 27.5zM239 -28q16 0 27 11.5t11 27.5t-11 27.5
t-27 11.5t-27.5 -11.5t-11.5 -27.5t11.5 -27.5t27.5 -11.5zM184 11q0 16 -11 27.5t-28 11.5q-16 0 -27 -11.5t-11 -27.5t11 -27.5t27 -11.5q17 0 28 11.5t11 27.5z" />
    <glyph glyph-name="backslash" unicode="\" horiz-adv-x="338" 
d="M232 34q15 0 26.5 12t11.5 27q0 17 -11 28t-27 11t-27.5 -11t-11.5 -28q0 -16 11.5 -27.5t27.5 -11.5zM248 156q0 16 -11.5 27.5t-27.5 11.5q-15 0 -26.5 -12t-11.5 -27q0 -16 11 -27t27 -11t27.5 11t11.5 27zM226 238q0 16 -11.5 27t-27.5 11t-27 -10.5t-11 -27.5
q0 -16 11 -27.5t27 -11.5q17 0 28 11.5t11 27.5zM204 320q0 16 -11.5 27.5t-27.5 11.5q-17 0 -27.5 -11.5t-10.5 -27.5t11 -27.5t27 -11.5t27.5 11.5t11.5 27.5zM144 363q15 0 26.5 11.5t11.5 27.5q0 17 -11 27.5t-27 10.5t-27.5 -10.5t-11.5 -27.5q0 -16 11.5 -27.5
t27.5 -11.5zM160 485q0 16 -11 27t-28 11q-15 0 -27 -11.5t-12 -26.5q0 -16 11.5 -27.5t27.5 -11.5q17 0 28 11.5t11 27.5zM139 566q0 16 -12 27.5t-27 11.5q-17 0 -28 -11t-11 -28q0 -16 11 -27t28 -11q16 0 27.5 11t11.5 27zM167 -10l-165 649h163l171 -649h-169z" />
    <glyph glyph-name="bracketright" unicode="]" horiz-adv-x="315" 
d="M170 -28q16 0 27 11.5t11 27.5t-11 27.5t-27 11.5q-17 0 -28 -11.5t-11 -27.5t11 -27.5t28 -11.5zM115 11q0 16 -11.5 27.5t-27.5 11.5t-27 -11.5t-11 -27.5t11 -27.5t27 -11.5t27.5 11.5t11.5 27.5zM208 119q0 16 -11 27.5t-27 11.5q-17 0 -28 -11.5t-11 -27.5
q0 -17 11 -27.5t28 -10.5q16 0 27 10.5t11 27.5zM208 219q0 17 -11 28t-27 11q-17 0 -28 -11t-11 -28q0 -16 11 -27t28 -11q16 0 27 11t11 27zM208 323q0 16 -11 27.5t-27 11.5q-17 0 -28 -11.5t-11 -27.5q0 -17 11 -27.5t28 -10.5q16 0 27 10.5t11 27.5zM170 386
q16 0 27 11.5t11 27.5t-11 27.5t-27 11.5q-17 0 -28 -11.5t-11 -27.5t11 -27.5t28 -11.5zM170 491q16 0 27 11.5t11 27.5t-11 27.5t-27 11.5q-17 0 -28 -11.5t-11 -27.5t11 -27.5t28 -11.5zM170 598q16 0 27 11.5t11 27.5t-11 27t-27 11q-17 0 -28 -11t-11 -27t11 -27.5
t28 -11.5zM115 637q0 16 -11.5 27t-27.5 11t-27 -11t-11 -27t11 -27.5t27 -11.5t27.5 11.5t11.5 27.5zM0 -66v154h89v474h-89v155h254v-783h-254z" />
    <glyph glyph-name="asciicircum" unicode="^" horiz-adv-x="513" 
d="M337 196l-81 220l-83 -222h-155l168 435h140l169 -433h-158zM431 256q0 17 -11 28t-28 11q-15 0 -26.5 -11.5t-11.5 -27.5t11 -27t27 -11q17 0 28 11t11 27zM400 335q0 16 -11.5 27.5t-27.5 11.5q-17 0 -27.5 -11.5t-10.5 -27.5t10.5 -27t27.5 -11q16 0 27.5 11t11.5 27z
M368 414q0 15 -12 27t-27 12q-16 0 -27 -11.5t-11 -27.5t11 -27.5t27 -11.5t27.5 11.5t11.5 27.5zM157 256q0 17 -11.5 28t-27.5 11t-27 -11.5t-11 -27.5t10.5 -27t27.5 -11q16 0 27.5 11t11.5 27zM189 335q0 15 -11.5 27t-27.5 12t-27 -11.5t-11 -27.5t11 -27t27 -11
q17 0 28 11t11 27zM336 493q0 15 -11.5 27t-27.5 12t-27 -11.5t-11 -27.5q0 -17 11 -28t27 -11q17 0 28 11t11 28zM182 375q16 0 27.5 11.5t11.5 27.5q0 15 -11.5 27t-27.5 12t-27 -11.5t-11 -27.5t11 -27.5t27 -11.5zM214 454q16 0 27.5 11t11.5 28q0 16 -11.5 27.5
t-27.5 11.5t-27 -11.5t-11 -27.5q0 -17 11 -28t27 -11zM294 568q0 16 -11.5 27t-27.5 11q-17 0 -27.5 -11t-10.5 -27t10.5 -27.5t27.5 -11.5q16 0 27.5 11.5t11.5 27.5z" />
    <glyph glyph-name="underscore" unicode="_" horiz-adv-x="504" 
d="M18 -157v132h468v-132h-468zM422 -129q16 0 27 11t11 28q0 15 -11.5 27t-26.5 12q-16 0 -27.5 -11.5t-11.5 -27.5q0 -17 11.5 -28t27.5 -11zM337 -129q16 0 27 11t11 28q0 15 -11.5 27t-26.5 12q-16 0 -27.5 -11.5t-11.5 -27.5q0 -17 11.5 -28t27.5 -11zM291 -90
q0 15 -12 27t-27 12q-17 0 -28 -11.5t-11 -27.5q0 -17 11 -28t28 -11q16 0 27.5 11t11.5 28zM205 -90q0 15 -11.5 27t-27.5 12t-27 -11.5t-11 -27.5q0 -17 11 -28t27 -11q17 0 28 11t11 28zM120 -90q0 15 -11.5 27t-27.5 12t-27 -11.5t-11 -27.5q0 -17 11 -28t27 -11
q17 0 28 11t11 28z" />
    <glyph glyph-name="grave" unicode="`" horiz-adv-x="246" 
d="M188 722q0 16 -11 27t-28 11q-16 0 -27.5 -11t-11.5 -27q0 -17 11.5 -28t27.5 -11q17 0 28 11t11 28zM151 815q0 16 -11.5 27t-27.5 11q-17 0 -28 -11t-11 -27t11 -27.5t28 -11.5q16 0 27.5 11.5t11.5 27.5zM104 659l-100 221h170l58 -221h-128z" />
    <glyph glyph-name="a" unicode="a" horiz-adv-x="664" 
d="M453 0l-20 66h-199l-21 -66h-207l218 629h216l219 -629h-206zM375 514q16 0 27 11t11 28q0 15 -11.5 26.5t-26.5 11.5q-16 0 -27.5 -11t-11.5 -27q0 -17 11.5 -28t27.5 -11zM436 472q0 16 -11.5 27.5t-27.5 11.5t-27 -11.5t-11 -27.5t10.5 -27.5t27.5 -11.5
q16 0 27.5 11.5t11.5 27.5zM290 514q16 0 27 11t11 28q0 15 -11.5 26.5t-26.5 11.5q-17 0 -28 -11t-11 -27q0 -17 11 -28t28 -11zM464 391q0 17 -11.5 28t-27.5 11t-27.5 -11.5t-11.5 -27.5t11 -27t28 -11q16 0 27.5 11t11.5 27zM453 273q16 0 27 11t11 28q0 16 -11 27
t-27 11t-27.5 -11t-11.5 -27q0 -17 11.5 -28t27.5 -11zM519 231q0 15 -11.5 27t-27.5 12t-27 -11.5t-11 -27.5t11 -27.5t27 -11.5t27.5 11.5t11.5 27.5zM547 150q0 16 -12 27.5t-27 11.5q-16 0 -27 -11t-11 -28q0 -16 11 -27t27 -11t27.5 11t11.5 27zM332 406l-53 -183h107z
M574 71q0 16 -11 27t-28 11q-15 0 -27 -11.5t-12 -26.5q0 -17 11.5 -28t27.5 -11q17 0 28 11t11 28zM423 108q16 0 27 11t11 28q0 16 -11 27.5t-27 11.5t-27.5 -11.5t-11.5 -27.5t11.5 -27.5t27.5 -11.5zM369 147q0 16 -11 27.5t-28 11.5q-16 0 -27.5 -11.5t-11.5 -27.5
t12 -27.5t27 -11.5q17 0 28 11t11 28zM279 147q0 16 -11.5 27.5t-27.5 11.5t-27 -11.5t-11 -27.5t11 -27.5t27 -11.5t27.5 11t11.5 28zM192 150q0 16 -12 27.5t-27 11.5q-16 0 -27.5 -11t-11.5 -28q0 -16 11.5 -27t27.5 -11t27.5 11t11.5 27zM164 71q0 15 -12 26.5t-27 11.5
q-17 0 -27.5 -11t-10.5 -27q0 -17 10.5 -28t27.5 -11q16 0 27.5 11t11.5 28zM302 473q0 15 -11.5 27t-27.5 12t-27 -11.5t-11 -27.5t11 -27.5t27 -11.5t27.5 11.5t11.5 27.5zM275 392q0 15 -11.5 27t-27.5 12t-27 -11.5t-11 -27.5t11 -27.5t27 -11.5t27.5 11.5t11.5 27.5z
M219 231q0 15 -11.5 27t-27.5 12t-27 -11.5t-11 -27.5t11 -27.5t27 -11.5t27.5 11.5t11.5 27.5zM247 312q0 15 -11.5 27t-27.5 12t-27 -11.5t-11 -27.5t11 -27.5t27 -11.5t27.5 11.5t11.5 27.5z" />
    <glyph glyph-name="b" unicode="b" horiz-adv-x="515" 
d="M37 0v629h239q45 0 81.5 -12t62.5 -35.5t40.5 -57t14.5 -75.5q0 -79 -58 -122q29 -17 47.5 -52t18.5 -81q0 -94 -55 -144t-163 -50h-228zM245 152q23 0 37.5 13.5t14.5 36.5q0 50 -64 50h-13v-100h25zM220 392q40 0 55.5 10t15.5 36q0 28 -17.5 37.5t-53.5 9.5v-93z
M306 288q16 0 27 11t11 28q0 16 -11 27t-27 11q-17 0 -28 -11t-11 -27q0 -17 11 -28t28 -11zM263 81q0 16 -11 27.5t-28 11.5q-16 0 -27 -11.5t-11 -27.5q0 -17 11 -27.5t27 -10.5q17 0 28 10.5t11 27.5zM426 171q0 17 -11.5 27.5t-27.5 10.5q-17 0 -27.5 -10.5t-10.5 -27.5
q0 -16 10.5 -27.5t27.5 -11.5q16 0 27.5 11.5t11.5 27.5zM415 264q0 17 -11 27.5t-28 10.5q-15 0 -26.5 -11t-11.5 -27t11 -27.5t27 -11.5q17 0 28 11.5t11 27.5zM252 325q0 17 -11.5 28t-27.5 11q-17 0 -27.5 -11t-10.5 -28q0 -15 11 -27t27 -12t27.5 11.5t11.5 27.5z
M164 275q0 16 -11.5 27t-27.5 11t-27 -11t-11 -27q0 -17 11 -28t27 -11t27.5 11t11.5 28zM164 81q0 16 -11.5 27.5t-27.5 11.5t-27 -11.5t-11 -27.5q0 -17 11 -27.5t27 -10.5t27.5 10.5t11.5 27.5zM164 459q0 17 -11.5 28t-27.5 11t-27 -11t-11 -28q0 -16 11 -27t27 -11
t27.5 11t11.5 27zM350 543q0 16 -11 27.5t-27 11.5t-27.5 -11t-11.5 -28q0 -16 11.5 -27t27.5 -11q17 0 27.5 11t10.5 27zM164 553q0 16 -11.5 27t-27.5 11t-27 -11t-11 -27q0 -17 11 -28t27 -11t27.5 11t11.5 28zM409 394q0 17 -11.5 28t-27.5 11t-27 -10.5t-11 -27.5
q0 -16 11 -28t27 -12t27.5 12t11.5 27zM258 554q0 17 -11.5 28t-27.5 11t-27 -11t-11 -28q0 -16 11 -27t27 -11q15 0 27 11t12 27zM164 174q0 16 -11.5 27.5t-27.5 11.5t-27 -11.5t-11 -27.5t11 -27.5t27 -11.5t27.5 11.5t11.5 27.5zM164 367q0 16 -11.5 27.5t-27.5 11.5
t-27 -11.5t-11 -27.5t11 -27.5t27 -11.5t27.5 11.5t11.5 27.5zM380 444q16 0 27 12t11 27q0 16 -11 27.5t-27 11.5t-27.5 -11.5t-11.5 -27.5t11.5 -27.5t27.5 -11.5zM362 99q0 17 -11.5 28t-27.5 11q-17 0 -27.5 -11t-10.5 -28q0 -16 10.5 -27.5t27.5 -11.5q16 0 27.5 11.5
t11.5 27.5z" />
    <glyph glyph-name="c" unicode="c" horiz-adv-x="640" 
d="M632 152q-19 -36 -45 -66t-61 -51.5t-79 -34t-98 -12.5q-71 0 -130.5 24t-103 67.5t-67.5 103.5t-24 131q0 72 24 132t67.5 103.5t103 67.5t130.5 24q103 0 167 -35.5t102 -104.5l-136 -126q-39 89 -128 89q-32 0 -57.5 -11.5t-44.5 -31.5t-29 -47.5t-10 -59.5t10 -59
t28.5 -47t44.5 -31.5t58 -11.5q55 0 88 25.5t48 63.5zM551 486q0 16 -11.5 27t-27.5 11t-27 -11t-11 -27t11 -27.5t27 -11.5t27.5 11.5t11.5 27.5zM475 537q0 16 -11 27t-28 11q-16 0 -27.5 -11t-11.5 -27t11.5 -27.5t27.5 -11.5t27.5 12t11.5 27zM385 554q0 16 -11 27
t-28 11q-15 0 -27 -11.5t-12 -26.5q0 -17 11.5 -28t27.5 -11q17 0 28 11t11 28zM295 532q0 16 -11.5 27t-27.5 11q-17 0 -27.5 -11t-10.5 -27t10.5 -27.5t27.5 -11.5q15 0 27 12t12 27zM554 147q0 16 -11.5 27.5t-27.5 11.5t-27.5 -11.5t-11.5 -27.5t11.5 -27.5t27.5 -11.5
q15 0 27 12t12 27zM222 477q0 16 -11.5 27.5t-27.5 11.5t-27.5 -11.5t-11.5 -27.5t11.5 -27.5t27.5 -11.5q15 0 27 11.5t12 27.5zM438 55q16 0 27 11.5t11 27.5t-10.5 27.5t-27.5 11.5q-16 0 -27.5 -11.5t-11.5 -27.5t11.5 -27.5t27.5 -11.5zM173 403q0 17 -11.5 28
t-27.5 11t-27 -11t-11 -28q0 -15 11.5 -26.5t26.5 -11.5q16 0 27.5 11t11.5 27zM158 316q0 17 -11.5 27.5t-27.5 10.5q-17 0 -27.5 -10.5t-10.5 -27.5q0 -16 10.5 -27.5t27.5 -11.5q16 0 27.5 11.5t11.5 27.5zM385 76q0 16 -11 27t-28 11q-16 0 -27.5 -11t-11.5 -27
t11.5 -27.5t27.5 -11.5q17 0 28 11.5t11 27.5zM173 225q0 17 -11.5 28t-27.5 11t-27 -11t-11 -28q0 -15 11.5 -27t26.5 -12q16 0 27.5 11.5t11.5 27.5zM297 97q0 16 -11.5 27.5t-27.5 11.5q-17 0 -28 -11.5t-11 -27.5t11 -27t28 -11q15 0 27 11t12 27zM185 110q15 0 26.5 12
t11.5 27q0 16 -11 27t-27 11t-27.5 -11t-11.5 -27t11.5 -27.5t27.5 -11.5z" />
    <glyph glyph-name="d" unicode="d" horiz-adv-x="575" 
d="M37 0v631h174q69 0 131 -19.5t108 -58t73 -97t27 -136.5q0 -66 -20.5 -124.5t-62.5 -102t-106 -68.5t-150 -25h-174zM427 475q0 16 -11.5 27t-27.5 11t-27.5 -11t-11.5 -27t11.5 -27.5t27.5 -11.5q15 0 27 11.5t12 27.5zM318 491q16 0 27 12t11 27q0 16 -11 27.5
t-27 11.5t-27.5 -11.5t-11.5 -27.5t11.5 -27.5t27.5 -11.5zM437 362q16 0 27 11.5t11 27.5q0 17 -11 27.5t-27 10.5q-17 0 -28 -10.5t-11 -27.5q0 -16 11 -27.5t28 -11.5zM259 554q0 16 -11 27t-28 11q-15 0 -27 -11.5t-12 -26.5q0 -17 11.5 -28t27.5 -11q17 0 28 11t11 28z
M491 314q0 16 -11 27.5t-27 11.5t-27.5 -11t-11.5 -28q0 -16 11.5 -27t27.5 -11t27 11t11 27zM171 549q0 16 -10.5 27.5t-27.5 11.5q-16 0 -27.5 -11.5t-11.5 -27.5t11.5 -27t27.5 -11q17 0 27.5 11t10.5 27zM437 188q16 0 27 11.5t11 27.5q0 17 -11 27.5t-27 10.5
q-17 0 -28 -10.5t-11 -27.5q0 -16 11 -27.5t28 -11.5zM219 165q66 0 101 39t35 111q0 151 -136 151v-301zM133 418q17 0 27.5 11t10.5 28q0 16 -10.5 27.5t-27.5 11.5q-16 0 -27.5 -11.5t-11.5 -27.5q0 -17 11.5 -28t27.5 -11zM427 154q0 16 -11.5 27t-27.5 11t-27.5 -11
t-11.5 -27t11.5 -27.5t27.5 -11.5q15 0 27 12t12 27zM133 325q17 0 27.5 11.5t10.5 27.5q0 17 -10.5 27.5t-27.5 10.5q-16 0 -27.5 -10.5t-11.5 -27.5q0 -16 11.5 -27.5t27.5 -11.5zM356 98q0 16 -11 27.5t-27 11.5t-27.5 -11.5t-11.5 -27.5t11.5 -27t27.5 -11t27 11t11 27z
M171 271q0 16 -10.5 27.5t-27.5 11.5q-16 0 -27.5 -11.5t-11.5 -27.5t11.5 -27t27.5 -11q17 0 27.5 11t10.5 27zM133 140q17 0 27.5 11t10.5 28q0 16 -10.5 27.5t-27.5 11.5q-16 0 -27.5 -11.5t-11.5 -27.5q0 -17 11.5 -28t27.5 -11zM259 76q0 16 -11 27t-28 11
q-16 0 -27.5 -11t-11.5 -27t11.5 -27.5t27.5 -11.5q17 0 28 11.5t11 27.5zM133 47q17 0 27.5 11.5t10.5 27.5t-10.5 27t-27.5 11q-16 0 -27.5 -11t-11.5 -27t11.5 -27.5t27.5 -11.5z" />
    <glyph glyph-name="e" unicode="e" horiz-adv-x="444" 
d="M37 0v629h377v-159h-182v-73h182v-159h-182v-73h182v-165h-377zM357 549q0 16 -11.5 27.5t-27.5 11.5t-27 -11.5t-11 -27.5t11 -27t27 -11t27.5 11t11.5 27zM265 549q0 16 -11.5 27.5t-27.5 11.5q-17 0 -28 -11.5t-11 -27.5t11 -27t28 -11q16 0 27.5 11t11.5 27zM171 549
q0 16 -10.5 27.5t-27.5 11.5q-16 0 -27.5 -11.5t-11.5 -27.5t11.5 -27t27.5 -11q17 0 27.5 11t10.5 27zM357 318q0 16 -11.5 27t-27.5 11t-27 -11t-11 -27t11 -27.5t27 -11.5t27.5 11.5t11.5 27.5zM133 418q17 0 27.5 11t10.5 28q0 16 -10.5 27.5t-27.5 11.5
q-16 0 -27.5 -11.5t-11.5 -27.5q0 -17 11.5 -28t27.5 -11zM265 318q0 16 -11.5 27t-27.5 11q-17 0 -28 -11t-11 -27t11 -27.5t28 -11.5q16 0 27.5 11.5t11.5 27.5zM133 325q17 0 27.5 11.5t10.5 27.5q0 17 -10.5 27.5t-27.5 10.5q-16 0 -27.5 -10.5t-11.5 -27.5
q0 -16 11.5 -27.5t27.5 -11.5zM171 271q0 16 -10.5 27.5t-27.5 11.5q-16 0 -27.5 -11.5t-11.5 -27.5t11.5 -27t27.5 -11q17 0 27.5 11t10.5 27zM357 86q0 16 -11.5 27t-27.5 11t-27 -11t-11 -27t11 -27.5t27 -11.5t27.5 11.5t11.5 27.5zM133 140q17 0 27.5 11t10.5 28
q0 16 -10.5 27.5t-27.5 11.5q-16 0 -27.5 -11.5t-11.5 -27.5q0 -17 11.5 -28t27.5 -11zM265 86q0 16 -11.5 27t-27.5 11q-17 0 -28 -11t-11 -27t11 -27.5t28 -11.5q16 0 27.5 11.5t11.5 27.5zM133 47q17 0 27.5 11.5t10.5 27.5t-10.5 27t-27.5 11q-16 0 -27.5 -11t-11.5 -27
t11.5 -27.5t27.5 -11.5z" />
    <glyph glyph-name="f" unicode="f" horiz-adv-x="433" 
d="M37 0v629h377v-159h-182v-73h182v-159h-182v-238h-195zM357 549q0 16 -11.5 27.5t-27.5 11.5t-27 -11.5t-11 -27.5t11 -27t27 -11t27.5 11t11.5 27zM265 549q0 16 -11.5 27.5t-27.5 11.5q-17 0 -28 -11.5t-11 -27.5t11 -27t28 -11q16 0 27.5 11t11.5 27zM171 549
q0 16 -10.5 27.5t-27.5 11.5q-16 0 -27.5 -11.5t-11.5 -27.5t11.5 -27t27.5 -11q17 0 27.5 11t10.5 27zM357 318q0 16 -11.5 27t-27.5 11t-27 -11t-11 -27t11 -27.5t27 -11.5t27.5 11.5t11.5 27.5zM133 418q17 0 27.5 11t10.5 28q0 16 -10.5 27.5t-27.5 11.5
q-16 0 -27.5 -11.5t-11.5 -27.5q0 -17 11.5 -28t27.5 -11zM265 318q0 16 -11.5 27t-27.5 11q-17 0 -28 -11t-11 -27t11 -27.5t28 -11.5q16 0 27.5 11.5t11.5 27.5zM133 325q17 0 27.5 11.5t10.5 27.5q0 17 -10.5 27.5t-27.5 10.5q-16 0 -27.5 -10.5t-11.5 -27.5
q0 -16 11.5 -27.5t27.5 -11.5zM171 271q0 16 -10.5 27.5t-27.5 11.5q-16 0 -27.5 -11.5t-11.5 -27.5t11.5 -27t27.5 -11q17 0 27.5 11t10.5 27zM133 140q17 0 27.5 11t10.5 28q0 16 -10.5 27.5t-27.5 11.5q-16 0 -27.5 -11.5t-11.5 -27.5q0 -17 11.5 -28t27.5 -11zM133 47
q17 0 27.5 11.5t10.5 27.5t-10.5 27t-27.5 11q-16 0 -27.5 -11t-11.5 -27t11.5 -27.5t27.5 -11.5z" />
    <glyph glyph-name="g" unicode="g" horiz-adv-x="706" 
d="M339 218v158h340q2 -17 3 -33.5t1 -33.5q0 -57 -16 -109t-55 -100q-45 -54 -111 -83t-144 -29q-72 0 -132.5 24t-104.5 67t-68.5 103t-24.5 132q0 70 25 130t69 104t105.5 68.5t133.5 24.5q57 0 100 -9.5t75 -28t55.5 -45.5t42.5 -61l-137 -106q-23 40 -53 58t-85 18
q-29 0 -53.5 -10.5t-43 -30t-29 -48t-10.5 -64.5q0 -31 9.5 -58.5t27.5 -48.5t44 -33t58 -12q68 0 110 56h-132zM563 488q0 16 -11.5 27.5t-27.5 11.5t-27 -11.5t-11 -27.5t11 -27.5t27 -11.5q15 0 27 11.5t12 27.5zM484 538q0 16 -11 27t-28 11q-16 0 -27 -11t-11 -27
t11 -27.5t27 -11.5t27.5 11.5t11.5 27.5zM354 513q17 0 27.5 11t10.5 28q0 16 -10.5 27.5t-27.5 11.5q-16 0 -27.5 -12t-11.5 -27q0 -17 11.5 -28t27.5 -11zM624 297q0 16 -11.5 27.5t-27.5 11.5t-27 -11t-11 -28q0 -16 11 -27t27 -11q17 0 28 11t11 27zM539 297
q0 16 -11.5 27.5t-26.5 11.5q-16 0 -27.5 -11t-11.5 -28q0 -16 11.5 -27t27.5 -11t27 11t11 27zM306 530q0 16 -11.5 27.5t-27.5 11.5q-17 0 -28 -11.5t-11 -27.5t11 -27.5t28 -11.5q15 0 27 12t12 27zM605 213q0 16 -11 27.5t-28 11.5q-16 0 -27 -11.5t-11 -27.5t11 -27
t27 -11q17 0 28 11t11 27zM454 297q0 16 -11.5 27.5t-26.5 11.5q-16 0 -27.5 -11t-11.5 -28q0 -16 11.5 -27t27.5 -11t27 11t11 27zM233 475q0 16 -11.5 27t-27.5 11t-27.5 -11t-11.5 -27t11.5 -27.5t27.5 -11.5q15 0 27 11.5t12 27.5zM553 142q0 17 -11.5 28t-27.5 11
q-17 0 -28 -11t-11 -28q0 -16 11 -27.5t28 -11.5q15 0 27 12t12 27zM183 401q0 17 -11.5 27.5t-27.5 10.5t-27 -10.5t-11 -27.5q0 -15 11.5 -27t26.5 -12q16 0 27.5 11.5t11.5 27.5zM444 53q15 0 26.5 11.5t11.5 27.5q0 17 -11 27.5t-27 10.5t-27.5 -10.5t-11.5 -27.5
q0 -16 11.5 -27.5t27.5 -11.5zM168 314q0 17 -11.5 28t-27.5 11q-17 0 -27.5 -11t-10.5 -28q0 -16 10.5 -27t27.5 -11q16 0 27.5 11t11.5 27zM353 37q17 0 27.5 11.5t10.5 27.5t-10.5 27t-27.5 11q-16 0 -27.5 -11t-11.5 -27t11.5 -27.5t27.5 -11.5zM183 227
q0 17 -11.5 27.5t-27.5 10.5t-27 -10.5t-11 -27.5q0 -15 11.5 -27t26.5 -12q16 0 27.5 11.5t11.5 27.5zM303 98q0 16 -11 27.5t-27 11.5q-17 0 -28 -11.5t-11 -27.5t11 -27t28 -11q15 0 26.5 11t11.5 27zM233 154q0 16 -11.5 27t-27.5 11t-27.5 -11t-11.5 -27t11.5 -27.5
t27.5 -11.5q15 0 27 12t12 27z" />
    <glyph glyph-name="h" unicode="h" horiz-adv-x="606" 
d="M374 0v237h-142v-237h-195v629h195v-228h142v228h195v-629h-195zM512 549q0 16 -11 27.5t-27 11.5t-27.5 -11.5t-11.5 -27.5t11.5 -27t27.5 -11t27 11t11 27zM474 418q16 0 27 11t11 28q0 16 -11 27.5t-27 11.5t-27.5 -11.5t-11.5 -27.5q0 -17 11.5 -28t27.5 -11z
M474 325q16 0 27 11.5t11 27.5q0 17 -11 27.5t-27 10.5t-27.5 -10.5t-11.5 -27.5q0 -16 11.5 -27.5t27.5 -11.5zM512 271q0 16 -11 27.5t-27 11.5t-27.5 -11.5t-11.5 -27.5t11.5 -27t27.5 -11t27 11t11 27zM395 282q17 0 27.5 11t10.5 28q0 16 -10.5 27.5t-27.5 11.5
q-16 0 -27.5 -11.5t-11.5 -27.5q0 -17 11.5 -28t27.5 -11zM172 549q0 16 -11 27.5t-27 11.5t-27.5 -11.5t-11.5 -27.5t11.5 -27t27.5 -11t27 11t11 27zM474 140q16 0 27 11t11 28q0 16 -11 27.5t-27 11.5t-27.5 -11.5t-11.5 -27.5q0 -17 11.5 -28t27.5 -11zM344 321
q0 16 -11.5 27.5t-27.5 11.5t-27.5 -11.5t-11.5 -27.5q0 -17 11.5 -28t27.5 -11t27.5 11t11.5 28zM134 418q16 0 27 11t11 28q0 16 -11 27.5t-27 11.5t-27.5 -11.5t-11.5 -27.5q0 -17 11.5 -28t27.5 -11zM474 47q16 0 27 11.5t11 27.5t-11 27t-27 11t-27.5 -11t-11.5 -27
t11.5 -27.5t27.5 -11.5zM217 282q16 0 27 11t11 28q0 16 -11 27.5t-27 11.5q-17 0 -28 -11.5t-11 -27.5q0 -17 11 -28t28 -11zM134 325q16 0 27 11.5t11 27.5q0 17 -11 27.5t-27 10.5t-27.5 -10.5t-11.5 -27.5q0 -16 11.5 -27.5t27.5 -11.5zM172 271q0 16 -11 27.5t-27 11.5
t-27.5 -11.5t-11.5 -27.5t11.5 -27t27.5 -11t27 11t11 27zM134 140q16 0 27 11t11 28q0 16 -11 27.5t-27 11.5t-27.5 -11.5t-11.5 -27.5q0 -17 11.5 -28t27.5 -11zM134 47q16 0 27 11.5t11 27.5t-11 27t-27 11t-27.5 -11t-11.5 -27t11.5 -27.5t27.5 -11.5z" />
    <glyph glyph-name="i" unicode="i" horiz-adv-x="271" 
d="M37 0v629h197v-629h-197zM171 549q0 16 -10.5 27.5t-27.5 11.5q-16 0 -27.5 -11.5t-11.5 -27.5t11.5 -27t27.5 -11q17 0 27.5 11t10.5 27zM133 418q17 0 27.5 11t10.5 28q0 16 -10.5 27.5t-27.5 11.5q-16 0 -27.5 -11.5t-11.5 -27.5q0 -17 11.5 -28t27.5 -11zM133 325
q17 0 27.5 11.5t10.5 27.5q0 17 -10.5 27.5t-27.5 10.5q-16 0 -27.5 -10.5t-11.5 -27.5q0 -16 11.5 -27.5t27.5 -11.5zM171 271q0 16 -10.5 27.5t-27.5 11.5q-16 0 -27.5 -11.5t-11.5 -27.5t11.5 -27t27.5 -11q17 0 27.5 11t10.5 27zM133 140q17 0 27.5 11t10.5 28
q0 16 -10.5 27.5t-27.5 11.5q-16 0 -27.5 -11.5t-11.5 -27.5q0 -17 11.5 -28t27.5 -11zM133 47q17 0 27.5 11.5t10.5 27.5t-10.5 27t-27.5 11q-16 0 -27.5 -11t-11.5 -27t11.5 -27.5t27.5 -11.5z" />
    <glyph glyph-name="j" unicode="j" horiz-adv-x="385" 
d="M15 165q30 -7 46 -8t26 -1q24 0 38 6.5t21.5 18.5t9.5 29.5t2 38.5v380h195v-389q0 -123 -58 -187.5t-167 -64.5q-38 0 -66.5 4t-46.5 9v164zM300 549q0 16 -11.5 27.5t-27.5 11.5t-27 -11.5t-11 -27.5t11 -27t27 -11t27.5 11t11.5 27zM300 457q0 16 -11.5 27.5
t-27.5 11.5t-27 -11.5t-11 -27.5q0 -17 11 -28t27 -11t27.5 11t11.5 28zM300 364q0 17 -11.5 27.5t-27.5 10.5t-27 -10.5t-11 -27.5q0 -16 11 -27.5t27 -11.5t27.5 11.5t11.5 27.5zM300 271q0 16 -11.5 27.5t-27.5 11.5t-27 -11.5t-11 -27.5t11 -27t27 -11t27.5 11t11.5 27z
M285 179q0 16 -11.5 27.5t-27.5 11.5q-17 0 -28 -11.5t-11 -27.5q0 -17 11 -28t28 -11q16 0 27.5 11t11.5 28zM238 102q0 16 -11 27t-28 11q-16 0 -27.5 -11t-11.5 -27q0 -17 11.5 -28t27.5 -11q17 0 28 11t11 28zM107 39q16 0 27 11.5t11 27.5t-11 27.5t-27 11.5
t-27.5 -11.5t-11.5 -27.5t11.5 -27.5t27.5 -11.5z" />
    <glyph glyph-name="k" unicode="k" horiz-adv-x="520" 
d="M297 0l-65 148v-148h-195v629h195v-126l57 126h219l-170 -296l176 -333h-217zM409 558q0 16 -11.5 27t-27.5 11q-17 0 -27.5 -10.5t-10.5 -27.5q0 -16 10.5 -27.5t27.5 -11.5q16 0 27.5 11.5t11.5 27.5zM357 478q0 16 -11.5 27.5t-27.5 11.5t-27 -11.5t-11 -27.5
q0 -17 11 -28t27 -11t27.5 11.5t11.5 27.5zM171 549q0 16 -10.5 27.5t-27.5 11.5q-16 0 -27.5 -11.5t-11.5 -27.5t11.5 -27t27.5 -11q17 0 27.5 11t10.5 27zM270 363q16 0 27 11.5t11 27.5q0 17 -11 27.5t-27 10.5t-27.5 -10.5t-11.5 -27.5q0 -16 11.5 -27.5t27.5 -11.5z
M133 418q17 0 27.5 11t10.5 28q0 16 -10.5 27.5t-27.5 11.5q-16 0 -27.5 -11.5t-11.5 -27.5q0 -17 11.5 -28t27.5 -11zM259 321q0 16 -11 27.5t-28 11.5q-16 0 -27.5 -11.5t-11.5 -27.5q0 -17 11.5 -28t27.5 -11q17 0 28 11t11 28zM276 200q16 0 27 11.5t11 27.5
q0 17 -11 27.5t-27 10.5q-17 0 -28 -10.5t-11 -27.5q0 -16 11 -27.5t28 -11.5zM133 325q17 0 27.5 11.5t10.5 27.5q0 17 -10.5 27.5t-27.5 10.5q-16 0 -27.5 -10.5t-11.5 -27.5q0 -16 11.5 -27.5t27.5 -11.5zM362 156q0 16 -11.5 27.5t-27.5 11.5q-17 0 -27.5 -11.5
t-10.5 -27.5t10.5 -27t27.5 -11q16 0 27.5 11t11.5 27zM407 76q0 16 -11.5 27t-27.5 11t-27.5 -11t-11.5 -27t11.5 -27.5t27.5 -11.5t27.5 11.5t11.5 27.5zM171 271q0 16 -10.5 27.5t-27.5 11.5q-16 0 -27.5 -11.5t-11.5 -27.5t11.5 -27t27.5 -11q17 0 27.5 11t10.5 27z
M133 140q17 0 27.5 11t10.5 28q0 16 -10.5 27.5t-27.5 11.5q-16 0 -27.5 -11.5t-11.5 -27.5q0 -17 11.5 -28t27.5 -11zM133 47q17 0 27.5 11.5t10.5 27.5t-10.5 27t-27.5 11q-16 0 -27.5 -11t-11.5 -27t11.5 -27.5t27.5 -11.5z" />
    <glyph glyph-name="l" unicode="l" horiz-adv-x="396" 
d="M37 0v629h195v-464h149v-165h-344zM171 549q0 16 -10.5 27.5t-27.5 11.5q-16 0 -27.5 -11.5t-11.5 -27.5t11.5 -27t27.5 -11q17 0 27.5 11t10.5 27zM133 418q17 0 27.5 11t10.5 28q0 16 -10.5 27.5t-27.5 11.5q-16 0 -27.5 -11.5t-11.5 -27.5q0 -17 11.5 -28t27.5 -11z
M133 325q17 0 27.5 11.5t10.5 27.5q0 17 -10.5 27.5t-27.5 10.5q-16 0 -27.5 -10.5t-11.5 -27.5q0 -16 11.5 -27.5t27.5 -11.5zM171 271q0 16 -10.5 27.5t-27.5 11.5q-16 0 -27.5 -11.5t-11.5 -27.5t11.5 -27t27.5 -11q17 0 27.5 11t10.5 27zM357 86q0 16 -11.5 27t-27.5 11
t-27 -11t-11 -27t11 -27.5t27 -11.5t27.5 11.5t11.5 27.5zM133 140q17 0 27.5 11t10.5 28q0 16 -10.5 27.5t-27.5 11.5q-16 0 -27.5 -11.5t-11.5 -27.5q0 -17 11.5 -28t27.5 -11zM265 86q0 16 -11.5 27t-27.5 11q-17 0 -28 -11t-11 -27t11 -27.5t28 -11.5q16 0 27.5 11.5
t11.5 27.5zM133 47q17 0 27.5 11.5t10.5 27.5t-10.5 27t-27.5 11q-16 0 -27.5 -11t-11.5 -27t11.5 -27.5t27.5 -11.5z" />
    <glyph glyph-name="m" unicode="m" horiz-adv-x="772" 
d="M554 0v321l-169 -364l-167 362v-319h-183v629h221l130 -287l137 287h214v-629h-183zM680 549q0 16 -11.5 27.5t-27.5 11.5q-17 0 -28 -11.5t-11 -27.5t11 -27t28 -11q16 0 27.5 11t11.5 27zM680 457q0 16 -11.5 27.5t-27.5 11.5q-17 0 -28 -11.5t-11 -27.5q0 -17 11 -28
t28 -11q16 0 27.5 11t11.5 28zM554 465q16 0 27 11.5t11 27.5t-11 27.5t-27 11.5q-17 0 -28 -11.5t-11 -27.5t11 -27.5t28 -11.5zM680 364q0 17 -11.5 27.5t-27.5 10.5q-17 0 -28 -10.5t-11 -27.5q0 -16 11 -27.5t28 -11.5q16 0 27.5 11.5t11.5 27.5zM553 420
q0 16 -11.5 27.5t-27.5 11.5q-17 0 -28 -11.5t-11 -27.5q0 -17 11 -28t28 -11q16 0 27.5 11t11.5 28zM680 271q0 16 -11.5 27.5t-27.5 11.5q-17 0 -28 -11.5t-11 -27.5t11 -27t28 -11q16 0 27.5 11t11.5 27zM680 179q0 16 -11.5 27.5t-27.5 11.5q-17 0 -28 -11.5t-11 -27.5
q0 -17 11 -28t28 -11q16 0 27.5 11t11.5 28zM513 335q0 17 -11 28t-27 11t-27.5 -11t-11.5 -28q0 -15 11.5 -26.5t27.5 -11.5t27 11t11 27zM680 86q0 16 -11.5 27t-27.5 11q-17 0 -28 -11t-11 -27t11 -27.5t28 -11.5q16 0 27.5 11.5t11.5 27.5zM257 504q0 16 -11 27.5
t-28 11.5q-16 0 -27 -11.5t-11 -27.5t11 -27.5t27 -11.5q17 0 28 11.5t11 27.5zM475 252q0 15 -12 27t-27 12q-16 0 -27.5 -11.5t-11.5 -27.5t11.5 -27.5t27.5 -11.5t27.5 11.5t11.5 27.5zM170 549q0 16 -11 27.5t-28 11.5q-16 0 -27.5 -11.5t-11.5 -27.5t11.5 -27t27.5 -11
q17 0 28 11t11 27zM297 420q0 16 -11 27.5t-28 11.5q-16 0 -27.5 -11.5t-11.5 -27.5q0 -17 11.5 -28t27.5 -11q17 0 28 11t11 28zM336 335q0 17 -11 28t-28 11q-16 0 -27 -11t-11 -28q0 -16 11 -27t27 -11t27.5 11.5t11.5 26.5zM375 252q0 16 -11 27.5t-28 11.5
q-15 0 -27 -12t-12 -27q0 -16 11.5 -27.5t27.5 -11.5q17 0 28 11.5t11 27.5zM170 457q0 16 -11 27.5t-28 11.5q-16 0 -27.5 -11.5t-11.5 -27.5q0 -17 11.5 -28t27.5 -11q17 0 28 11t11 28zM422 168q0 16 -11 27.5t-28 11.5q-16 0 -27.5 -11.5t-11.5 -27.5q0 -17 11.5 -28
t27.5 -11q17 0 28 11t11 28zM170 364q0 17 -11 27.5t-28 10.5q-16 0 -27.5 -10.5t-11.5 -27.5q0 -16 11.5 -27.5t27.5 -11.5q17 0 28 11.5t11 27.5zM170 271q0 16 -11 27.5t-28 11.5q-16 0 -27.5 -11.5t-11.5 -27.5t11.5 -27t27.5 -11q17 0 28 11t11 27zM170 179
q0 16 -11 27.5t-28 11.5q-16 0 -27.5 -11.5t-11.5 -27.5q0 -17 11.5 -28t27.5 -11q17 0 28 11t11 28zM170 86q0 16 -11 27t-28 11q-16 0 -27.5 -11t-11.5 -27t11.5 -27.5t27.5 -11.5q17 0 28 11.5t11 27.5z" />
    <glyph glyph-name="n" unicode="n" horiz-adv-x="649" 
d="M433 0l-203 302v-302h-193v629h194l190 -315v315h191v-629h-179zM558 549q0 16 -11 27.5t-28 11.5q-16 0 -27.5 -11.5t-11.5 -27.5t11.5 -27t27.5 -11q17 0 28 11t11 27zM558 457q0 16 -11 27.5t-28 11.5q-16 0 -27.5 -11.5t-11.5 -27.5q0 -17 11.5 -28t27.5 -11
q17 0 28 11t11 28zM558 364q0 17 -11 27.5t-28 10.5q-16 0 -27.5 -10.5t-11.5 -27.5q0 -16 11.5 -27.5t27.5 -11.5q17 0 28 11.5t11 27.5zM558 271q0 16 -11 27.5t-28 11.5q-16 0 -27.5 -11.5t-11.5 -27.5t11.5 -27t27.5 -11q17 0 28 11t11 27zM213 454q16 0 27 11.5
t11 27.5t-11 27.5t-27 11.5t-27.5 -11.5t-11.5 -27.5q0 -15 11.5 -27t27.5 -12zM558 179q0 16 -11 27.5t-28 11.5q-16 0 -27.5 -11.5t-11.5 -27.5q0 -17 11.5 -28t27.5 -11q17 0 28 11t11 28zM171 549q0 16 -10.5 27.5t-27.5 11.5q-16 0 -27.5 -11.5t-11.5 -27.5t11.5 -27
t27.5 -11q17 0 27.5 11t10.5 27zM301 407q0 16 -11.5 27t-27.5 11t-27.5 -11t-11.5 -27t11.5 -27.5t27.5 -11.5t27.5 11.5t11.5 27.5zM358 321q0 15 -12 27t-27 12q-16 0 -27 -11.5t-11 -27.5q0 -17 11 -28t27 -11t27.5 11t11.5 28zM422 227q0 16 -11 27t-28 11
q-15 0 -27 -11.5t-12 -26.5q0 -17 11.5 -28t27.5 -11q17 0 28 11t11 28zM558 86q0 16 -11 27t-28 11q-16 0 -27.5 -11t-11.5 -27t11.5 -27.5t27.5 -11.5q17 0 28 11.5t11 27.5zM133 418q17 0 27.5 11t10.5 28q0 16 -10.5 27.5t-27.5 11.5q-16 0 -27.5 -11.5t-11.5 -27.5
q0 -17 11.5 -28t27.5 -11zM479 148q0 16 -11 27t-28 11q-16 0 -27 -11t-11 -27q0 -17 11 -28t27 -11t27.5 11.5t11.5 27.5zM133 325q17 0 27.5 11.5t10.5 27.5q0 17 -10.5 27.5t-27.5 10.5q-16 0 -27.5 -10.5t-11.5 -27.5q0 -16 11.5 -27.5t27.5 -11.5zM171 271
q0 16 -10.5 27.5t-27.5 11.5q-16 0 -27.5 -11.5t-11.5 -27.5t11.5 -27t27.5 -11q17 0 27.5 11t10.5 27zM133 140q17 0 27.5 11t10.5 28q0 16 -10.5 27.5t-27.5 11.5q-16 0 -27.5 -11.5t-11.5 -27.5q0 -17 11.5 -28t27.5 -11zM133 47q17 0 27.5 11.5t10.5 27.5t-10.5 27
t-27.5 11q-16 0 -27.5 -11t-11.5 -27t11.5 -27.5t27.5 -11.5z" />
    <glyph glyph-name="o" unicode="o" horiz-adv-x="716" 
d="M690 314q0 -71 -25.5 -130.5t-70 -103t-105.5 -68t-131 -24.5q-71 0 -131.5 24.5t-105 68t-70 103t-25.5 130.5q0 72 25 132t69.5 103.5t105.5 67.5t132 24q70 0 130.5 -24.5t105.5 -68t70.5 -103.5t25.5 -131zM358 515q17 0 27.5 11t10.5 28q0 16 -10.5 27t-27.5 11
q-15 0 -27 -11.5t-12 -26.5q0 -17 11.5 -28t27.5 -11zM302 530q0 16 -11.5 27.5t-27.5 11.5q-17 0 -28 -11.5t-11 -27.5t11 -27.5t28 -11.5q15 0 27 12t12 27zM358 165q61 0 99 38.5t38 110.5t-38 111t-99 39q-63 0 -100 -38.5t-37 -111.5q0 -72 37 -110.5t100 -38.5z
M225 480q0 16 -11.5 27.5t-27.5 11.5t-27 -11.5t-11 -27.5t11 -27t27 -11t27.5 11t11.5 27zM139 365q16 0 27 11.5t11 27.5q0 17 -11 28t-27 11t-27.5 -11t-11.5 -28q0 -15 11.5 -27t27.5 -12zM163 314q0 17 -11.5 28t-27.5 11q-17 0 -27.5 -11t-10.5 -28q0 -16 10.5 -27
t27.5 -11q16 0 27.5 11t11.5 27zM358 37q17 0 27.5 11.5t10.5 27.5t-10.5 27t-27.5 11q-16 0 -27.5 -11t-11.5 -27t11.5 -27.5t27.5 -11.5zM176 225q0 17 -11.5 28t-27.5 11t-27.5 -11t-11.5 -28q0 -15 12 -27t27 -12q16 0 27.5 11.5t11.5 27.5zM302 98q0 16 -11.5 27.5
t-27.5 11.5q-17 0 -28 -11.5t-11 -27.5t11 -27t28 -11q15 0 27 11t12 27zM225 148q0 16 -11.5 27t-27.5 11t-27 -11t-11 -27t11 -27.5t27 -11.5t27.5 12t11.5 27zM453 491q17 0 27.5 11.5t10.5 27.5t-10.5 27.5t-27.5 11.5q-16 0 -27.5 -11.5t-11.5 -27.5q0 -15 12 -27
t27 -12zM568 480q0 16 -11.5 27.5t-27.5 11.5t-27 -11.5t-11 -27.5t11.5 -27t26.5 -11q16 0 27.5 11t11.5 27zM616 404q0 17 -11.5 28t-27.5 11t-27.5 -11t-11.5 -28q0 -16 11.5 -27.5t27.5 -11.5q15 0 27 12t12 27zM630 314q0 17 -11 28t-28 11q-16 0 -27 -11t-11 -28
q0 -16 11 -27t27 -11q17 0 28 11t11 27zM579 186q15 0 26.5 12t11.5 27q0 17 -11 28t-27 11t-27.5 -11t-11.5 -28q0 -16 11.5 -27.5t27.5 -11.5zM491 98q0 16 -10.5 27.5t-27.5 11.5q-16 0 -27.5 -11.5t-11.5 -27.5t12 -27t27 -11q17 0 27.5 11t10.5 27zM568 148
q0 16 -11.5 27t-27.5 11t-27 -11t-11 -27q0 -15 11.5 -27t26.5 -12q16 0 27.5 11.5t11.5 27.5z" />
    <glyph glyph-name="p" unicode="p" horiz-adv-x="507" 
d="M37 0v629h229q51 0 93 -15t72 -43.5t46.5 -68.5t16.5 -91q0 -106 -59.5 -163.5t-174.5 -57.5h-28v-190h-195zM412 495q0 16 -11 27t-28 11q-16 0 -27.5 -11t-11.5 -27q0 -17 11.5 -28t27.5 -11t27.5 11.5t11.5 27.5zM343 546q0 15 -12 27t-27 12q-17 0 -28 -11.5
t-11 -27.5q0 -17 11 -28t28 -11q16 0 27.5 11t11.5 28zM431 414q0 16 -11 27.5t-28 11.5q-16 0 -27 -11t-11 -27t11 -28t27 -12t27.5 12t11.5 27zM258 551q0 16 -11 27t-28 11q-16 0 -27 -10.5t-11 -26.5t11 -27.5t27 -11.5t27.5 11.5t11.5 26.5zM421 331q0 16 -11 27.5
t-28 11.5q-15 0 -26.5 -12t-11.5 -27q0 -17 11 -28t27 -11q17 0 28 11t11 28zM171 549q0 16 -10.5 27.5t-27.5 11.5q-16 0 -27.5 -11.5t-11.5 -27.5t11.5 -27t27.5 -11q17 0 27.5 11t10.5 27zM232 354q37 1 51 16t14 43q0 29 -14 42.5t-51 13.5v-115zM346 284
q0 16 -11.5 27.5t-27.5 11.5t-27 -11.5t-11 -27.5t11.5 -27.5t26.5 -11.5q16 0 27.5 11t11.5 28zM133 418q17 0 27.5 11t10.5 28q0 16 -10.5 27.5t-27.5 11.5q-16 0 -27.5 -11.5t-11.5 -27.5q0 -17 11.5 -28t27.5 -11zM223 237q16 0 27 11t11 28q0 16 -11 27t-27 11
t-27.5 -11t-11.5 -27q0 -17 11.5 -28t27.5 -11zM133 325q17 0 27.5 11.5t10.5 27.5q0 17 -10.5 27.5t-27.5 10.5q-16 0 -27.5 -10.5t-11.5 -27.5q0 -16 11.5 -27.5t27.5 -11.5zM171 271q0 16 -10.5 27.5t-27.5 11.5q-16 0 -27.5 -11.5t-11.5 -27.5t11.5 -27t27.5 -11
q17 0 27.5 11t10.5 27zM133 140q17 0 27.5 11t10.5 28q0 16 -10.5 27.5t-27.5 11.5q-16 0 -27.5 -11.5t-11.5 -27.5q0 -17 11.5 -28t27.5 -11zM133 47q17 0 27.5 11.5t10.5 27.5t-10.5 27t-27.5 11q-16 0 -27.5 -11t-11.5 -27t11.5 -27.5t27.5 -11.5z" />
    <glyph glyph-name="q" unicode="q" horiz-adv-x="713" 
d="M534 35q-80 -47 -177 -47q-71 0 -131.5 24.5t-105 68t-70 103t-25.5 130.5q0 72 25 132t69.5 103.5t105.5 67.5t132 24q70 0 130.5 -24.5t105.5 -68t70.5 -103.5t25.5 -131q0 -103 -55 -185l46 -47l-95 -96zM521 436q15 0 26.5 11.5t11.5 27.5t-11 27t-27 11t-27.5 -11
t-11.5 -27t11.5 -27.5t27.5 -11.5zM489 530q0 16 -11 27.5t-28 11.5q-16 0 -27 -11.5t-11 -27.5t11 -27.5t27 -11.5t27.5 12t11.5 27zM570 362q16 0 27 11.5t11 27.5q0 17 -11 27.5t-27 10.5t-27.5 -10.5t-11.5 -27.5q0 -16 11.5 -27.5t27.5 -11.5zM353 515q17 0 27.5 11
t10.5 28q0 16 -10.5 27t-27.5 11q-15 0 -27 -11.5t-12 -26.5q0 -17 11.5 -28t27.5 -11zM624 314q0 16 -11.5 27.5t-27.5 11.5t-27 -11t-11 -28q0 -16 11 -27t27 -11q17 0 28 11t11 27zM570 188q16 0 27 11.5t11 27.5q0 17 -11 27.5t-27 10.5t-27.5 -10.5t-11.5 -27.5
q0 -16 11.5 -27.5t27.5 -11.5zM265 491q15 0 26.5 12t11.5 27q0 16 -11 27.5t-27 11.5q-17 0 -28 -11.5t-11 -27.5t11 -27.5t28 -11.5zM521 115q15 0 26.5 12t11.5 27q0 16 -11 27t-27 11t-27.5 -11t-11.5 -27t11.5 -27.5t27.5 -11.5zM496 218q0 16 -11.5 27t-27.5 11
t-27.5 -11.5t-11.5 -26.5q0 -17 11 -28t28 -11q16 0 27.5 11t11.5 28zM625 85q0 17 -11 27.5t-28 10.5q-16 0 -27 -10.5t-11 -27.5q0 -16 11 -27.5t27 -11.5t27.5 12t11.5 27zM357 211l99 99l34 -34q2 9 3 19t1 19q0 33 -10 60.5t-28 47.5t-43.5 31t-55.5 11t-55 -11
t-43.5 -31t-28.5 -47.5t-10 -60.5t10 -60t28.5 -47t43.5 -31t55 -11q23 0 41 6zM233 475q0 16 -11.5 27t-27.5 11t-27.5 -11t-11.5 -27t11.5 -27.5t27.5 -11.5q15 0 27 11.5t12 27.5zM489 98q0 16 -11 27.5t-28 11.5q-16 0 -27 -11.5t-11 -27.5t11 -27t27 -11t27.5 11
t11.5 27zM183 401q0 17 -11.5 27.5t-27.5 10.5t-27 -10.5t-11 -27.5q0 -15 11.5 -27t26.5 -12q16 0 27.5 11.5t11.5 27.5zM168 314q0 17 -11.5 28t-27.5 11q-17 0 -27.5 -11t-10.5 -28q0 -16 10.5 -27t27.5 -11q16 0 27.5 11t11.5 27zM353 37q17 0 27.5 11.5t10.5 27.5
t-10.5 27t-27.5 11q-16 0 -27.5 -11t-11.5 -27t11.5 -27.5t27.5 -11.5zM183 227q0 17 -11.5 27.5t-27.5 10.5t-27 -10.5t-11 -27.5q0 -15 11.5 -27t26.5 -12q16 0 27.5 11.5t11.5 27.5zM303 98q0 16 -11 27.5t-27 11.5q-17 0 -28 -11.5t-11 -27.5t11 -27t28 -11
q15 0 26.5 11t11.5 27zM233 154q0 16 -11.5 27t-27.5 11t-27.5 -11t-11.5 -27t11.5 -27.5t27.5 -11.5q15 0 27 12t12 27z" />
    <glyph glyph-name="r" unicode="r" horiz-adv-x="570" 
d="M323 0l-91 176v-176h-195v629h239q54 0 98.5 -15t76 -42t48.5 -66t17 -87q0 -66 -31 -111.5t-85 -61.5l159 -246h-236zM435 495q0 16 -11.5 27t-27.5 11t-27 -11t-11 -27q0 -17 11 -28t27 -11t27.5 11.5t11.5 27.5zM358 546q0 15 -12 27t-27 12q-16 0 -27 -11.5
t-11 -27.5q0 -17 11 -28t27 -11t27.5 11t11.5 28zM416 372q15 0 26.5 11.5t11.5 27.5t-11 27t-27 11t-27.5 -10.5t-11.5 -27.5q0 -16 11.5 -27.5t27.5 -11.5zM265 551q0 16 -10.5 27t-27.5 11q-16 0 -27.5 -10.5t-11.5 -26.5t11.5 -27.5t27.5 -11.5t27 11.5t11 26.5z
M381 289q16 0 27 11.5t11 27.5t-11 27t-27 11t-27.5 -11.5t-11.5 -26.5q0 -16 11 -27.5t28 -11.5zM253 354q65 0 65 59q0 56 -69 56h-17v-115h21zM171 549q0 16 -10.5 27.5t-27.5 11.5q-16 0 -27.5 -11.5t-11.5 -27.5t11.5 -27t27.5 -11q17 0 27.5 11t10.5 27zM133 418
q17 0 27.5 11t10.5 28q0 16 -10.5 27.5t-27.5 11.5q-16 0 -27.5 -11.5t-11.5 -27.5q0 -17 11.5 -28t27.5 -11zM346 276q0 17 -11.5 27.5t-27.5 10.5q-15 0 -26.5 -11t-11.5 -27t11 -27.5t27 -11.5t27.5 11.5t11.5 27.5zM383 179q0 17 -11 28t-28 11q-15 0 -26.5 -11.5
t-11.5 -27.5t11 -27.5t27 -11.5q17 0 28 11.5t11 27.5zM133 325q17 0 27.5 11.5t10.5 27.5q0 17 -10.5 27.5t-27.5 10.5q-16 0 -27.5 -10.5t-11.5 -27.5q0 -16 11.5 -27.5t27.5 -11.5zM217 237q16 0 27 11t11 28q0 16 -11 27t-27 11q-17 0 -28 -11t-11 -27q0 -17 11 -28
t28 -11zM430 84q0 17 -11.5 28t-27.5 11t-27 -11.5t-11 -27.5t10.5 -27.5t27.5 -11.5q16 0 27.5 11.5t11.5 27.5zM171 271q0 16 -10.5 27.5t-27.5 11.5q-16 0 -27.5 -11.5t-11.5 -27.5t11.5 -27t27.5 -11q17 0 27.5 11t10.5 27zM133 140q17 0 27.5 11t10.5 28
q0 16 -10.5 27.5t-27.5 11.5q-16 0 -27.5 -11.5t-11.5 -27.5q0 -17 11.5 -28t27.5 -11zM133 47q17 0 27.5 11.5t10.5 27.5t-10.5 27t-27.5 11q-16 0 -27.5 -11t-11.5 -27t11.5 -27.5t27.5 -11.5z" />
    <glyph glyph-name="s" unicode="s" horiz-adv-x="517" 
d="M386 533q0 16 -10.5 28t-26.5 12q-17 0 -28.5 -12t-11.5 -28t11.5 -27t27.5 -11t27 10.5t11 27.5zM255 523q16 0 27 11.5t11 27.5q0 17 -11 28t-27 11q-17 0 -28 -11t-11 -28q0 -15 11.5 -27t27.5 -12zM199 533q0 16 -11.5 27t-27.5 11t-27 -11t-11 -27t11.5 -27.5
t26.5 -11.5q16 0 27.5 11.5t11.5 27.5zM383 277q0 15 -11.5 27t-27.5 12t-27 -11.5t-11 -27.5t11 -27t27 -11t27.5 11t11.5 27zM432 195q0 16 -11.5 27.5t-27.5 11.5t-27.5 -11.5t-11.5 -27.5t11.5 -27.5t27.5 -11.5q15 0 27 12t12 27zM260 279q15 0 26.5 11.5t11.5 27.5
t-11 27t-27 11t-27.5 -11t-11.5 -27t11.5 -27.5t27.5 -11.5zM123 404q17 0 27.5 11.5t10.5 27.5t-10.5 27t-27.5 11q-16 0 -27.5 -11t-11.5 -27t11.5 -27.5t27.5 -11.5zM171 324q17 0 27.5 11.5t10.5 27.5q0 17 -10.5 28t-27.5 11q-16 0 -27.5 -11t-11.5 -28
q0 -16 11.5 -27.5t27.5 -11.5zM349 67q16 0 26.5 11.5t10.5 27.5q0 17 -10.5 27.5t-27.5 10.5q-15 0 -27 -11t-12 -27t12 -27.5t28 -11.5zM258 40q16 0 27 11t11 28q0 16 -11.5 27.5t-27.5 11.5t-27.5 -12t-11.5 -27q0 -17 11.5 -28t28.5 -11zM200 115q0 17 -11.5 28
t-27.5 11t-27 -11.5t-11 -27.5q0 -15 10.5 -27t26.5 -12t28 11.5t12 27.5zM302 429q-4 22 -14.5 40.5t-37.5 18.5q-16 0 -27 -8.5t-11 -23.5q0 -14 8.5 -23t20.5 -15t25.5 -10t24.5 -7q34 -11 69.5 -25.5t62.5 -37.5q32 -28 50 -64t18 -76q0 -52 -19 -91.5t-52 -65.5
t-76 -39.5t-91 -13.5q-39 0 -76 9t-67 28.5t-50 50t-26 73.5l171 54q0 -24 16 -36.5t39 -12.5q16 0 28.5 7t12.5 25q0 10 -8.5 18t-20.5 14t-25.5 11t-23.5 10q-39 16 -75.5 31t-65.5 44q-25 24 -39.5 57.5t-14.5 68.5q0 49 17.5 86.5t48 63t70.5 38.5t85 13q39 0 74.5 -7.5
t64.5 -25.5t49 -46.5t28 -70.5z" />
    <glyph glyph-name="t" unicode="t" horiz-adv-x="556" 
d="M181 0v465h-164v164h522v-164h-164v-465h-194zM504 549q0 16 -11.5 27.5t-27.5 11.5q-17 0 -27.5 -11.5t-10.5 -27.5t10.5 -27t27.5 -11q16 0 27.5 11t11.5 27zM411 549q0 16 -11.5 27.5t-27.5 11.5t-27.5 -11.5t-11.5 -27.5t11.5 -27t27.5 -11t27.5 11t11.5 27zM318 549
q0 16 -11 27.5t-27 11.5q-17 0 -28 -11.5t-11 -27.5t11 -27t28 -11q16 0 27 11t11 27zM225 549q0 16 -11 27.5t-28 11.5q-16 0 -27 -11.5t-11 -27.5t11 -27t27 -11q17 0 28 11t11 27zM280 418q16 0 27 11t11 28q0 16 -11 27.5t-27 11.5q-17 0 -28 -11.5t-11 -27.5
q0 -17 11 -28t28 -11zM133 549q0 16 -11.5 27.5t-27.5 11.5t-27.5 -11.5t-11.5 -27.5t11.5 -27t27.5 -11t27.5 11t11.5 27zM280 325q16 0 27 11.5t11 27.5q0 17 -11 27.5t-27 10.5q-17 0 -28 -10.5t-11 -27.5q0 -16 11 -27.5t28 -11.5zM318 271q0 16 -11 27.5t-27 11.5
q-17 0 -28 -11.5t-11 -27.5t11 -27t28 -11q16 0 27 11t11 27zM280 140q16 0 27 11t11 28q0 16 -11 27.5t-27 11.5q-17 0 -28 -11.5t-11 -27.5q0 -17 11 -28t28 -11zM280 47q16 0 27 11.5t11 27.5t-11 27t-27 11q-17 0 -28 -11t-11 -27t11 -27.5t28 -11.5z" />
    <glyph glyph-name="u" unicode="u" 
d="M365 629h194v-397q0 -57 -18.5 -102.5t-52.5 -77t-82.5 -48t-109.5 -16.5q-60 0 -109 16.5t-83 48t-52.5 77t-18.5 102.5v397h195v-380q0 -45 15.5 -65t52.5 -20q38 0 53.5 20t15.5 65v380zM504 549q0 16 -11.5 27.5t-27.5 11.5q-17 0 -27.5 -11.5t-10.5 -27.5t10.5 -27
t27.5 -11q16 0 27.5 11t11.5 27zM504 457q0 16 -11.5 27.5t-27.5 11.5q-17 0 -27.5 -11.5t-10.5 -27.5q0 -17 10.5 -28t27.5 -11q16 0 27.5 11t11.5 28zM504 364q0 17 -11.5 27.5t-27.5 10.5q-17 0 -27.5 -10.5t-10.5 -27.5q0 -16 10.5 -27.5t27.5 -11.5q16 0 27.5 11.5
t11.5 27.5zM504 271q0 16 -11.5 27.5t-27.5 11.5q-17 0 -27.5 -11.5t-10.5 -27.5t10.5 -27t27.5 -11q16 0 27.5 11t11.5 27zM163 549q0 16 -11.5 27.5t-27.5 11.5t-27 -11.5t-11 -27.5t11 -27t27 -11t27.5 11t11.5 27zM443 140q16 0 27 11t11 28q0 16 -11 27.5t-27 11.5
t-27.5 -11.5t-11.5 -27.5q0 -17 11.5 -28t27.5 -11zM163 457q0 16 -11.5 27.5t-27.5 11.5t-27 -11.5t-11 -27.5q0 -17 11 -28t27 -11t27.5 11t11.5 28zM423 103q0 17 -11 28t-27 11t-27.5 -11t-11.5 -28q0 -16 11.5 -27t27.5 -11t27 11t11 27zM163 364q0 17 -11.5 27.5
t-27.5 10.5t-27 -10.5t-11 -27.5q0 -16 11 -27.5t27 -11.5t27.5 11.5t11.5 27.5zM163 271q0 16 -11.5 27.5t-27.5 11.5t-27 -11.5t-11 -27.5t11 -27t27 -11t27.5 11t11.5 27zM337 80q0 15 -12 26.5t-27 11.5q-16 0 -27 -11t-11 -27q0 -17 11 -28t27 -11t27.5 11t11.5 28z
M186 179q0 16 -11.5 27.5t-27.5 11.5q-17 0 -28 -11.5t-11 -27.5q0 -17 11 -28t28 -11q16 0 27.5 11t11.5 28zM244 103q0 17 -11.5 28t-27.5 11q-17 0 -28 -11t-11 -28q0 -16 11 -27t28 -11q15 0 27 11.5t12 26.5z" />
    <glyph glyph-name="v" unicode="v" horiz-adv-x="586" 
d="M205 0l-199 629h208l83 -338l84 338h199l-199 -629h-176zM504 559q0 16 -11.5 27t-27.5 11q-17 0 -27.5 -11t-10.5 -27t10.5 -27.5t27.5 -11.5q16 0 27.5 11.5t11.5 27.5zM438 439q17 0 27.5 11.5t10.5 27.5q0 17 -10.5 28t-27.5 11q-16 0 -27.5 -11t-11.5 -28
q0 -16 11.5 -27.5t27.5 -11.5zM449 398q0 16 -10.5 27.5t-27.5 11.5q-16 0 -27.5 -11.5t-11.5 -27.5t12 -27t27 -11q17 0 27.5 10.5t10.5 27.5zM425 318q0 16 -11.5 27t-27.5 11q-17 0 -27.5 -11t-10.5 -27t11 -27.5t27 -11.5t27.5 11.5t11.5 27.5zM168 559q0 16 -11 27
t-28 11q-16 0 -27 -11t-11 -27t11 -27.5t27 -11.5q17 0 28 11.5t11 27.5zM196 478q0 17 -11.5 28t-27.5 11q-17 0 -28 -11t-11 -28q0 -16 11 -27.5t28 -11.5q15 0 27 12t12 27zM400 237q0 17 -11 28t-28 11q-16 0 -27 -11t-11 -28q0 -16 11 -27.5t27 -11.5t27.5 12t11.5 27z
M223 398q0 16 -11.5 27.5t-27.5 11.5q-17 0 -28 -11.5t-11 -27.5q0 -17 11 -27.5t28 -10.5q15 0 27 11t12 27zM246 318q0 16 -11 27t-28 11q-16 0 -27 -11t-11 -27t11.5 -27.5t26.5 -11.5q17 0 28 11.5t11 27.5zM379 157q0 18 -13.5 29t-31.5 11q-14 0 -23 -12.5t-9 -27.5
q0 -17 10.5 -28t27.5 -11q15 0 27 11.5t12 27.5zM234 198q16 0 27 11.5t11 27.5q0 17 -11 28t-27 11q-17 0 -28 -11t-11 -28q0 -15 11.5 -27t27.5 -12zM255 118q17 0 27.5 11t10.5 28q0 15 -9 27.5t-24 12.5q-17 0 -30.5 -11t-13.5 -29q0 -17 11.5 -28t27.5 -11zM330 76
q0 16 -11.5 27.5t-27.5 11.5q-17 0 -27.5 -11.5t-10.5 -27.5t10.5 -27t27.5 -11q16 0 27.5 11.5t11.5 26.5z" />
    <glyph glyph-name="w" unicode="w" horiz-adv-x="927" 
d="M546 0l-80 305l-84 -305h-177l-199 629h208l83 -338l85 338h173l83 -338l84 338h199l-199 -629h-176zM425 318q0 16 -11.5 27t-27.5 11t-27 -11t-11 -27t11.5 -27.5t26.5 -11.5q16 0 27.5 11.5t11.5 27.5zM169 559q0 16 -11.5 27t-27.5 11q-17 0 -27.5 -11t-10.5 -27
t10.5 -27.5t27.5 -11.5q16 0 27.5 11.5t11.5 27.5zM194 478q0 17 -11.5 28t-27.5 11q-17 0 -28 -11t-11 -28q0 -16 11 -27.5t28 -11.5q15 0 27 12t12 27zM402 236q0 17 -11.5 28t-27.5 11q-17 0 -28 -11t-11 -28q0 -16 11 -27.5t28 -11.5q15 0 27 12t12 27zM219 398
q0 16 -11.5 27.5t-27.5 11.5t-27.5 -11.5t-11.5 -27.5q0 -17 11.5 -27.5t27.5 -10.5q15 0 27 11t12 27zM240 318q0 16 -11.5 27t-27.5 11q-17 0 -27.5 -11t-10.5 -27t11 -27.5t27 -11.5t27.5 11.5t11.5 27.5zM224 196q16 0 27 11.5t11 27.5q0 17 -11 28t-27 11t-27.5 -11
t-11.5 -28q0 -15 11.5 -27t27.5 -12zM333 80q0 16 -11.5 27.5t-27.5 11.5t-27 -11.5t-11 -27.5t11 -27t27 -11t27.5 11.5t11.5 26.5zM465 482q0 16 -10.5 27.5t-27.5 11.5q-16 0 -27.5 -11.5t-11.5 -27.5t12 -27t27 -11q17 0 27.5 11t10.5 27zM376 155q0 16 -11 27t-28 11
q-16 0 -27 -11t-11 -27t11 -27.5t27 -11.5q17 0 28 11.5t11 27.5zM289 155q0 16 -11 27t-28 11q-16 0 -27 -11t-11 -27t11 -27.5t27 -11.5q17 0 28 11.5t11 27.5zM446 399q0 16 -11 27t-28 11q-16 0 -27 -11t-11 -27t11 -27.5t27 -11.5q17 0 28 11.5t11 27.5zM429 559
q0 -16 11 -27.5t28 -11.5q16 0 27 11.5t11 27.5t-11 27t-27 11q-17 0 -28 -11t-11 -27zM510 318q0 -16 11.5 -27.5t27.5 -11.5q15 0 26.5 11.5t11.5 27.5t-11 27t-27 11t-27.5 -11t-11.5 -27zM766 559q0 -16 11.5 -27.5t27.5 -11.5q17 0 27.5 11.5t10.5 27.5t-10.5 27
t-27.5 11q-16 0 -27.5 -11t-11.5 -27zM741 478q0 -15 12 -27t27 -12q17 0 28 11.5t11 27.5q0 17 -11 28t-28 11q-16 0 -27.5 -11t-11.5 -28zM533 236q0 -15 12 -27t27 -12q17 0 28 11.5t11 27.5q0 17 -11 28t-28 11q-16 0 -27.5 -11t-11.5 -28zM716 398q0 -16 12 -27t27 -11
q16 0 27.5 10.5t11.5 27.5q0 16 -11.5 27.5t-27.5 11.5t-27.5 -11.5t-11.5 -27.5zM695 318q0 -16 11.5 -27.5t27.5 -11.5t27 11.5t11 27.5t-10.5 27t-27.5 11q-16 0 -27.5 -11t-11.5 -27zM711 196q16 0 27.5 12t11.5 27q0 17 -11.5 28t-27.5 11t-27 -11t-11 -28
q0 -16 11 -27.5t27 -11.5zM602 80q0 -15 11.5 -26.5t27.5 -11.5t27 11t11 27t-11 27.5t-27 11.5t-27.5 -11.5t-11.5 -27.5zM470 482q0 -16 10.5 -27t27.5 -11q15 0 27 11t12 27t-11.5 27.5t-27.5 11.5q-17 0 -27.5 -11.5t-10.5 -27.5zM559 155q0 -16 11 -27.5t28 -11.5
q16 0 27 11.5t11 27.5t-11 27t-27 11q-17 0 -28 -11t-11 -27zM646 155q0 -16 11 -27.5t28 -11.5q16 0 27 11.5t11 27.5t-11 27t-27 11q-17 0 -28 -11t-11 -27zM489 399q0 -16 11 -27.5t28 -11.5q16 0 27 11.5t11 27.5t-11 27t-27 11q-17 0 -28 -11t-11 -27z" />
    <glyph glyph-name="x" unicode="x" horiz-adv-x="622" 
d="M392 0l-83 174l-81 -174h-224l192 336l-171 293h225l65 -135l63 135h223l-173 -293l191 -336h-227zM453 525q17 0 27.5 11t10.5 28q0 15 -11 26.5t-27 11.5t-27.5 -11t-11.5 -27q0 -17 11.5 -28t27.5 -11zM448 484q0 16 -11.5 27t-27.5 11t-27.5 -11t-11.5 -27
t11.5 -27.5t27.5 -11.5t27.5 11.5t11.5 27.5zM395 404q0 16 -11 27.5t-28 11.5q-16 0 -27 -11.5t-11 -27.5t11 -27.5t27 -11.5q17 0 28 11.5t11 27.5zM206 564q0 16 -11.5 27t-27.5 11t-27 -11t-11 -27q0 -17 11 -28t27 -11t27.5 11t11.5 28zM252 484q0 16 -11 27t-28 11
q-16 0 -27 -11t-11 -27t11 -27.5t27 -11.5q17 0 28 11.5t11 27.5zM307 404q0 16 -11.5 27.5t-27.5 11.5q-17 0 -28 -11.5t-11 -27.5t11 -27.5t28 -11.5q16 0 27.5 11.5t11.5 27.5zM342 324q0 17 -11.5 28t-27.5 11t-27 -11t-11 -28q0 -16 11 -27t27 -11t27.5 11t11.5 27z
M402 245q0 16 -11 27.5t-27 11.5q-17 0 -28 -11.5t-11 -27.5t11.5 -27t27.5 -11t27 10.5t11 27.5zM453 162q0 17 -11 28t-28 11q-16 0 -27.5 -11t-11.5 -28q0 -16 11.5 -27.5t27.5 -11.5q17 0 28 11.5t11 27.5zM493 82q0 16 -11 27.5t-28 11.5q-16 0 -27 -11.5t-11 -27.5
q0 -17 11 -27.5t27 -10.5q17 0 28 10.5t11 27.5zM298 245q0 16 -10.5 27.5t-27.5 11.5q-16 0 -27.5 -11.5t-11.5 -27.5q0 -17 11.5 -27.5t27.5 -10.5t27 11t11 27zM246 162q0 17 -11.5 28t-27.5 11t-27 -11t-11 -28q0 -16 11 -27.5t27 -11.5t27.5 12t11.5 27zM202 82
q0 16 -11.5 27.5t-27.5 11.5q-17 0 -28 -11.5t-11 -27.5q0 -17 11 -27.5t28 -10.5q16 0 27.5 10.5t11.5 27.5z" />
    <glyph glyph-name="y" unicode="y" horiz-adv-x="606" 
d="M205 0v280l-204 349h222l80 -170l80 170h222l-204 -349v-280h-196zM499 564q0 15 -12 26.5t-27 11.5q-16 0 -27 -11t-11 -27q0 -17 11 -28t27 -11t27.5 11t11.5 28zM454 476q0 16 -10.5 27.5t-27.5 11.5q-16 0 -27.5 -11.5t-11.5 -27.5q0 -17 11.5 -27.5t27.5 -10.5
q17 0 27.5 10.5t10.5 27.5zM364 350q16 0 27 11t11 28q0 16 -11 27.5t-27 11.5t-27.5 -11.5t-11.5 -27.5q0 -17 11.5 -28t27.5 -11zM190 564q0 15 -12 26.5t-27 11.5q-16 0 -27 -11t-11 -27q0 -17 11 -28t27 -11t27.5 11t11.5 28zM236 476q0 16 -11.5 27.5t-27.5 11.5
t-27 -11.5t-11 -27.5q0 -17 11 -27.5t27 -10.5t27.5 10.5t11.5 27.5zM244 350q17 0 27 11t10 28q0 16 -10.5 27.5t-27.5 11.5q-16 0 -27.5 -11.5t-11.5 -27.5q0 -17 12 -28t28 -11zM341 302q0 16 -11 27t-28 11q-16 0 -27 -11t-11 -27q0 -17 11 -28t27 -11q17 0 28 11t11 28
zM341 193q0 16 -11 27.5t-28 11.5q-16 0 -27 -11.5t-11 -27.5t11 -27t27 -11q17 0 28 11t11 27zM341 92q0 17 -11 28t-28 11q-16 0 -27 -11t-11 -28q0 -16 11 -27t27 -11q17 0 28 11t11 27z" />
    <glyph glyph-name="z" unicode="z" horiz-adv-x="566" 
d="M9 0l249 469h-231v160h530l-248 -464h219v-165h-519zM427 541q0 15 -11.5 27t-27.5 12t-27.5 -11.5t-11.5 -27.5t11.5 -27.5t27.5 -11.5q17 0 28 11.5t11 27.5zM333 540q0 16 -11.5 27.5t-27.5 11.5q-15 0 -27 -12t-12 -27q0 -16 11.5 -27.5t27.5 -11.5t27.5 11.5
t11.5 27.5zM394 448q0 15 -12 26.5t-27 11.5q-17 0 -27.5 -11t-10.5 -27q0 -17 10.5 -28t27.5 -11q16 0 27.5 11t11.5 28zM202 501q16 0 27 11.5t11 27.5t-11 27.5t-27 11.5t-27.5 -12t-11.5 -27q0 -16 11 -27.5t28 -11.5zM345 361q0 16 -11 27.5t-27 11.5t-27.5 -11.5
t-11.5 -27.5q0 -17 11.5 -27.5t27.5 -10.5q15 0 26.5 11t11.5 27zM147 540q0 16 -11 27.5t-28 11.5q-15 0 -26.5 -12t-11.5 -27q0 -16 11 -27.5t27 -11.5q17 0 28 11.5t11 27.5zM304 276q0 16 -11.5 27t-27.5 11t-27 -11t-11 -27q0 -17 11 -28t27 -11t27.5 11t11.5 28z
M442 50q15 0 26.5 11.5t11.5 27.5t-11 27.5t-27 11.5t-27.5 -11.5t-11.5 -27.5q0 -17 11.5 -28t27.5 -11zM349 50q16 0 27 11.5t11 27.5t-10.5 27.5t-27.5 11.5q-16 0 -27.5 -11.5t-11.5 -27.5q0 -17 11.5 -28t27.5 -11zM212 146q16 0 27 11.5t11 27.5q0 15 -11.5 26.5
t-26.5 11.5q-17 0 -28 -11t-11 -27t11 -27.5t28 -11.5zM295 89q0 16 -11.5 27.5t-27.5 11.5t-27 -11.5t-11 -27.5q0 -17 11 -28t27 -11q15 0 27 11.5t12 27.5zM164 50q15 0 26.5 11.5t11.5 27.5t-11 27.5t-27 11.5q-17 0 -28 -11.5t-11 -27.5q0 -17 11 -28t28 -11z" />
    <glyph glyph-name="braceleft" unicode="{" horiz-adv-x="311" 
d="M244 -35q-25 0 -52 9t-49 27.5t-36.5 48t-14.5 71.5v70q0 39 -8 49t-23 10h-54v153h54q17 0 24 11t7 45v64q0 36 13.5 63t35.5 45t48 26.5t52 8.5h70v-135h-40q-23 0 -33.5 -19.5t-10.5 -74.5v-19q0 -62 -36 -95q20 -12 28 -35t8 -54v-69q0 -40 10 -52t30 -12h44v-136
h-67zM288 597q0 16 -11 27.5t-28 11.5q-16 0 -27 -11.5t-11 -27.5t11 -27t27 -11q17 0 28 11t11 27zM214 549q0 16 -10.5 27.5t-27.5 11.5q-16 0 -27.5 -11.5t-11.5 -27.5t11.5 -27t27.5 -11q17 0 27.5 11t10.5 27zM160 420q17 0 27.5 11.5t10.5 27.5t-10.5 27t-27.5 11
q-16 0 -27.5 -11t-11.5 -27t11.5 -27.5t27.5 -11.5zM179 370q0 16 -11 27t-28 11q-16 0 -27 -11t-11 -27t11 -27.5t27 -11.5q17 0 28 11.5t11 27.5zM288 32q0 16 -11 27.5t-28 11.5q-16 0 -27 -11.5t-11 -27.5t11 -27.5t27 -11.5q17 0 28 11.5t11 27.5zM176 41
q17 0 27.5 11.5t10.5 27.5t-10.5 27t-27.5 11q-16 0 -27.5 -11t-11.5 -27t11.5 -27.5t27.5 -11.5zM160 132q17 0 27.5 11.5t10.5 27.5t-10.5 27t-27.5 11q-16 0 -27.5 -11t-11.5 -27t11.5 -27.5t27.5 -11.5zM179 260q0 16 -11 27t-28 11q-16 0 -27 -11t-11 -27t11 -27.5
t27 -11.5q17 0 28 11.5t11 27.5zM97 328q0 16 -10.5 27.5t-27.5 11.5q-16 0 -27.5 -11.5t-11.5 -27.5t11.5 -27t27.5 -11q17 0 27.5 11t10.5 27z" />
    <glyph glyph-name="bar" unicode="|" horiz-adv-x="271" 
d="M62 -93v815h146v-815h-146zM171 270q0 17 -10.5 28t-27.5 11q-16 0 -27.5 -11t-11.5 -28q0 -16 11.5 -27t27.5 -11q17 0 27.5 11t10.5 27zM133 47q17 0 27.5 11t10.5 28q0 16 -10.5 27t-27.5 11q-16 0 -27.5 -11t-11.5 -27q0 -17 11.5 -28t27.5 -11zM171 549
q0 16 -10.5 27.5t-27.5 11.5q-16 0 -27.5 -11.5t-11.5 -27.5q0 -17 11.5 -27.5t27.5 -10.5q17 0 27.5 10.5t10.5 27.5zM133 417q17 0 27.5 11.5t10.5 27.5q0 17 -10.5 28t-27.5 11q-16 0 -27.5 -11t-11.5 -28q0 -16 11.5 -27.5t27.5 -11.5zM171 -8q0 16 -10.5 27.5
t-27.5 11.5q-16 0 -27.5 -11.5t-11.5 -27.5t11.5 -27t27.5 -11q17 0 27.5 11t10.5 27zM133 139q17 0 27.5 11.5t10.5 27.5t-10.5 27.5t-27.5 11.5q-16 0 -27.5 -11.5t-11.5 -27.5t11.5 -27.5t27.5 -11.5zM133 603q17 0 27.5 11.5t10.5 27.5t-10.5 27t-27.5 11
q-16 0 -27.5 -11t-11.5 -27t11.5 -27.5t27.5 -11.5zM133 325q17 0 27.5 11.5t10.5 27.5t-10.5 27t-27.5 11q-16 0 -27.5 -11t-11.5 -27t11.5 -27.5t27.5 -11.5z" />
    <glyph glyph-name="braceright" unicode="}" horiz-adv-x="311" 
d="M291 328q0 16 -11.5 27.5t-27.5 11.5q-17 0 -28 -11.5t-11 -27.5t11 -27t28 -11q16 0 27.5 11t11.5 27zM171 221q16 0 27 11.5t11 27.5t-11 27t-27 11q-17 0 -28 -11t-11 -27t11 -27.5t28 -11.5zM190 171q0 16 -11.5 27t-27.5 11q-17 0 -27.5 -11t-10.5 -27t10.5 -27.5
t27.5 -11.5q16 0 27.5 11.5t11.5 27.5zM174 80q0 16 -11.5 27t-27.5 11q-17 0 -27.5 -11t-10.5 -27t10.5 -27.5t27.5 -11.5q16 0 27.5 11.5t11.5 27.5zM100 32q0 16 -11.5 27.5t-27.5 11.5q-17 0 -27.5 -11.5t-10.5 -27.5t10.5 -27.5t27.5 -11.5q16 0 27.5 11.5t11.5 27.5z
M171 331q16 0 27 11.5t11 27.5t-11 27t-27 11q-17 0 -28 -11t-11 -27t11 -27.5t28 -11.5zM190 459q0 16 -11.5 27t-27.5 11q-17 0 -27.5 -11t-10.5 -27t10.5 -27.5t27.5 -11.5q16 0 27.5 11.5t11.5 27.5zM174 549q0 16 -11.5 27.5t-27.5 11.5q-17 0 -27.5 -11.5t-10.5 -27.5
t10.5 -27t27.5 -11q16 0 27.5 11t11.5 27zM100 597q0 16 -11.5 27.5t-27.5 11.5q-17 0 -27.5 -11.5t-10.5 -27.5t10.5 -27t27.5 -11q16 0 27.5 11t11.5 27zM0 -35v136h44q20 0 30 12t10 52v69q0 31 7.5 54t28.5 35q-36 33 -36 95v19q0 55 -11 74.5t-34 19.5h-39v135h70
q25 0 51.5 -8.5t48.5 -26.5t35.5 -45t13.5 -63v-64q0 -34 6.5 -45t23.5 -11h55v-153h-55q-14 0 -22 -10t-8 -49v-70q0 -42 -14.5 -71.5t-36.5 -48t-49 -27.5t-52 -9h-67z" />
    <glyph glyph-name="asciitilde" unicode="~" horiz-adv-x="475" 
d="M465 262q-31 -30 -61.5 -44t-75.5 -14q-26 0 -50 9.5t-47.5 21t-47.5 21t-49 9.5q-45 0 -73 -15t-52 -53v174q19 23 49.5 42t70.5 19q31 0 57.5 -10t51.5 -21.5t48.5 -21.5t47.5 -10q48 0 78 17t53 59v-183zM106 321q0 15 -12 27t-27 12q-16 0 -27 -11.5t-11 -27.5
q0 -17 11 -28t27 -11t27.5 11t11.5 28zM150 315q16 0 27 11t11 28q0 15 -11.5 26.5t-26.5 11.5q-16 0 -27.5 -11t-11.5 -27q0 -17 11.5 -28t27.5 -11zM273 322q0 15 -11.5 26.5t-27.5 11.5t-27 -11t-11 -27q0 -17 11 -28t27 -11t27.5 11t11.5 28zM359 291q0 16 -12 27.5
t-27 11.5q-16 0 -27.5 -11.5t-11.5 -27.5q0 -17 11.5 -27.5t27.5 -10.5t27.5 10.5t11.5 27.5zM446 314q0 15 -11.5 27t-27.5 12t-27 -11.5t-11 -27.5q0 -17 11 -27.5t27 -10.5t27.5 10.5t11.5 27.5z" />
    <glyph glyph-name="nonbreakingspace" unicode="&#xa0;" horiz-adv-x="246" 
 />
    <glyph glyph-name="exclamdown" unicode="&#xa1;" horiz-adv-x="269" 
d="M100.011 450.011q-28.999 10.999 -46.498 35.998q-17.498 24.998 -17.498 56.9961q0 44.998 26.998 71.4961t71.9951 26.498q42.998 0 70.4961 -26.498t27.498 -71.4961q0 -31.998 -16.499 -56.9961q-16.499 -24.999 -45.4971 -35.998h57.9961v-449.973h-180.988v449.973
h51.9971zM96.0107 543.005q0 -16.999 11.499 -27.498t27.498 -10.499q16.999 0 27.499 10.499q10.499 10.499 10.499 27.498q0 15.999 -10.499 27.499q-10.5 11.499 -27.499 11.499q-15.999 0 -27.498 -11.499q-11.499 -11.5 -11.499 -27.499zM96.0107 78.0332
q0 -16.998 11.499 -27.998q11.499 -10.999 27.498 -10.999t26.999 10.999q10.999 11 10.999 27.998q0 15.999 -10.999 27.499q-11 11.499 -26.999 11.499t-27.498 -11.499q-11.499 -11.5 -11.499 -27.499zM96.0107 370.016q0 -15.999 11.499 -26.998t27.498 -10.999
t26.999 10.999q10.999 10.999 10.999 26.998q0 16.999 -10.999 27.998q-11 11 -26.999 11t-27.498 -11q-11.499 -10.999 -11.499 -27.998zM96.0107 175.027q0 -16.999 11.499 -27.498t27.498 -10.499t26.999 10.499q10.999 10.499 10.999 27.498q0 15.999 -10.999 27.499
q-11 11.499 -26.999 11.499t-27.498 -11.499q-11.499 -11.5 -11.499 -27.499zM96.0107 273.021q0 -15.999 11.499 -27.498t27.498 -11.499t26.999 11.499q10.999 11.499 10.999 27.498t-10.999 26.999q-11 10.999 -26.999 10.999t-27.498 -10.999
q-11.499 -11 -11.499 -26.999z" />
    <glyph glyph-name="cent" unicode="&#xa2;" horiz-adv-x="448" 
d="M192 0v98q-37 8 -68 28t-53.5 48.5t-35.5 64t-13 74.5t13 74t35.5 63.5t53.5 48.5t68 29v101h100v-102q39 -10 72 -32t56 -54l-110 -82q-11 17 -29 27t-40 10q-34 0 -58 -24t-24 -59t24 -59t58 -24q22 0 40 10t29 27l113 -78q-47 -68 -131 -91v-98h-100zM278 465
q0 16 -11.5 27t-27.5 11t-27 -11t-11 -27t11 -27.5t27 -11.5t27.5 11.5t11.5 27.5zM365 438q0 16 -11.5 27.5t-27.5 11.5t-27.5 -11.5t-11.5 -27.5t11.5 -27t27.5 -11t27.5 11.5t11.5 26.5zM189 438q0 16 -11.5 27.5t-27.5 11.5t-27 -11.5t-11 -27.5t11 -27t27 -11
t27.5 11.5t11.5 26.5zM97 321q16 0 27 11.5t11 27.5t-11 27t-27 11t-27.5 -11t-11.5 -27t11.5 -27.5t27.5 -11.5zM278 160q0 15 -11.5 26.5t-27.5 11.5t-27 -11t-11 -27t11 -27.5t27 -11.5t27.5 11.5t11.5 27.5zM365 186q0 15 -11.5 26.5t-27.5 11.5t-27.5 -11t-11.5 -27
t11.5 -27.5t27.5 -11.5t27.5 11.5t11.5 27.5zM189 186q0 15 -11.5 26.5t-27.5 11.5t-27 -11t-11 -27t11 -27.5t27 -11.5t27.5 11.5t11.5 27.5zM97 226q16 0 27 11.5t11 27.5q0 15 -11 26.5t-27 11.5t-27.5 -11t-11.5 -27t11.5 -27.5t27.5 -11.5z" />
    <glyph glyph-name="sterling" unicode="&#xa3;" horiz-adv-x="564" 
d="M15 0v165h66v68h-64v132h64v14q0 57 21.5 105t58.5 83t86.5 54.5t106.5 19.5q92 0 163 -53l-106 -168q-21 27 -57 27q-28 0 -48.5 -19.5t-20.5 -48.5v-14h71v-132h-71v-68h266v-165h-536zM335 538q0 16 -10.5 27.5t-27.5 11.5q-16 0 -27.5 -11.5t-11.5 -27.5t11.5 -27
t27.5 -11q17 0 27.5 11t10.5 27zM259 486q0 16 -11 27t-28 11q-16 0 -27.5 -11t-11.5 -27q0 -17 11.5 -28t27.5 -11q17 0 28 11t11 28zM186 356q17 0 27.5 11.5t10.5 27.5q0 17 -10.5 27.5t-27.5 10.5q-16 0 -27.5 -10.5t-11.5 -27.5q0 -16 11.5 -27.5t27.5 -11.5zM218 297
q0 16 -11 27t-28 11q-16 0 -27.5 -11t-11.5 -27t11.5 -27.5t27.5 -11.5q17 0 28 11.5t11 27.5zM217 190q-1 16 -11.5 27t-27.5 11q-16 0 -27.5 -11t-11.5 -27q0 -17 11.5 -28t27.5 -11q17 0 28 11t11 28zM219 87q0 16 -10.5 27.5t-27.5 11.5q-16 0 -27.5 -11.5t-11.5 -27.5
t11.5 -27t27.5 -11q17 0 27.5 11t10.5 27zM433 538q0 16 -10.5 27.5t-27.5 11.5q-16 0 -27.5 -11.5t-11.5 -27.5t11.5 -27t27.5 -11q17 0 27.5 11t10.5 27zM275 258q17 0 27.5 11.5t10.5 27.5t-10.5 27t-27.5 11q-16 0 -27.5 -11t-11.5 -27t11.5 -27.5t27.5 -11.5zM120 297
q0 16 -11 27t-28 11q-16 0 -27 -11t-11 -27t11 -27.5t27 -11.5q17 0 28 11.5t11 27.5zM120 87q0 16 -11 27.5t-28 11.5q-16 0 -27 -11.5t-11 -27.5t11 -27t27 -11q17 0 28 11t11 27zM420 87q0 16 -11 27.5t-28 11.5q-16 0 -27 -11.5t-11 -27.5t11 -27t27 -11q17 0 28 11
t11 27zM321 87q0 16 -11 27.5t-28 11.5q-16 0 -27 -11.5t-11 -27.5t11 -27t27 -11q17 0 28 11t11 27zM516 87q0 16 -11 27.5t-28 11.5q-16 0 -27.5 -11.5t-11.5 -27.5t11.5 -27t27.5 -11q17 0 28 11t11 27z" />
    <glyph glyph-name="currency" unicode="&#xa4;" horiz-adv-x="417" 
d="M282 309q0 29 -21.5 49.5t-53.5 20.5q-31 0 -52 -20.5t-21 -49.5t21 -49.5t52 -20.5q32 0 53.5 20.5t21.5 49.5zM275 186q-29 -13 -68 -13q-37 0 -66 13l-53 -56l-65 67l49 50q-17 29 -17 62q0 32 17 61l-49 51l65 66l53 -56q33 13 66 13q19 0 35.5 -3.5t32.5 -9.5l53 56
l65 -66l-49 -51q17 -29 17 -61q0 -33 -17 -62l49 -50l-65 -67z" />
    <glyph glyph-name="yen" unicode="&#xa5;" horiz-adv-x="575" 
d="M318 66q0 16 -10.5 27.5t-27.5 11.5q-16 0 -27.5 -11.5t-11.5 -27.5t11.5 -27t27.5 -11q17 0 27.5 11t10.5 27zM447 570q0 16 -11.5 27t-27.5 11q-17 0 -27.5 -11t-10.5 -27t10.5 -27.5t27.5 -11.5q16 0 27.5 11.5t11.5 27.5zM389 488q0 16 -11.5 27.5t-27.5 11.5
q-17 0 -27.5 -11.5t-10.5 -27.5t10.5 -27.5t27.5 -11.5q16 0 27.5 11.5t11.5 27.5zM318 426q0 16 -11.5 27.5t-27.5 11.5q-17 0 -28 -11.5t-11 -27.5t11 -27.5t28 -11.5q16 0 27.5 11.5t11.5 27.5zM515 333q0 16 -11.5 27.5t-27.5 11.5q-17 0 -27.5 -11.5t-10.5 -27.5
t10.5 -27t27.5 -11q16 0 27.5 11t11.5 27zM414 333q0 16 -11.5 27.5t-27.5 11.5q-17 0 -27.5 -11.5t-10.5 -27.5t10.5 -27t27.5 -11q16 0 27.5 11t11.5 27zM515 157q0 16 -11.5 27.5t-27.5 11.5q-17 0 -27.5 -11.5t-10.5 -27.5t10.5 -27.5t27.5 -11.5q16 0 27.5 11.5
t11.5 27.5zM414 157q0 16 -11.5 27.5t-27.5 11.5q-17 0 -27.5 -11.5t-10.5 -27.5t10.5 -27.5t27.5 -11.5q16 0 27.5 11.5t11.5 27.5zM148 531q17 0 27.5 11.5t10.5 27.5t-10.5 27t-27.5 11q-16 0 -27.5 -11t-11.5 -27t11.5 -27.5t27.5 -11.5zM206 449q17 0 27.5 11.5
t10.5 27.5t-10.5 27.5t-27.5 11.5q-16 0 -27.5 -11.5t-11.5 -27.5t11.5 -27.5t27.5 -11.5zM118 333q0 16 -10.5 27.5t-27.5 11.5q-16 0 -27.5 -11.5t-11.5 -27.5t11.5 -27t27.5 -11q17 0 27.5 11t10.5 27zM219 333q0 16 -10.5 27.5t-27.5 11.5q-16 0 -27.5 -11.5
t-11.5 -27.5t11.5 -27t27.5 -11q17 0 27.5 11t10.5 27zM318 333q0 16 -10.5 27.5t-27.5 11.5q-16 0 -27.5 -11.5t-11.5 -27.5t11.5 -27t27.5 -11q17 0 27.5 11t10.5 27zM80 118q17 0 27.5 11.5t10.5 27.5t-10.5 27.5t-27.5 11.5q-16 0 -27.5 -11.5t-11.5 -27.5t11.5 -27.5
t27.5 -11.5zM181 118q17 0 27.5 11.5t10.5 27.5t-10.5 27.5t-27.5 11.5q-16 0 -27.5 -11.5t-11.5 -27.5t11.5 -27.5t27.5 -11.5zM280 118q17 0 27.5 11.5t10.5 27.5t-10.5 27.5t-27.5 11.5q-16 0 -27.5 -11.5t-11.5 -27.5t11.5 -27.5t27.5 -11.5zM318 245q0 16 -10.5 27.5
t-27.5 11.5q-16 0 -27.5 -11.5t-11.5 -27.5t11.5 -27t27.5 -11q17 0 27.5 11t10.5 27zM364 97v-97h-168v97h-179v123h179v55h-179v123h164l-184 231h204l79 -112l79 112h203l-183 -231h164v-123h-179v-55h179v-123h-179z" />
    <glyph glyph-name="brokenbar" unicode="&#xa6;" horiz-adv-x="271" 
d="M62 -93v349h146v-349h-146zM62 381v341h146v-341h-146zM133 47q17 0 27.5 11t10.5 28q0 16 -10.5 27t-27.5 11q-16 0 -27.5 -11t-11.5 -27q0 -17 11.5 -28t27.5 -11zM171 549q0 16 -10.5 27.5t-27.5 11.5q-16 0 -27.5 -11.5t-11.5 -27.5q0 -17 11.5 -27.5t27.5 -10.5
q17 0 27.5 10.5t10.5 27.5zM133 417q17 0 27.5 11.5t10.5 27.5q0 17 -10.5 28t-27.5 11q-16 0 -27.5 -11t-11.5 -28q0 -16 11.5 -27.5t27.5 -11.5zM133 603q17 0 27.5 11.5t10.5 27.5t-10.5 27t-27.5 11q-16 0 -27.5 -11t-11.5 -27t11.5 -27.5t27.5 -11.5zM133 139
q17 0 27.5 11.5t10.5 27.5t-10.5 27.5t-27.5 11.5q-16 0 -27.5 -11.5t-11.5 -27.5t11.5 -27.5t27.5 -11.5zM171 -8q0 16 -10.5 27.5t-27.5 11.5q-16 0 -27.5 -11.5t-11.5 -27.5t11.5 -27t27.5 -11q17 0 27.5 11t10.5 27z" />
    <glyph glyph-name="section" unicode="&#xa7;" horiz-adv-x="448" 
d="M184 348q-23 0 -23 -32q0 -35 23 -35h72q24 0 24 32q0 35 -24 35h-72zM112 0v130h133q33 0 33 33q0 35 -33 35h-129q-23 0 -40 8.5t-28 22.5t-16.5 31.5t-5.5 36.5q0 72 40 99q-31 15 -42 40t-11 49q0 75 33 109.5t93 34.5h190v-130h-133q-32 0 -32 -33q0 -35 32 -35h128
q24 0 41 -8.5t28 -22.5t16.5 -31.5t5.5 -36.5q0 -73 -39 -98q30 -16 41 -41t11 -49q0 -75 -33 -109.5t-93 -34.5h-190z" />
    <glyph glyph-name="dieresis" unicode="&#xa8;" horiz-adv-x="478" 
d="M454 766q0 -45 -26.5 -71t-71.5 -26q-43 0 -70.5 26t-27.5 71q0 43 27.5 71t70.5 28t70.5 -28.5t27.5 -70.5zM395 766q0 17 -11.5 28t-27.5 11q-17 0 -27.5 -11t-10.5 -28q0 -16 10.5 -27.5t27.5 -11.5q16 0 27.5 11.5t11.5 27.5zM219 766q0 -45 -26.5 -71t-71.5 -26
q-43 0 -70.5 26t-27.5 71q0 43 27.5 71t70.5 28t70.5 -28.5t27.5 -70.5zM160 766q0 17 -11.5 28t-27.5 11q-17 0 -28 -11t-11 -28q0 -16 11 -27.5t28 -11.5q16 0 27.5 11.5t11.5 27.5z" />
    <glyph glyph-name="copyright" unicode="&#xa9;" horiz-adv-x="696" 
d="M675 314q0 -67 -26 -126.5t-70 -103.5t-104 -70t-127 -26t-126.5 26t-103.5 70t-70 103.5t-26 126.5t26 127t70 104t103.5 70t126.5 26t127 -26t104 -70t70 -104t26 -127zM584 314q0 49 -18.5 92t-50 75t-75 50t-92.5 18t-92 -18t-75 -50t-50.5 -75t-18.5 -92t18.5 -92
t50.5 -75t75 -50.5t92 -18.5t92.5 18.5t75 50.5t50 75t18.5 92zM465 222q-20 -27 -51 -43t-68 -16q-31 0 -58.5 12t-48 32.5t-32.5 48t-12 58.5t12 58.5t32.5 48t48 32.5t58.5 12q38 0 70 -17t53 -46l-76 -57q-17 26 -47 26q-23 0 -39.5 -17t-16.5 -40t16.5 -39.5
t39.5 -16.5q15 0 27 7t20 18z" />
    <glyph glyph-name="ordfeminine" unicode="&#xaa;" horiz-adv-x="449" 
d="M281 247l-14 60h-94l-14 -60h-142l122 382h171l123 -382h-152zM221 502l-26 -94h50z" />
    <glyph glyph-name="guillemotleft" unicode="&#xab;" horiz-adv-x="632" 
d="M21 249v107l274 139v-154l-93 -38l93 -39v-153zM196 349q0 17 -11 27.5t-28 10.5q-15 0 -27 -11t-12 -27t11.5 -27.5t27.5 -11.5q17 0 28 11.5t11 27.5zM196 257q0 16 -11 27.5t-28 11.5q-16 0 -27.5 -11.5t-11.5 -27.5t11.5 -27.5t27.5 -11.5q17 0 28 11.5t11 27.5z
M121 302q0 16 -11.5 27.5t-27.5 11.5t-27 -11.5t-11 -27.5q0 -17 11 -27.5t27 -10.5t27.5 10.5t11.5 27.5zM275 219q0 16 -11.5 27.5t-27.5 11.5q-15 0 -27 -11.5t-12 -27.5t11.5 -27t27.5 -11t27.5 11t11.5 27zM275 386q0 16 -11.5 27.5t-27.5 11.5q-15 0 -27 -11.5
t-12 -27.5t11.5 -27t27.5 -11t27.5 11t11.5 27zM337 249v107l274 139v-154l-93 -38l93 -39v-153zM512 349q0 17 -11 27.5t-28 10.5q-15 0 -27 -11t-12 -27t11.5 -27.5t27.5 -11.5q17 0 28 11.5t11 27.5zM512 257q0 16 -11 27.5t-28 11.5q-16 0 -27.5 -11.5t-11.5 -27.5
t11.5 -27.5t27.5 -11.5q17 0 28 11.5t11 27.5zM437 302q0 16 -11.5 27.5t-27.5 11.5t-27 -11.5t-11 -27.5q0 -17 11 -27.5t27 -10.5t27.5 10.5t11.5 27.5zM591 219q0 16 -11.5 27.5t-27.5 11.5q-15 0 -27 -11.5t-12 -27.5t11.5 -27t27.5 -11t27.5 11t11.5 27zM591 386
q0 16 -11.5 27.5t-27.5 11.5q-15 0 -27 -11.5t-12 -27.5t11.5 -27t27.5 -11t27.5 11t11.5 27z" />
    <glyph glyph-name="logicalnot" unicode="&#xac;" horiz-adv-x="496" 
d="M360 0v239h-348v110h462v-349h-114z" />
    <glyph glyph-name="registered" unicode="&#xae;" horiz-adv-x="441" 
d="M220 228q-44 0 -82 16.5t-67 45.5t-45.5 67.5t-16.5 82.5q0 43 16.5 81.5t45.5 67.5t67 45.5t82 16.5t82.5 -16.5t67.5 -45.5t45.5 -67.5t16.5 -81.5q0 -44 -16.5 -82.5t-45.5 -67.5t-67.5 -45.5t-82.5 -16.5zM220 286q31 0 59 12t48.5 33t32.5 49t12 60q0 31 -12 59
t-32.5 48.5t-48.5 32.5t-59 12q-32 0 -59.5 -12t-48.5 -32.5t-33 -48.5t-12 -59q0 -32 12 -60t33 -49t48.5 -33t59.5 -12zM230 353l-21 58v-58h-61v180h94q26 0 44.5 -18t18.5 -45q0 -16 -8 -29.5t-21 -22.5l29 -65h-75zM231 449q6 0 10.5 5t4.5 11q0 7 -4.5 11t-10.5 4h-22
v-31h22z" />
    <glyph glyph-name="macron" unicode="&#xaf;" horiz-adv-x="436" 
d="M20 699v140h396v-140h-396zM298 769q0 16 -11 27.5t-27 11.5t-27.5 -11t-11.5 -28q0 -16 11.5 -27t27.5 -11q17 0 27.5 11t10.5 27zM213 769q0 16 -11.5 27.5t-27.5 11.5t-27.5 -11t-11.5 -28q0 -16 11.5 -27t27.5 -11q17 0 28 11t11 27zM383 769q0 16 -11.5 27.5
t-27.5 11.5t-27 -11t-11 -28q0 -16 11 -27t27 -11q17 0 28 11t11 27zM128 769q0 16 -12 27.5t-27 11.5q-16 0 -27.5 -11t-11.5 -28q0 -16 11.5 -27t27.5 -11t27.5 11t11.5 27z" />
    <glyph glyph-name="degree" unicode="&#xb0;" horiz-adv-x="365" 
d="M339 424q0 -72 -42.5 -110t-114.5 -38t-114.5 38t-42.5 110v69q0 70 42.5 109t114.5 39t114.5 -39t42.5 -109v-69zM255 476q14 0 25 11t11 26q0 17 -11 27.5t-25 10.5q-16 0 -27 -10.5t-11 -27.5q0 -15 11 -26t27 -11zM217 580q0 17 -11.5 27.5t-25.5 10.5
q-16 0 -27.5 -10.5t-11.5 -27.5q0 -14 11.5 -25.5t27.5 -11.5q14 0 25.5 11.5t11.5 25.5zM255 372q14 0 25 10t11 27q0 16 -11 26.5t-25 10.5q-16 0 -27 -10.5t-11 -26.5q0 -17 11 -27t27 -10zM197 493q0 30 -15 30q-16 0 -16 -30v-71q0 -29 16 -29q15 0 15 29v71zM141 513
q0 17 -11 27.5t-26 10.5t-26.5 -10.5t-11.5 -27.5q0 -15 11.5 -26t26.5 -11t26 11t11 26zM180 304q14 0 25.5 11t11.5 27q0 15 -11.5 26t-25.5 11q-16 0 -27.5 -11t-11.5 -26q0 -16 11.5 -27t27.5 -11zM141 409q0 16 -11 26.5t-26 10.5t-26.5 -10.5t-11.5 -26.5
q0 -17 11.5 -27t26.5 -10t26 10t11 27z" />
    <glyph glyph-name="plusminus" unicode="&#xb1;" horiz-adv-x="491" 
d="M460 314q0 15 -11.5 27t-26.5 12q-16 0 -27.5 -11.5t-11.5 -27.5q0 -17 11.5 -27.5t27.5 -10.5t27 10.5t11 27.5zM375 314q0 15 -11.5 27t-26.5 12q-16 0 -27.5 -11.5t-11.5 -27.5q0 -17 11.5 -27.5t27.5 -10.5t27 10.5t11 27.5zM292 313q0 15 -11.5 27t-26.5 12
q-17 0 -28 -11.5t-11 -27.5q0 -17 11 -27.5t28 -10.5q16 0 27 10.5t11 27.5zM205 314q0 15 -11.5 27t-27.5 12t-27 -11.5t-11 -27.5q0 -17 11 -27.5t27 -10.5q17 0 28 10.5t11 27.5zM120 314q0 15 -11.5 27t-27.5 12t-27 -11.5t-11 -27.5q0 -17 11 -27.5t27 -10.5
q17 0 28 10.5t11 27.5zM258 103q15 0 25 12t10 27q0 16 -11 27.5t-27 11.5q-17 0 -28 -11.5t-11 -27.5t12.5 -27.5t29.5 -11.5zM255 188q15 0 26.5 12t11.5 27q0 16 -11 27t-27 11q-17 0 -28 -11t-11 -27t11 -27.5t28 -11.5zM255 359q15 0 26.5 11t11.5 27t-11 27.5
t-27 11.5q-17 0 -28 -11.5t-11 -27.5q0 -17 11 -27.5t28 -10.5zM255 444q15 0 26.5 11t11.5 27t-11 27.5t-27 11.5q-17 0 -28 -11.5t-11 -27.5q0 -17 11 -27.5t28 -10.5zM186 78v168h-168v132h168v167h132v-167h168v-132h-168v-168h-132zM12 -81v132h468v-132h-468zM454 -14
q0 15 -11.5 27t-26.5 12q-16 0 -27.5 -11.5t-11.5 -27.5q0 -17 11.5 -27.5t27.5 -10.5t27 10.5t11 27.5zM369 -14q0 15 -11.5 27t-26.5 12q-16 0 -27.5 -11.5t-11.5 -27.5q0 -17 11.5 -27.5t27.5 -10.5t27 10.5t11 27.5zM285 -14q0 15 -12 27t-27 12q-17 0 -28 -11.5
t-11 -27.5q0 -17 11 -27.5t28 -10.5q16 0 27.5 10.5t11.5 27.5zM199 -14q0 15 -11.5 27t-27.5 12t-27 -11.5t-11 -27.5q0 -17 11 -27.5t27 -10.5q17 0 28 10.5t11 27.5zM114 -14q0 15 -11.5 27t-27.5 12t-27 -11.5t-11 -27.5q0 -17 11 -27.5t27 -10.5q17 0 28 10.5t11 27.5z
" />
    <glyph glyph-name="acute" unicode="&#xb4;" horiz-adv-x="246" 
d="M13 659l58 221h171l-101 -221h-128zM172 815q0 16 -11 27t-28 11q-16 0 -27 -11t-11 -27t11 -27.5t27 -11.5q17 0 28 11.5t11 27.5zM135 722q0 16 -11.5 27t-27.5 11q-17 0 -27.5 -11t-10.5 -27q0 -17 10.5 -28t27.5 -11q16 0 27.5 11t11.5 28z" />
    <glyph glyph-name="mu" unicode="&#xb5;" horiz-adv-x="411" 
d="M35 -121v549h108v-295q0 -29 16 -41.5t44 -12.5q23 0 39 2.5t27 6.5v340h106v-415q-25 -8 -62 -16.5t-82 -8.5q-42 0 -61.5 5.5t-26.5 13.5v-128h-108z" />
    <glyph glyph-name="paragraph" unicode="&#xb6;" horiz-adv-x="535" 
d="M349 0v518h-102v-518h-127v402q-58 12 -84 40t-26 76q0 24 7.5 44t25 35t45 23.5t67.5 8.5h373l-53 -99v-530h-126z" />
    <glyph glyph-name="periodcentered" unicode="&#xb7;" horiz-adv-x="244" 
d="M122 211q-43 0 -70.5 26.5t-27.5 71.5q0 43 27.5 71t70.5 28t70.5 -28.5t27.5 -70.5q0 -45 -26.5 -71.5t-71.5 -26.5zM122 270q16 0 27 11.5t11 27.5q0 17 -11 27.5t-27 10.5q-17 0 -28 -10.5t-11 -27.5q0 -16 11 -27.5t28 -11.5z" />
    <glyph glyph-name="cedilla" unicode="&#xb8;" horiz-adv-x="208" 
d="M24 -202l9 188l149 -25l-44 -178zM100 -111q19 0 28 11.5t9 27.5q0 14 -10.5 23.5t-25.5 9.5q-16 0 -26.5 -11t-10.5 -26t11 -25t25 -10zM86 -188q37 0 37 38q0 14 -11 23.5t-25 9.5q-16 0 -26 -10.5t-10 -24.5q0 -17 10 -26.5t25 -9.5z" />
    <glyph glyph-name="ordmasculine" unicode="&#xba;" horiz-adv-x="445" 
d="M422 429q0 -41 -15.5 -77.5t-42.5 -63.5t-63.5 -42.5t-78.5 -15.5q-41 0 -77.5 15.5t-63.5 42.5t-42.5 63.5t-15.5 77.5q0 42 15.5 78.5t42.5 63.5t63.5 42.5t77.5 15.5q42 0 78.5 -15.5t63.5 -42.5t42.5 -63.5t15.5 -78.5zM297 429q0 32 -21.5 53.5t-53.5 21.5
q-31 0 -52.5 -21.5t-21.5 -53.5q0 -31 21.5 -52.5t52.5 -21.5q32 0 53.5 21.5t21.5 52.5z" />
    <glyph glyph-name="guillemotright" unicode="&#xbb;" horiz-adv-x="632" 
d="M118 386q0 16 -11.5 27.5t-26.5 11.5q-16 0 -27.5 -11.5t-11.5 -27.5t11.5 -27t27.5 -11t27 11t11 27zM118 219q0 16 -11.5 27.5t-26.5 11.5q-16 0 -27.5 -11.5t-11.5 -27.5t11.5 -27t27.5 -11t27 11t11 27zM272 302q0 16 -11 27.5t-27 11.5t-27.5 -11.5t-11.5 -27.5
q0 -17 11.5 -27.5t27.5 -10.5t27 10.5t11 27.5zM159 218q16 0 27 11.5t11 27.5t-11 27.5t-27 11.5q-17 0 -28 -11.5t-11 -27.5t11 -27.5t28 -11.5zM159 310q16 0 27 11.5t11 27.5t-11.5 27t-26.5 11q-17 0 -28 -10.5t-11 -27.5q0 -16 11 -27.5t28 -11.5zM21 111v153l92 39
l-92 38v154l274 -139v-107zM434 386q0 16 -11.5 27.5t-26.5 11.5q-16 0 -27.5 -11.5t-11.5 -27.5t11.5 -27t27.5 -11t27 11t11 27zM434 219q0 16 -11.5 27.5t-26.5 11.5q-16 0 -27.5 -11.5t-11.5 -27.5t11.5 -27t27.5 -11t27 11t11 27zM588 302q0 16 -11 27.5t-27 11.5
t-27.5 -11.5t-11.5 -27.5q0 -17 11.5 -27.5t27.5 -10.5t27 10.5t11 27.5zM475 218q16 0 27 11.5t11 27.5t-11 27.5t-27 11.5q-17 0 -28 -11.5t-11 -27.5t11 -27.5t28 -11.5zM475 310q16 0 27 11.5t11 27.5t-11.5 27t-26.5 11q-17 0 -28 -10.5t-11 -27.5q0 -16 11 -27.5
t28 -11.5zM337 111v153l92 39l-92 38v154l274 -139v-107z" />
    <glyph glyph-name="questiondown" unicode="&#xbf;" horiz-adv-x="431" 
d="M211.013 448.011q-30.998 10 -49.9971 35.498q-18.998 25.499 -18.998 59.4961q0 42.998 27.498 70.4961t70.4961 27.498q49.9961 0 73.9951 -29.498q23.998 -29.498 23.998 -68.4961q0 -33.9971 -18.498 -59.4961q-18.499 -25.498 -49.4971 -35.498h56.9961v-57.9961
q0 -25.998 -5 -50.9971q-4.99902 -24.998 -19.998 -47.9971q-10 -14.999 -27.999 -28.498q-17.998 -13.499 -35.4971 -26.498q-17.499 -13 -30.498 -25.999q-13 -12.999 -13 -27.998q0 -27.998 26.999 -27.998q20.998 0 30.498 14.999q9.49902 14.999 15.499 31.998
l148.99 -64.9961q-17.998 -45.9971 -40.4971 -74.9951q-22.499 -28.999 -49.4971 -44.998t-57.9961 -21.998q-30.998 -6 -66.9961 -6q-38.998 0 -73.9951 12.499q-34.998 12.499 -61.4971 35.498q-26.498 22.999 -42.4971 56.9971q-15.999 33.9971 -15.999 76.9951
q0 26.998 6 47.9971q5.99902 20.998 17.499 38.9971q11.499 17.999 28.998 35.498t40.4971 36.498q19.999 16.999 31.498 35.9971q11.5 18.999 11.5 47.998v34.9971h66.9951zM240.012 582.003q-15.999 0 -26.999 -11.499q-10.999 -11.5 -10.999 -27.499
q0 -16.999 9.99902 -27.498q10 -10.499 27.999 -10.499q16.998 0 27.998 10.499q10.999 10.499 10.999 27.498q0 15.999 -10.999 27.499q-11 11.499 -27.998 11.499zM49.0234 169.028q0 -16.999 10.999 -27.999q10.999 -10.999 26.998 -10.999q16.999 0 27.998 10.999
q11 11 11 27.999q0 15.999 -11 26.998q-10.999 10.999 -27.998 10.999q-15.999 0 -26.998 -10.999t-10.999 -26.998zM98.0195 240.023q0 -14.999 12 -26.998q11.999 -11.999 26.998 -11.999q16.999 0 27.998 11.499q11 11.499 11 27.498q0 16.999 -11 27.999
q-10.999 10.999 -27.998 10.999q-15.999 0 -27.498 -10.999q-11.5 -11 -11.5 -27.999zM181.015 73.0342q0 -16.999 11 -27.999q10.999 -10.999 27.998 -10.999q15.999 0 27.498 10.999q11.499 11 11.499 27.999q0 14.999 -11.999 26.998t-26.998 11.999
q-16.999 0 -27.998 -11.499q-11 -11.499 -11 -27.498zM156.017 306.02q0 -14.999 11.499 -26.498t27.498 -11.499t26.999 10.999q10.999 10.999 10.999 26.998q0 16.999 -10.999 27.998q-11 11 -26.999 11q-16.999 0 -27.998 -11q-10.999 -10.999 -10.999 -27.998z
M266.01 103.032q0 -15.999 10.999 -26.998q11 -11 27.999 -11q15.998 0 27.498 11q11.499 10.999 11.499 26.998t-11.999 27.498t-26.998 11.499q-16.999 0 -27.999 -10.999q-10.999 -10.999 -10.999 -27.998zM202.014 384.015q0 -16.999 10.999 -27.998
q11 -10.999 26.999 -10.999q16.998 0 27.998 10.999q10.999 10.999 10.999 27.998q0 14.999 -11.499 26.499q-11.499 11.499 -27.498 11.499t-26.999 -10.999q-10.999 -11 -10.999 -26.999zM96.0205 96.0322q0 -15.999 10.999 -27.498t26.998 -11.499
q16.999 0 27.998 11.499q11 11.499 11 27.498t-11.5 26.999q-11.499 10.999 -27.498 10.999t-26.998 -10.999q-10.999 -11 -10.999 -26.999z" />
    <glyph glyph-name="Agrave" unicode="&#xc0;" horiz-adv-x="664" 
d="M453 0l-20 66h-199l-21 -66h-207l218 629h216l219 -629h-206zM375 514q16 0 27 11t11 28q0 15 -11.5 26.5t-26.5 11.5q-16 0 -27.5 -11t-11.5 -27q0 -17 11.5 -28t27.5 -11zM436 472q0 16 -11.5 27.5t-27.5 11.5t-27 -11.5t-11 -27.5t10.5 -27.5t27.5 -11.5
q16 0 27.5 11.5t11.5 27.5zM290 514q16 0 27 11t11 28q0 15 -11.5 26.5t-26.5 11.5q-17 0 -28 -11t-11 -27q0 -17 11 -28t28 -11zM464 391q0 17 -11.5 28t-27.5 11t-27.5 -11.5t-11.5 -27.5t11 -27t28 -11q16 0 27.5 11t11.5 27zM453 273q16 0 27 11t11 28q0 16 -11 27
t-27 11t-27.5 -11t-11.5 -27q0 -17 11.5 -28t27.5 -11zM519 231q0 15 -11.5 27t-27.5 12t-27 -11.5t-11 -27.5t11 -27.5t27 -11.5t27.5 11.5t11.5 27.5zM547 150q0 16 -12 27.5t-27 11.5q-16 0 -27 -11t-11 -28q0 -16 11 -27t27 -11t27.5 11t11.5 27zM332 406l-53 -183h107z
M574 71q0 16 -11 27t-28 11q-15 0 -27 -11.5t-12 -26.5q0 -17 11.5 -28t27.5 -11q17 0 28 11t11 28zM423 108q16 0 27 11t11 28q0 16 -11 27.5t-27 11.5t-27.5 -11.5t-11.5 -27.5t11.5 -27.5t27.5 -11.5zM369 147q0 16 -11 27.5t-28 11.5q-16 0 -27.5 -11.5t-11.5 -27.5
t12 -27.5t27 -11.5q17 0 28 11t11 28zM279 147q0 16 -11.5 27.5t-27.5 11.5t-27 -11.5t-11 -27.5t11 -27.5t27 -11.5t27.5 11t11.5 28zM192 150q0 16 -12 27.5t-27 11.5q-16 0 -27.5 -11t-11.5 -28q0 -16 11.5 -27t27.5 -11t27.5 11t11.5 27zM164 71q0 15 -12 26.5t-27 11.5
q-17 0 -27.5 -11t-10.5 -27q0 -17 10.5 -28t27.5 -11q16 0 27.5 11t11.5 28zM302 473q0 15 -11.5 27t-27.5 12t-27 -11.5t-11 -27.5t11 -27.5t27 -11.5t27.5 11.5t11.5 27.5zM275 392q0 15 -11.5 27t-27.5 12t-27 -11.5t-11 -27.5t11 -27.5t27 -11.5t27.5 11.5t11.5 27.5z
M219 231q0 15 -11.5 27t-27.5 12t-27 -11.5t-11 -27.5t11 -27.5t27 -11.5t27.5 11.5t11.5 27.5zM247 312q0 15 -11.5 27t-27.5 12t-27 -11.5t-11 -27.5t11 -27.5t27 -11.5t27.5 11.5t11.5 27.5zM372 722q0 16 -11 27t-28 11q-16 0 -27.5 -11t-11.5 -27q0 -17 11.5 -28
t27.5 -11q17 0 28 11t11 28zM335 815q0 16 -11.5 27t-27.5 11q-17 0 -28 -11t-11 -27t11 -27.5t28 -11.5q16 0 27.5 11.5t11.5 27.5zM288 659l-100 221h170l58 -221h-128z" />
    <glyph glyph-name="Aacute" unicode="&#xc1;" horiz-adv-x="664" 
d="M453 0l-20 66h-199l-21 -66h-207l218 629h216l219 -629h-206zM375 514q16 0 27 11t11 28q0 15 -11.5 26.5t-26.5 11.5q-16 0 -27.5 -11t-11.5 -27q0 -17 11.5 -28t27.5 -11zM436 472q0 16 -11.5 27.5t-27.5 11.5t-27 -11.5t-11 -27.5t10.5 -27.5t27.5 -11.5
q16 0 27.5 11.5t11.5 27.5zM290 514q16 0 27 11t11 28q0 15 -11.5 26.5t-26.5 11.5q-17 0 -28 -11t-11 -27q0 -17 11 -28t28 -11zM464 391q0 17 -11.5 28t-27.5 11t-27.5 -11.5t-11.5 -27.5t11 -27t28 -11q16 0 27.5 11t11.5 27zM453 273q16 0 27 11t11 28q0 16 -11 27
t-27 11t-27.5 -11t-11.5 -27q0 -17 11.5 -28t27.5 -11zM519 231q0 15 -11.5 27t-27.5 12t-27 -11.5t-11 -27.5t11 -27.5t27 -11.5t27.5 11.5t11.5 27.5zM547 150q0 16 -12 27.5t-27 11.5q-16 0 -27 -11t-11 -28q0 -16 11 -27t27 -11t27.5 11t11.5 27zM332 406l-53 -183h107z
M574 71q0 16 -11 27t-28 11q-15 0 -27 -11.5t-12 -26.5q0 -17 11.5 -28t27.5 -11q17 0 28 11t11 28zM423 108q16 0 27 11t11 28q0 16 -11 27.5t-27 11.5t-27.5 -11.5t-11.5 -27.5t11.5 -27.5t27.5 -11.5zM369 147q0 16 -11 27.5t-28 11.5q-16 0 -27.5 -11.5t-11.5 -27.5
t12 -27.5t27 -11.5q17 0 28 11t11 28zM279 147q0 16 -11.5 27.5t-27.5 11.5t-27 -11.5t-11 -27.5t11 -27.5t27 -11.5t27.5 11t11.5 28zM192 150q0 16 -12 27.5t-27 11.5q-16 0 -27.5 -11t-11.5 -28q0 -16 11.5 -27t27.5 -11t27.5 11t11.5 27zM164 71q0 15 -12 26.5t-27 11.5
q-17 0 -27.5 -11t-10.5 -27q0 -17 10.5 -28t27.5 -11q16 0 27.5 11t11.5 28zM302 473q0 15 -11.5 27t-27.5 12t-27 -11.5t-11 -27.5t11 -27.5t27 -11.5t27.5 11.5t11.5 27.5zM275 392q0 15 -11.5 27t-27.5 12t-27 -11.5t-11 -27.5t11 -27.5t27 -11.5t27.5 11.5t11.5 27.5z
M219 231q0 15 -11.5 27t-27.5 12t-27 -11.5t-11 -27.5t11 -27.5t27 -11.5t27.5 11.5t11.5 27.5zM247 312q0 15 -11.5 27t-27.5 12t-27 -11.5t-11 -27.5t11 -27.5t27 -11.5t27.5 11.5t11.5 27.5zM247 659l58 221h171l-101 -221h-128zM406 815q0 16 -11 27t-28 11
q-16 0 -27 -11t-11 -27t11 -27.5t27 -11.5q17 0 28 11.5t11 27.5zM369 722q0 16 -11.5 27t-27.5 11q-17 0 -27.5 -11t-10.5 -27q0 -17 10.5 -28t27.5 -11q16 0 27.5 11t11.5 28z" />
    <glyph glyph-name="Acircumflex" unicode="&#xc2;" horiz-adv-x="664" 
d="M453 0l-20 66h-199l-21 -66h-207l218 629h216l219 -629h-206zM375 514q16 0 27 11t11 28q0 15 -11.5 26.5t-26.5 11.5q-16 0 -27.5 -11t-11.5 -27q0 -17 11.5 -28t27.5 -11zM436 472q0 16 -11.5 27.5t-27.5 11.5t-27 -11.5t-11 -27.5t10.5 -27.5t27.5 -11.5
q16 0 27.5 11.5t11.5 27.5zM290 514q16 0 27 11t11 28q0 15 -11.5 26.5t-26.5 11.5q-17 0 -28 -11t-11 -27q0 -17 11 -28t28 -11zM464 391q0 17 -11.5 28t-27.5 11t-27.5 -11.5t-11.5 -27.5t11 -27t28 -11q16 0 27.5 11t11.5 27zM453 273q16 0 27 11t11 28q0 16 -11 27
t-27 11t-27.5 -11t-11.5 -27q0 -17 11.5 -28t27.5 -11zM519 231q0 15 -11.5 27t-27.5 12t-27 -11.5t-11 -27.5t11 -27.5t27 -11.5t27.5 11.5t11.5 27.5zM547 150q0 16 -12 27.5t-27 11.5q-16 0 -27 -11t-11 -28q0 -16 11 -27t27 -11t27.5 11t11.5 27zM332 406l-53 -183h107z
M574 71q0 16 -11 27t-28 11q-15 0 -27 -11.5t-12 -26.5q0 -17 11.5 -28t27.5 -11q17 0 28 11t11 28zM423 108q16 0 27 11t11 28q0 16 -11 27.5t-27 11.5t-27.5 -11.5t-11.5 -27.5t11.5 -27.5t27.5 -11.5zM369 147q0 16 -11 27.5t-28 11.5q-16 0 -27.5 -11.5t-11.5 -27.5
t12 -27.5t27 -11.5q17 0 28 11t11 28zM279 147q0 16 -11.5 27.5t-27.5 11.5t-27 -11.5t-11 -27.5t11 -27.5t27 -11.5t27.5 11t11.5 28zM192 150q0 16 -12 27.5t-27 11.5q-16 0 -27.5 -11t-11.5 -28q0 -16 11.5 -27t27.5 -11t27.5 11t11.5 27zM164 71q0 15 -12 26.5t-27 11.5
q-17 0 -27.5 -11t-10.5 -27q0 -17 10.5 -28t27.5 -11q16 0 27.5 11t11.5 28zM302 473q0 15 -11.5 27t-27.5 12t-27 -11.5t-11 -27.5t11 -27.5t27 -11.5t27.5 11.5t11.5 27.5zM275 392q0 15 -11.5 27t-27.5 12t-27 -11.5t-11 -27.5t11 -27.5t27 -11.5t27.5 11.5t11.5 27.5z
M219 231q0 15 -11.5 27t-27.5 12t-27 -11.5t-11 -27.5t11 -27.5t27 -11.5t27.5 11.5t11.5 27.5zM247 312q0 15 -11.5 27t-27.5 12t-27 -11.5t-11 -27.5t11 -27.5t27 -11.5t27.5 11.5t11.5 27.5zM440 722q0 16 -11 27t-28 11q-16 0 -27 -11t-11 -27q0 -17 11 -28t27 -11
q17 0 28 11t11 28zM331 776q17 0 27.5 11.5t10.5 27.5t-10.5 27t-27.5 11q-16 0 -27.5 -11t-11.5 -27t11.5 -27.5t27.5 -11.5zM262 683q16 0 27 11t11 28q0 16 -11 27t-27 11q-17 0 -28 -11t-11 -27q0 -17 11 -28t28 -11zM363 659l-32 73l-33 -73h-146l138 221h83l138 -221
h-148z" />
    <glyph glyph-name="Atilde" unicode="&#xc3;" horiz-adv-x="664" 
d="M453 0l-20 66h-199l-21 -66h-207l218 629h216l219 -629h-206zM375 514q16 0 27 11t11 28q0 15 -11.5 26.5t-26.5 11.5q-16 0 -27.5 -11t-11.5 -27q0 -17 11.5 -28t27.5 -11zM436 472q0 16 -11.5 27.5t-27.5 11.5t-27 -11.5t-11 -27.5t10.5 -27.5t27.5 -11.5
q16 0 27.5 11.5t11.5 27.5zM290 514q16 0 27 11t11 28q0 15 -11.5 26.5t-26.5 11.5q-17 0 -28 -11t-11 -27q0 -17 11 -28t28 -11zM464 391q0 17 -11.5 28t-27.5 11t-27.5 -11.5t-11.5 -27.5t11 -27t28 -11q16 0 27.5 11t11.5 27zM453 273q16 0 27 11t11 28q0 16 -11 27
t-27 11t-27.5 -11t-11.5 -27q0 -17 11.5 -28t27.5 -11zM519 231q0 15 -11.5 27t-27.5 12t-27 -11.5t-11 -27.5t11 -27.5t27 -11.5t27.5 11.5t11.5 27.5zM547 150q0 16 -12 27.5t-27 11.5q-16 0 -27 -11t-11 -28q0 -16 11 -27t27 -11t27.5 11t11.5 27zM332 406l-53 -183h107z
M574 71q0 16 -11 27t-28 11q-15 0 -27 -11.5t-12 -26.5q0 -17 11.5 -28t27.5 -11q17 0 28 11t11 28zM423 108q16 0 27 11t11 28q0 16 -11 27.5t-27 11.5t-27.5 -11.5t-11.5 -27.5t11.5 -27.5t27.5 -11.5zM369 147q0 16 -11 27.5t-28 11.5q-16 0 -27.5 -11.5t-11.5 -27.5
t12 -27.5t27 -11.5q17 0 28 11t11 28zM279 147q0 16 -11.5 27.5t-27.5 11.5t-27 -11.5t-11 -27.5t11 -27.5t27 -11.5t27.5 11t11.5 28zM192 150q0 16 -12 27.5t-27 11.5q-16 0 -27.5 -11t-11.5 -28q0 -16 11.5 -27t27.5 -11t27.5 11t11.5 27zM164 71q0 15 -12 26.5t-27 11.5
q-17 0 -27.5 -11t-10.5 -27q0 -17 10.5 -28t27.5 -11q16 0 27.5 11t11.5 28zM302 473q0 15 -11.5 27t-27.5 12t-27 -11.5t-11 -27.5t11 -27.5t27 -11.5t27.5 11.5t11.5 27.5zM275 392q0 15 -11.5 27t-27.5 12t-27 -11.5t-11 -27.5t11 -27.5t27 -11.5t27.5 11.5t11.5 27.5z
M219 231q0 15 -11.5 27t-27.5 12t-27 -11.5t-11 -27.5t11 -27.5t27 -11.5t27.5 11.5t11.5 27.5zM247 312q0 15 -11.5 27t-27.5 12t-27 -11.5t-11 -27.5t11 -27.5t27 -11.5t27.5 11.5t11.5 27.5zM522 732q-26 -22 -51 -32t-63 -10q-21 0 -41 7t-40 15t-40 15t-41 7
q-37 0 -60.5 -10.5t-43.5 -37.5v123q16 17 40.5 30.5t59.5 13.5q25 0 47.5 -7t43 -16t40 -16t40.5 -7q39 0 64 13t45 43v-131zM243 784q0 15 -12 26.5t-27 11.5q-16 0 -27.5 -11t-11.5 -27q0 -17 11.5 -28t27.5 -11t27.5 11t11.5 28zM330 785q0 15 -12 26.5t-27 11.5
q-16 0 -27 -11t-11 -27q0 -17 11 -28t27 -11t27.5 11t11.5 28zM412 753q0 16 -11.5 27.5t-26.5 11.5q-16 0 -27.5 -11.5t-11.5 -27.5q0 -17 11.5 -27.5t27.5 -10.5t27 10.5t11 27.5zM499 760q0 15 -12 27t-27 12q-16 0 -27.5 -11.5t-11.5 -27.5q0 -17 11.5 -27.5t27.5 -10.5
t27.5 10.5t11.5 27.5z" />
    <glyph glyph-name="Adieresis" unicode="&#xc4;" horiz-adv-x="664" 
d="M453 0l-20 66h-199l-21 -66h-207l218 629h216l219 -629h-206zM375 514q16 0 27 11t11 28q0 15 -11.5 26.5t-26.5 11.5q-16 0 -27.5 -11t-11.5 -27q0 -17 11.5 -28t27.5 -11zM436 472q0 16 -11.5 27.5t-27.5 11.5t-27 -11.5t-11 -27.5t10.5 -27.5t27.5 -11.5
q16 0 27.5 11.5t11.5 27.5zM290 514q16 0 27 11t11 28q0 15 -11.5 26.5t-26.5 11.5q-17 0 -28 -11t-11 -27q0 -17 11 -28t28 -11zM464 391q0 17 -11.5 28t-27.5 11t-27.5 -11.5t-11.5 -27.5t11 -27t28 -11q16 0 27.5 11t11.5 27zM453 273q16 0 27 11t11 28q0 16 -11 27
t-27 11t-27.5 -11t-11.5 -27q0 -17 11.5 -28t27.5 -11zM519 231q0 15 -11.5 27t-27.5 12t-27 -11.5t-11 -27.5t11 -27.5t27 -11.5t27.5 11.5t11.5 27.5zM547 150q0 16 -12 27.5t-27 11.5q-16 0 -27 -11t-11 -28q0 -16 11 -27t27 -11t27.5 11t11.5 27zM332 406l-53 -183h107z
M574 71q0 16 -11 27t-28 11q-15 0 -27 -11.5t-12 -26.5q0 -17 11.5 -28t27.5 -11q17 0 28 11t11 28zM423 108q16 0 27 11t11 28q0 16 -11 27.5t-27 11.5t-27.5 -11.5t-11.5 -27.5t11.5 -27.5t27.5 -11.5zM369 147q0 16 -11 27.5t-28 11.5q-16 0 -27.5 -11.5t-11.5 -27.5
t12 -27.5t27 -11.5q17 0 28 11t11 28zM279 147q0 16 -11.5 27.5t-27.5 11.5t-27 -11.5t-11 -27.5t11 -27.5t27 -11.5t27.5 11t11.5 28zM192 150q0 16 -12 27.5t-27 11.5q-16 0 -27.5 -11t-11.5 -28q0 -16 11.5 -27t27.5 -11t27.5 11t11.5 27zM164 71q0 15 -12 26.5t-27 11.5
q-17 0 -27.5 -11t-10.5 -27q0 -17 10.5 -28t27.5 -11q16 0 27.5 11t11.5 28zM302 473q0 15 -11.5 27t-27.5 12t-27 -11.5t-11 -27.5t11 -27.5t27 -11.5t27.5 11.5t11.5 27.5zM275 392q0 15 -11.5 27t-27.5 12t-27 -11.5t-11 -27.5t11 -27.5t27 -11.5t27.5 11.5t11.5 27.5z
M219 231q0 15 -11.5 27t-27.5 12t-27 -11.5t-11 -27.5t11 -27.5t27 -11.5t27.5 11.5t11.5 27.5zM247 312q0 15 -11.5 27t-27.5 12t-27 -11.5t-11 -27.5t11 -27.5t27 -11.5t27.5 11.5t11.5 27.5zM547 766q0 -45 -26.5 -71t-71.5 -26q-43 0 -70.5 26t-27.5 71q0 43 27.5 71
t70.5 28t70.5 -28.5t27.5 -70.5zM488 766q0 17 -11.5 28t-27.5 11q-17 0 -27.5 -11t-10.5 -28q0 -16 10.5 -27.5t27.5 -11.5q16 0 27.5 11.5t11.5 27.5zM312 766q0 -45 -26.5 -71t-71.5 -26q-43 0 -70.5 26t-27.5 71q0 43 27.5 71t70.5 28t70.5 -28.5t27.5 -70.5zM253 766
q0 17 -11.5 28t-27.5 11q-17 0 -28 -11t-11 -28q0 -16 11 -27.5t28 -11.5q16 0 27.5 11.5t11.5 27.5z" />
    <glyph glyph-name="Aring" unicode="&#xc5;" horiz-adv-x="664" 
d="M453 0l-20 66h-199l-21 -66h-207l218 629h216l219 -629h-206zM375 514q16 0 27 11t11 28q0 15 -11.5 26.5t-26.5 11.5q-16 0 -27.5 -11t-11.5 -27q0 -17 11.5 -28t27.5 -11zM436 472q0 16 -11.5 27.5t-27.5 11.5t-27 -11.5t-11 -27.5t10.5 -27.5t27.5 -11.5
q16 0 27.5 11.5t11.5 27.5zM290 514q16 0 27 11t11 28q0 15 -11.5 26.5t-26.5 11.5q-17 0 -28 -11t-11 -27q0 -17 11 -28t28 -11zM464 391q0 17 -11.5 28t-27.5 11t-27.5 -11.5t-11.5 -27.5t11 -27t28 -11q16 0 27.5 11t11.5 27zM453 273q16 0 27 11t11 28q0 16 -11 27
t-27 11t-27.5 -11t-11.5 -27q0 -17 11.5 -28t27.5 -11zM519 231q0 15 -11.5 27t-27.5 12t-27 -11.5t-11 -27.5t11 -27.5t27 -11.5t27.5 11.5t11.5 27.5zM547 150q0 16 -12 27.5t-27 11.5q-16 0 -27 -11t-11 -28q0 -16 11 -27t27 -11t27.5 11t11.5 27zM332 406l-53 -183h107z
M574 71q0 16 -11 27t-28 11q-15 0 -27 -11.5t-12 -26.5q0 -17 11.5 -28t27.5 -11q17 0 28 11t11 28zM423 108q16 0 27 11t11 28q0 16 -11 27.5t-27 11.5t-27.5 -11.5t-11.5 -27.5t11.5 -27.5t27.5 -11.5zM369 147q0 16 -11 27.5t-28 11.5q-16 0 -27.5 -11.5t-11.5 -27.5
t12 -27.5t27 -11.5q17 0 28 11t11 28zM279 147q0 16 -11.5 27.5t-27.5 11.5t-27 -11.5t-11 -27.5t11 -27.5t27 -11.5t27.5 11t11.5 28zM192 150q0 16 -12 27.5t-27 11.5q-16 0 -27.5 -11t-11.5 -28q0 -16 11.5 -27t27.5 -11t27.5 11t11.5 27zM164 71q0 15 -12 26.5t-27 11.5
q-17 0 -27.5 -11t-10.5 -27q0 -17 10.5 -28t27.5 -11q16 0 27.5 11t11.5 28zM302 473q0 15 -11.5 27t-27.5 12t-27 -11.5t-11 -27.5t11 -27.5t27 -11.5t27.5 11.5t11.5 27.5zM275 392q0 15 -11.5 27t-27.5 12t-27 -11.5t-11 -27.5t11 -27.5t27 -11.5t27.5 11.5t11.5 27.5z
M219 231q0 15 -11.5 27t-27.5 12t-27 -11.5t-11 -27.5t11 -27.5t27 -11.5t27.5 11.5t11.5 27.5zM247 312q0 15 -11.5 27t-27.5 12t-27 -11.5t-11 -27.5t11 -27.5t27 -11.5t27.5 11.5t11.5 27.5zM366 827q0 16 -11 26.5t-26 10.5q-16 0 -26.5 -10.5t-10.5 -26.5
q0 -15 10.5 -26t26.5 -11q15 0 26 11t11 26zM429 761q0 17 -11 27t-26 10q-16 0 -26.5 -10t-10.5 -27q0 -15 10.5 -26t26.5 -11q15 0 26 11t11 26zM270 724q14 0 25 11t11 26q0 17 -11 27t-25 10q-37 0 -37 -37q0 -15 10 -26t27 -11zM366 696q0 16 -11 26t-26 10
q-16 0 -26.5 -10t-10.5 -26q0 -15 10.5 -26t26.5 -11q15 0 26 11t11 26zM459 759q0 -52 -35 -85t-92 -33t-92 33t-35 85q0 54 35 87.5t92 33.5q28 0 51 -9t40 -25.5t26.5 -38.5t9.5 -48z" />
    <glyph glyph-name="AE" unicode="&#xc6;" horiz-adv-x="774" 
d="M377 512q17 0 27.5 11.5t10.5 27.5q0 15 -11 27t-27 12t-27 -11.5t-11 -27.5t11 -27.5t27 -11.5zM377 0v68h-147l-20 -68h-204l216 629h521v-160h-180v-73h180v-157h-180v-74h180v-165h-366zM377 454h-34l-67 -230h101v230zM178 192q16 0 27.5 11.5t11.5 27.5t-11.5 27.5
t-27.5 11.5q-17 0 -28 -11.5t-11 -27.5q0 -15 11.5 -27t27.5 -12zM465 140q16 0 27 11.5t11 27.5q0 17 -11 28t-27 11t-26.5 -11t-10.5 -28q0 -16 10.5 -27.5t26.5 -11.5zM123 34q16 0 27 10.5t11 27.5q0 16 -11 27t-27 11t-26.5 -11t-10.5 -27q0 -17 10.5 -27.5t26.5 -10.5
zM596 318q0 16 -11.5 26.5t-27.5 10.5t-27 -10.5t-11 -26.5t11 -27.5t27 -11.5t27.5 11.5t11.5 27.5zM686 87q0 16 -10.5 27t-27.5 11q-16 0 -26.5 -11t-10.5 -27t10.5 -27t26.5 -11q17 0 27.5 11t10.5 27zM648 279q17 0 27.5 11.5t10.5 27.5t-10.5 26.5t-27.5 10.5
q-16 0 -26.5 -10.5t-10.5 -26.5t10.5 -27.5t26.5 -11.5zM465 509q16 0 27 11.5t11 27.5q0 17 -11 27t-27 10t-26.5 -10t-10.5 -27q0 -16 10.5 -27.5t26.5 -11.5zM596 548q0 17 -11.5 27t-27.5 10t-27 -10t-11 -27q0 -16 11 -27.5t27 -11.5t27.5 11.5t11.5 27.5zM503 455
q0 16 -11 27.5t-27 11.5t-26.5 -11.5t-10.5 -27.5t10.5 -27t26.5 -11t27 11t11 27zM648 509q17 0 27.5 11.5t10.5 27.5q0 17 -10.5 27t-27.5 10q-16 0 -26.5 -10t-10.5 -27q0 -16 10.5 -27.5t26.5 -11.5zM503 363q0 17 -11 28t-27 11t-26.5 -11t-10.5 -28q0 -16 10.5 -27
t26.5 -11t27 11t11 27zM503 87q0 16 -11 27t-27 11t-26.5 -11t-10.5 -27t10.5 -27t26.5 -11t27 11t11 27zM596 87q0 16 -11.5 27t-27.5 11t-27 -11t-11 -27t11 -27t27 -11t27.5 11t11.5 27zM503 271q0 16 -11 27.5t-27 11.5t-26.5 -11.5t-10.5 -27.5t10.5 -27t26.5 -11
t27 11t11 27zM206 273q16 0 27 11t11 28q0 16 -11 27t-27 11q-17 0 -27.5 -11t-10.5 -27q0 -17 10.5 -28t27.5 -11zM286 512q17 0 27.5 11.5t10.5 27.5q0 15 -11 27t-27 12t-27 -11.5t-11 -27.5t11 -27.5t27 -11.5zM150 113q17 -1 27.5 11t10.5 27q0 17 -10.5 28t-27.5 11
q-15 0 -26 -11.5t-11 -27.5t10.5 -27t26.5 -11zM255 110q16 0 27 11t11 28q0 15 -11 26.5t-27 11.5q-17 0 -27.5 -11t-10.5 -27q0 -17 10.5 -28t27.5 -11zM233 353q16 0 27 11t11 27q0 17 -11.5 28t-27.5 11q-11 0 -23 -7.5t-12 -19.5q0 -50 36 -50zM298 470q0 17 -11.5 28
t-27.5 11q-35 0 -35 -25q0 -51 36 -51q16 0 27 10.5t11 26.5zM362 110q16 0 27 11t11 28q0 16 -11 27t-27 11t-27 -11t-11 -27q0 -17 11 -28t27 -11z" />
    <glyph glyph-name="Ccedilla" unicode="&#xc7;" horiz-adv-x="640" 
d="M632 152q-19 -36 -45 -66t-61 -51.5t-79 -34t-98 -12.5q-71 0 -130.5 24t-103 67.5t-67.5 103.5t-24 131q0 72 24 132t67.5 103.5t103 67.5t130.5 24q103 0 167 -35.5t102 -104.5l-136 -126q-39 89 -128 89q-32 0 -57.5 -11.5t-44.5 -31.5t-29 -47.5t-10 -59.5t10 -59
t28.5 -47t44.5 -31.5t58 -11.5q55 0 88 25.5t48 63.5zM551 486q0 16 -11.5 27t-27.5 11t-27 -11t-11 -27t11 -27.5t27 -11.5t27.5 11.5t11.5 27.5zM475 537q0 16 -11 27t-28 11q-16 0 -27.5 -11t-11.5 -27t11.5 -27.5t27.5 -11.5t27.5 12t11.5 27zM385 554q0 16 -11 27
t-28 11q-15 0 -27 -11.5t-12 -26.5q0 -17 11.5 -28t27.5 -11q17 0 28 11t11 28zM295 532q0 16 -11.5 27t-27.5 11q-17 0 -27.5 -11t-10.5 -27t10.5 -27.5t27.5 -11.5q15 0 27 12t12 27zM554 147q0 16 -11.5 27.5t-27.5 11.5t-27.5 -11.5t-11.5 -27.5t11.5 -27.5t27.5 -11.5
q15 0 27 12t12 27zM222 477q0 16 -11.5 27.5t-27.5 11.5t-27.5 -11.5t-11.5 -27.5t11.5 -27.5t27.5 -11.5q15 0 27 11.5t12 27.5zM438 55q16 0 27 11.5t11 27.5t-10.5 27.5t-27.5 11.5q-16 0 -27.5 -11.5t-11.5 -27.5t11.5 -27.5t27.5 -11.5zM173 403q0 17 -11.5 28
t-27.5 11t-27 -11t-11 -28q0 -15 11.5 -26.5t26.5 -11.5q16 0 27.5 11t11.5 27zM158 316q0 17 -11.5 27.5t-27.5 10.5q-17 0 -27.5 -10.5t-10.5 -27.5q0 -16 10.5 -27.5t27.5 -11.5q16 0 27.5 11.5t11.5 27.5zM385 76q0 16 -11 27t-28 11q-16 0 -27.5 -11t-11.5 -27
t11.5 -27.5t27.5 -11.5q17 0 28 11.5t11 27.5zM173 225q0 17 -11.5 28t-27.5 11t-27 -11t-11 -28q0 -15 11.5 -27t26.5 -12q16 0 27.5 11.5t11.5 27.5zM297 97q0 16 -11.5 27.5t-27.5 11.5q-17 0 -28 -11.5t-11 -27.5t11 -27t28 -11q15 0 27 11t12 27zM185 110q15 0 26.5 12
t11.5 27q0 16 -11 27t-27 11t-27.5 -11t-11.5 -27t11.5 -27.5t27.5 -11.5zM262 -202l9 188l149 -25l-44 -178zM338 -111q19 0 28 11.5t9 27.5q0 14 -10.5 23.5t-25.5 9.5q-16 0 -26.5 -11t-10.5 -26t11 -25t25 -10zM324 -188q37 0 37 38q0 14 -11 23.5t-25 9.5
q-16 0 -26 -10.5t-10 -24.5q0 -17 10 -26.5t25 -9.5z" />
    <glyph glyph-name="Egrave" unicode="&#xc8;" horiz-adv-x="444" 
d="M37 0v629h377v-159h-182v-73h182v-159h-182v-73h182v-165h-377zM357 549q0 16 -11.5 27.5t-27.5 11.5t-27 -11.5t-11 -27.5t11 -27t27 -11t27.5 11t11.5 27zM265 549q0 16 -11.5 27.5t-27.5 11.5q-17 0 -28 -11.5t-11 -27.5t11 -27t28 -11q16 0 27.5 11t11.5 27zM171 549
q0 16 -10.5 27.5t-27.5 11.5q-16 0 -27.5 -11.5t-11.5 -27.5t11.5 -27t27.5 -11q17 0 27.5 11t10.5 27zM357 318q0 16 -11.5 27t-27.5 11t-27 -11t-11 -27t11 -27.5t27 -11.5t27.5 11.5t11.5 27.5zM133 418q17 0 27.5 11t10.5 28q0 16 -10.5 27.5t-27.5 11.5
q-16 0 -27.5 -11.5t-11.5 -27.5q0 -17 11.5 -28t27.5 -11zM265 318q0 16 -11.5 27t-27.5 11q-17 0 -28 -11t-11 -27t11 -27.5t28 -11.5q16 0 27.5 11.5t11.5 27.5zM133 325q17 0 27.5 11.5t10.5 27.5q0 17 -10.5 27.5t-27.5 10.5q-16 0 -27.5 -10.5t-11.5 -27.5
q0 -16 11.5 -27.5t27.5 -11.5zM171 271q0 16 -10.5 27.5t-27.5 11.5q-16 0 -27.5 -11.5t-11.5 -27.5t11.5 -27t27.5 -11q17 0 27.5 11t10.5 27zM357 86q0 16 -11.5 27t-27.5 11t-27 -11t-11 -27t11 -27.5t27 -11.5t27.5 11.5t11.5 27.5zM133 140q17 0 27.5 11t10.5 28
q0 16 -10.5 27.5t-27.5 11.5q-16 0 -27.5 -11.5t-11.5 -27.5q0 -17 11.5 -28t27.5 -11zM265 86q0 16 -11.5 27t-27.5 11q-17 0 -28 -11t-11 -27t11 -27.5t28 -11.5q16 0 27.5 11.5t11.5 27.5zM133 47q17 0 27.5 11.5t10.5 27.5t-10.5 27t-27.5 11q-16 0 -27.5 -11t-11.5 -27
t11.5 -27.5t27.5 -11.5zM270 722q0 16 -11 27t-28 11q-16 0 -27.5 -11t-11.5 -27q0 -17 11.5 -28t27.5 -11q17 0 28 11t11 28zM233 815q0 16 -11.5 27t-27.5 11q-17 0 -28 -11t-11 -27t11 -27.5t28 -11.5q16 0 27.5 11.5t11.5 27.5zM186 659l-100 221h170l58 -221h-128z" />
    <glyph glyph-name="Eacute" unicode="&#xc9;" horiz-adv-x="444" 
d="M37 0v629h377v-159h-182v-73h182v-159h-182v-73h182v-165h-377zM357 549q0 16 -11.5 27.5t-27.5 11.5t-27 -11.5t-11 -27.5t11 -27t27 -11t27.5 11t11.5 27zM265 549q0 16 -11.5 27.5t-27.5 11.5q-17 0 -28 -11.5t-11 -27.5t11 -27t28 -11q16 0 27.5 11t11.5 27zM171 549
q0 16 -10.5 27.5t-27.5 11.5q-16 0 -27.5 -11.5t-11.5 -27.5t11.5 -27t27.5 -11q17 0 27.5 11t10.5 27zM357 318q0 16 -11.5 27t-27.5 11t-27 -11t-11 -27t11 -27.5t27 -11.5t27.5 11.5t11.5 27.5zM133 418q17 0 27.5 11t10.5 28q0 16 -10.5 27.5t-27.5 11.5
q-16 0 -27.5 -11.5t-11.5 -27.5q0 -17 11.5 -28t27.5 -11zM265 318q0 16 -11.5 27t-27.5 11q-17 0 -28 -11t-11 -27t11 -27.5t28 -11.5q16 0 27.5 11.5t11.5 27.5zM133 325q17 0 27.5 11.5t10.5 27.5q0 17 -10.5 27.5t-27.5 10.5q-16 0 -27.5 -10.5t-11.5 -27.5
q0 -16 11.5 -27.5t27.5 -11.5zM171 271q0 16 -10.5 27.5t-27.5 11.5q-16 0 -27.5 -11.5t-11.5 -27.5t11.5 -27t27.5 -11q17 0 27.5 11t10.5 27zM357 86q0 16 -11.5 27t-27.5 11t-27 -11t-11 -27t11 -27.5t27 -11.5t27.5 11.5t11.5 27.5zM133 140q17 0 27.5 11t10.5 28
q0 16 -10.5 27.5t-27.5 11.5q-16 0 -27.5 -11.5t-11.5 -27.5q0 -17 11.5 -28t27.5 -11zM265 86q0 16 -11.5 27t-27.5 11q-17 0 -28 -11t-11 -27t11 -27.5t28 -11.5q16 0 27.5 11.5t11.5 27.5zM133 47q17 0 27.5 11.5t10.5 27.5t-10.5 27t-27.5 11q-16 0 -27.5 -11t-11.5 -27
t11.5 -27.5t27.5 -11.5zM146 659l58 221h171l-101 -221h-128zM305 815q0 16 -11 27t-28 11q-16 0 -27 -11t-11 -27t11 -27.5t27 -11.5q17 0 28 11.5t11 27.5zM268 722q0 16 -11.5 27t-27.5 11q-17 0 -27.5 -11t-10.5 -27q0 -17 10.5 -28t27.5 -11q16 0 27.5 11t11.5 28z" />
    <glyph glyph-name="Ecircumflex" unicode="&#xca;" horiz-adv-x="444" 
d="M37 0v629h377v-159h-182v-73h182v-159h-182v-73h182v-165h-377zM357 549q0 16 -11.5 27.5t-27.5 11.5t-27 -11.5t-11 -27.5t11 -27t27 -11t27.5 11t11.5 27zM265 549q0 16 -11.5 27.5t-27.5 11.5q-17 0 -28 -11.5t-11 -27.5t11 -27t28 -11q16 0 27.5 11t11.5 27zM171 549
q0 16 -10.5 27.5t-27.5 11.5q-16 0 -27.5 -11.5t-11.5 -27.5t11.5 -27t27.5 -11q17 0 27.5 11t10.5 27zM357 318q0 16 -11.5 27t-27.5 11t-27 -11t-11 -27t11 -27.5t27 -11.5t27.5 11.5t11.5 27.5zM133 418q17 0 27.5 11t10.5 28q0 16 -10.5 27.5t-27.5 11.5
q-16 0 -27.5 -11.5t-11.5 -27.5q0 -17 11.5 -28t27.5 -11zM265 318q0 16 -11.5 27t-27.5 11q-17 0 -28 -11t-11 -27t11 -27.5t28 -11.5q16 0 27.5 11.5t11.5 27.5zM133 325q17 0 27.5 11.5t10.5 27.5q0 17 -10.5 27.5t-27.5 10.5q-16 0 -27.5 -10.5t-11.5 -27.5
q0 -16 11.5 -27.5t27.5 -11.5zM171 271q0 16 -10.5 27.5t-27.5 11.5q-16 0 -27.5 -11.5t-11.5 -27.5t11.5 -27t27.5 -11q17 0 27.5 11t10.5 27zM357 86q0 16 -11.5 27t-27.5 11t-27 -11t-11 -27t11 -27.5t27 -11.5t27.5 11.5t11.5 27.5zM133 140q17 0 27.5 11t10.5 28
q0 16 -10.5 27.5t-27.5 11.5q-16 0 -27.5 -11.5t-11.5 -27.5q0 -17 11.5 -28t27.5 -11zM265 86q0 16 -11.5 27t-27.5 11q-17 0 -28 -11t-11 -27t11 -27.5t28 -11.5q16 0 27.5 11.5t11.5 27.5zM133 47q17 0 27.5 11.5t10.5 27.5t-10.5 27t-27.5 11q-16 0 -27.5 -11t-11.5 -27
t11.5 -27.5t27.5 -11.5zM339 722q0 16 -11 27t-28 11q-16 0 -27 -11t-11 -27q0 -17 11 -28t27 -11q17 0 28 11t11 28zM230 776q17 0 27.5 11.5t10.5 27.5t-10.5 27t-27.5 11q-16 0 -27.5 -11t-11.5 -27t11.5 -27.5t27.5 -11.5zM161 683q16 0 27 11t11 28q0 16 -11 27t-27 11
q-17 0 -28 -11t-11 -27q0 -17 11 -28t28 -11zM262 659l-32 73l-33 -73h-146l138 221h83l138 -221h-148z" />
    <glyph glyph-name="Edieresis" unicode="&#xcb;" horiz-adv-x="444" 
d="M37 0v629h377v-159h-182v-73h182v-159h-182v-73h182v-165h-377zM357 549q0 16 -11.5 27.5t-27.5 11.5t-27 -11.5t-11 -27.5t11 -27t27 -11t27.5 11t11.5 27zM265 549q0 16 -11.5 27.5t-27.5 11.5q-17 0 -28 -11.5t-11 -27.5t11 -27t28 -11q16 0 27.5 11t11.5 27zM171 549
q0 16 -10.5 27.5t-27.5 11.5q-16 0 -27.5 -11.5t-11.5 -27.5t11.5 -27t27.5 -11q17 0 27.5 11t10.5 27zM357 318q0 16 -11.5 27t-27.5 11t-27 -11t-11 -27t11 -27.5t27 -11.5t27.5 11.5t11.5 27.5zM133 418q17 0 27.5 11t10.5 28q0 16 -10.5 27.5t-27.5 11.5
q-16 0 -27.5 -11.5t-11.5 -27.5q0 -17 11.5 -28t27.5 -11zM265 318q0 16 -11.5 27t-27.5 11q-17 0 -28 -11t-11 -27t11 -27.5t28 -11.5q16 0 27.5 11.5t11.5 27.5zM133 325q17 0 27.5 11.5t10.5 27.5q0 17 -10.5 27.5t-27.5 10.5q-16 0 -27.5 -10.5t-11.5 -27.5
q0 -16 11.5 -27.5t27.5 -11.5zM171 271q0 16 -10.5 27.5t-27.5 11.5q-16 0 -27.5 -11.5t-11.5 -27.5t11.5 -27t27.5 -11q17 0 27.5 11t10.5 27zM357 86q0 16 -11.5 27t-27.5 11t-27 -11t-11 -27t11 -27.5t27 -11.5t27.5 11.5t11.5 27.5zM133 140q17 0 27.5 11t10.5 28
q0 16 -10.5 27.5t-27.5 11.5q-16 0 -27.5 -11.5t-11.5 -27.5q0 -17 11.5 -28t27.5 -11zM265 86q0 16 -11.5 27t-27.5 11q-17 0 -28 -11t-11 -27t11 -27.5t28 -11.5q16 0 27.5 11.5t11.5 27.5zM133 47q17 0 27.5 11.5t10.5 27.5t-10.5 27t-27.5 11q-16 0 -27.5 -11t-11.5 -27
t11.5 -27.5t27.5 -11.5zM447 766q0 -45 -26.5 -71t-71.5 -26q-43 0 -70.5 26t-27.5 71q0 43 27.5 71t70.5 28t70.5 -28.5t27.5 -70.5zM388 766q0 17 -11.5 28t-27.5 11q-17 0 -27.5 -11t-10.5 -28q0 -16 10.5 -27.5t27.5 -11.5q16 0 27.5 11.5t11.5 27.5zM212 766
q0 -45 -26.5 -71t-71.5 -26q-43 0 -70.5 26t-27.5 71q0 43 27.5 71t70.5 28t70.5 -28.5t27.5 -70.5zM153 766q0 17 -11.5 28t-27.5 11q-17 0 -28 -11t-11 -28q0 -16 11 -27.5t28 -11.5q16 0 27.5 11.5t11.5 27.5z" />
    <glyph glyph-name="Igrave" unicode="&#xcc;" horiz-adv-x="271" 
d="M37 0v629h197v-629h-197zM171 549q0 16 -10.5 27.5t-27.5 11.5q-16 0 -27.5 -11.5t-11.5 -27.5t11.5 -27t27.5 -11q17 0 27.5 11t10.5 27zM133 418q17 0 27.5 11t10.5 28q0 16 -10.5 27.5t-27.5 11.5q-16 0 -27.5 -11.5t-11.5 -27.5q0 -17 11.5 -28t27.5 -11zM133 325
q17 0 27.5 11.5t10.5 27.5q0 17 -10.5 27.5t-27.5 10.5q-16 0 -27.5 -10.5t-11.5 -27.5q0 -16 11.5 -27.5t27.5 -11.5zM171 271q0 16 -10.5 27.5t-27.5 11.5q-16 0 -27.5 -11.5t-11.5 -27.5t11.5 -27t27.5 -11q17 0 27.5 11t10.5 27zM133 140q17 0 27.5 11t10.5 28
q0 16 -10.5 27.5t-27.5 11.5q-16 0 -27.5 -11.5t-11.5 -27.5q0 -17 11.5 -28t27.5 -11zM133 47q17 0 27.5 11.5t10.5 27.5t-10.5 27t-27.5 11q-16 0 -27.5 -11t-11.5 -27t11.5 -27.5t27.5 -11.5zM177 722q0 16 -11 27t-28 11q-16 0 -27.5 -11t-11.5 -27q0 -17 11.5 -28
t27.5 -11q17 0 28 11t11 28zM140 815q0 16 -11.5 27t-27.5 11q-17 0 -28 -11t-11 -27t11 -27.5t28 -11.5q16 0 27.5 11.5t11.5 27.5zM93 659l-100 221h170l58 -221h-128z" />
    <glyph glyph-name="Iacute" unicode="&#xcd;" horiz-adv-x="271" 
d="M37 0v629h197v-629h-197zM171 549q0 16 -10.5 27.5t-27.5 11.5q-16 0 -27.5 -11.5t-11.5 -27.5t11.5 -27t27.5 -11q17 0 27.5 11t10.5 27zM133 418q17 0 27.5 11t10.5 28q0 16 -10.5 27.5t-27.5 11.5q-16 0 -27.5 -11.5t-11.5 -27.5q0 -17 11.5 -28t27.5 -11zM133 325
q17 0 27.5 11.5t10.5 27.5q0 17 -10.5 27.5t-27.5 10.5q-16 0 -27.5 -10.5t-11.5 -27.5q0 -16 11.5 -27.5t27.5 -11.5zM171 271q0 16 -10.5 27.5t-27.5 11.5q-16 0 -27.5 -11.5t-11.5 -27.5t11.5 -27t27.5 -11q17 0 27.5 11t10.5 27zM133 140q17 0 27.5 11t10.5 28
q0 16 -10.5 27.5t-27.5 11.5q-16 0 -27.5 -11.5t-11.5 -27.5q0 -17 11.5 -28t27.5 -11zM133 47q17 0 27.5 11.5t10.5 27.5t-10.5 27t-27.5 11q-16 0 -27.5 -11t-11.5 -27t11.5 -27.5t27.5 -11.5zM51 659l58 221h171l-101 -221h-128zM210 815q0 16 -11 27t-28 11
q-16 0 -27 -11t-11 -27t11 -27.5t27 -11.5q17 0 28 11.5t11 27.5zM173 722q0 16 -11.5 27t-27.5 11q-17 0 -27.5 -11t-10.5 -27q0 -17 10.5 -28t27.5 -11q16 0 27.5 11t11.5 28z" />
    <glyph glyph-name="Icircumflex" unicode="&#xce;" horiz-adv-x="271" 
d="M37 0v629h197v-629h-197zM171 549q0 16 -10.5 27.5t-27.5 11.5q-16 0 -27.5 -11.5t-11.5 -27.5t11.5 -27t27.5 -11q17 0 27.5 11t10.5 27zM133 418q17 0 27.5 11t10.5 28q0 16 -10.5 27.5t-27.5 11.5q-16 0 -27.5 -11.5t-11.5 -27.5q0 -17 11.5 -28t27.5 -11zM133 325
q17 0 27.5 11.5t10.5 27.5q0 17 -10.5 27.5t-27.5 10.5q-16 0 -27.5 -10.5t-11.5 -27.5q0 -16 11.5 -27.5t27.5 -11.5zM171 271q0 16 -10.5 27.5t-27.5 11.5q-16 0 -27.5 -11.5t-11.5 -27.5t11.5 -27t27.5 -11q17 0 27.5 11t10.5 27zM133 140q17 0 27.5 11t10.5 28
q0 16 -10.5 27.5t-27.5 11.5q-16 0 -27.5 -11.5t-11.5 -27.5q0 -17 11.5 -28t27.5 -11zM133 47q17 0 27.5 11.5t10.5 27.5t-10.5 27t-27.5 11q-16 0 -27.5 -11t-11.5 -27t11.5 -27.5t27.5 -11.5zM246 722q0 16 -11 27t-28 11q-16 0 -27 -11t-11 -27q0 -17 11 -28t27 -11
q17 0 28 11t11 28zM137 776q17 0 27.5 11.5t10.5 27.5t-10.5 27t-27.5 11q-16 0 -27.5 -11t-11.5 -27t11.5 -27.5t27.5 -11.5zM68 683q16 0 27 11t11 28q0 16 -11 27t-27 11q-17 0 -28 -11t-11 -27q0 -17 11 -28t28 -11zM169 659l-32 73l-33 -73h-146l138 221h83l138 -221
h-148z" />
    <glyph glyph-name="Idieresis" unicode="&#xcf;" horiz-adv-x="271" 
d="M37 0v629h197v-629h-197zM171 549q0 16 -10.5 27.5t-27.5 11.5q-16 0 -27.5 -11.5t-11.5 -27.5t11.5 -27t27.5 -11q17 0 27.5 11t10.5 27zM133 418q17 0 27.5 11t10.5 28q0 16 -10.5 27.5t-27.5 11.5q-16 0 -27.5 -11.5t-11.5 -27.5q0 -17 11.5 -28t27.5 -11zM133 325
q17 0 27.5 11.5t10.5 27.5q0 17 -10.5 27.5t-27.5 10.5q-16 0 -27.5 -10.5t-11.5 -27.5q0 -16 11.5 -27.5t27.5 -11.5zM171 271q0 16 -10.5 27.5t-27.5 11.5q-16 0 -27.5 -11.5t-11.5 -27.5t11.5 -27t27.5 -11q17 0 27.5 11t10.5 27zM133 140q17 0 27.5 11t10.5 28
q0 16 -10.5 27.5t-27.5 11.5q-16 0 -27.5 -11.5t-11.5 -27.5q0 -17 11.5 -28t27.5 -11zM133 47q17 0 27.5 11.5t10.5 27.5t-10.5 27t-27.5 11q-16 0 -27.5 -11t-11.5 -27t11.5 -27.5t27.5 -11.5zM353 766q0 -45 -26.5 -71t-71.5 -26q-43 0 -70.5 26t-27.5 71q0 43 27.5 71
t70.5 28t70.5 -28.5t27.5 -70.5zM294 766q0 17 -11.5 28t-27.5 11q-17 0 -27.5 -11t-10.5 -28q0 -16 10.5 -27.5t27.5 -11.5q16 0 27.5 11.5t11.5 27.5zM118 766q0 -45 -26.5 -71t-71.5 -26q-43 0 -70.5 26t-27.5 71q0 43 27.5 71t70.5 28t70.5 -28.5t27.5 -70.5zM59 766
q0 17 -11.5 28t-27.5 11q-17 0 -28 -11t-11 -28q0 -16 11 -27.5t28 -11.5q16 0 27.5 11.5t11.5 27.5z" />
    <glyph glyph-name="Eth" unicode="&#xd0;" horiz-adv-x="596" 
d="M58 0v246h-66v148h66v235h175q90 0 154 -25.5t105 -68.5t60 -99t19 -116q0 -75 -25.5 -134.5t-70.5 -100.5t-107 -63t-135 -22h-175zM237 246v-81q66 0 102 39t36 112q0 150 -138 150v-72h31v-148h-31zM448 475q0 16 -11 27t-28 11t-28 -11t-11 -27q0 -17 11 -28t28 -11
q16 0 27.5 11.5t11.5 27.5zM242 515q16 0 27 11t11 28t-11 28t-27 11q-17 0 -28.5 -11.5t-11.5 -27.5q0 -17 11.5 -28t28.5 -11zM448 154q0 17 -11.5 28t-27.5 11q-17 0 -28 -11t-11 -28q0 -16 11 -27t28 -11t28 11t11 27zM242 37q16 0 27 11t11 28t-11 28t-27 11
q-17 0 -28.5 -12t-11.5 -27q0 -17 11.5 -28t28.5 -11zM459 363q16 0 26.5 11t10.5 28q0 16 -11.5 27.5t-25.5 11.5q-17 0 -28.5 -11t-11.5 -28t11.5 -28t28.5 -11zM459 188q14 0 25.5 12t11.5 28t-10.5 27t-26.5 11q-17 0 -28.5 -11t-11.5 -27q0 -17 11.5 -28.5t28.5 -11.5z
M339 60q15 0 26.5 11t11.5 28q0 16 -11 27t-27 11q-17 0 -28 -11t-11 -27q0 -17 11 -28t28 -11zM512 314q0 17 -11 28.5t-28 11.5q-14 0 -26 -11.5t-12 -28.5q0 -16 11 -27t27 -11q17 0 28 11t11 27zM377 530q0 17 -11 28.5t-27 11.5q-17 0 -28 -11.5t-11 -28.5
q0 -16 11 -27t28 -11q15 0 26.5 12t11.5 26zM192 178q0 17 -10.5 28.5t-27.5 11.5t-27.5 -11.5t-10.5 -28.5q0 -16 10.5 -27t27.5 -11t27.5 11t10.5 27zM154 511q17 0 27.5 11t10.5 28q0 16 -10.5 27t-27.5 11t-27.5 -11t-10.5 -27q0 -17 10.5 -28t27.5 -11zM192 456
q0 17 -10.5 28.5t-27.5 11.5t-27.5 -11.5t-10.5 -28.5q0 -16 10.5 -27t27.5 -11t27.5 11t10.5 27zM192 271q0 17 -10.5 28t-27.5 11t-27.5 -11t-10.5 -28t10.5 -27.5t27.5 -10.5t27.5 10.5t10.5 27.5zM154 47q17 0 27.5 11t10.5 28t-10.5 27.5t-27.5 10.5t-27.5 -10.5
t-10.5 -27.5t10.5 -28t27.5 -11zM192 364q0 17 -10.5 27.5t-27.5 10.5t-27.5 -10.5t-10.5 -27.5t10.5 -27.5t27.5 -10.5t27.5 10.5t10.5 27.5zM97 318q0 17 -11 28t-27 11q-17 0 -28 -11t-11 -28t11 -27.5t28 -10.5q16 0 27 10.5t11 27.5z" />
    <glyph glyph-name="Ntilde" unicode="&#xd1;" horiz-adv-x="649" 
d="M433 0l-203 302v-302h-193v629h194l190 -315v315h191v-629h-179zM558 549q0 16 -11 27.5t-28 11.5q-16 0 -27.5 -11.5t-11.5 -27.5t11.5 -27t27.5 -11q17 0 28 11t11 27zM558 457q0 16 -11 27.5t-28 11.5q-16 0 -27.5 -11.5t-11.5 -27.5q0 -17 11.5 -28t27.5 -11
q17 0 28 11t11 28zM558 364q0 17 -11 27.5t-28 10.5q-16 0 -27.5 -10.5t-11.5 -27.5q0 -16 11.5 -27.5t27.5 -11.5q17 0 28 11.5t11 27.5zM558 271q0 16 -11 27.5t-28 11.5q-16 0 -27.5 -11.5t-11.5 -27.5t11.5 -27t27.5 -11q17 0 28 11t11 27zM213 454q16 0 27 11.5
t11 27.5t-11 27.5t-27 11.5t-27.5 -11.5t-11.5 -27.5q0 -15 11.5 -27t27.5 -12zM558 179q0 16 -11 27.5t-28 11.5q-16 0 -27.5 -11.5t-11.5 -27.5q0 -17 11.5 -28t27.5 -11q17 0 28 11t11 28zM171 549q0 16 -10.5 27.5t-27.5 11.5q-16 0 -27.5 -11.5t-11.5 -27.5t11.5 -27
t27.5 -11q17 0 27.5 11t10.5 27zM301 407q0 16 -11.5 27t-27.5 11t-27.5 -11t-11.5 -27t11.5 -27.5t27.5 -11.5t27.5 11.5t11.5 27.5zM358 321q0 15 -12 27t-27 12q-16 0 -27 -11.5t-11 -27.5q0 -17 11 -28t27 -11t27.5 11t11.5 28zM422 227q0 16 -11 27t-28 11
q-15 0 -27 -11.5t-12 -26.5q0 -17 11.5 -28t27.5 -11q17 0 28 11t11 28zM558 86q0 16 -11 27t-28 11q-16 0 -27.5 -11t-11.5 -27t11.5 -27.5t27.5 -11.5q17 0 28 11.5t11 27.5zM133 418q17 0 27.5 11t10.5 28q0 16 -10.5 27.5t-27.5 11.5q-16 0 -27.5 -11.5t-11.5 -27.5
q0 -17 11.5 -28t27.5 -11zM479 148q0 16 -11 27t-28 11q-16 0 -27 -11t-11 -27q0 -17 11 -28t27 -11t27.5 11.5t11.5 27.5zM133 325q17 0 27.5 11.5t10.5 27.5q0 17 -10.5 27.5t-27.5 10.5q-16 0 -27.5 -10.5t-11.5 -27.5q0 -16 11.5 -27.5t27.5 -11.5zM171 271
q0 16 -10.5 27.5t-27.5 11.5q-16 0 -27.5 -11.5t-11.5 -27.5t11.5 -27t27.5 -11q17 0 27.5 11t10.5 27zM133 140q17 0 27.5 11t10.5 28q0 16 -10.5 27.5t-27.5 11.5q-16 0 -27.5 -11.5t-11.5 -27.5q0 -17 11.5 -28t27.5 -11zM133 47q17 0 27.5 11.5t10.5 27.5t-10.5 27
t-27.5 11q-16 0 -27.5 -11t-11.5 -27t11.5 -27.5t27.5 -11.5zM515 732q-26 -22 -51 -32t-63 -10q-21 0 -41 7t-40 15t-40 15t-41 7q-37 0 -60.5 -10.5t-43.5 -37.5v123q16 17 40.5 30.5t59.5 13.5q25 0 47.5 -7t43 -16t40 -16t40.5 -7q39 0 64 13t45 43v-131zM236 784
q0 15 -12 26.5t-27 11.5q-16 0 -27.5 -11t-11.5 -27q0 -17 11.5 -28t27.5 -11t27.5 11t11.5 28zM323 785q0 15 -12 26.5t-27 11.5q-16 0 -27 -11t-11 -27q0 -17 11 -28t27 -11t27.5 11t11.5 28zM405 753q0 16 -11.5 27.5t-26.5 11.5q-16 0 -27.5 -11.5t-11.5 -27.5
q0 -17 11.5 -27.5t27.5 -10.5t27 10.5t11 27.5zM492 760q0 15 -12 27t-27 12q-16 0 -27.5 -11.5t-11.5 -27.5q0 -17 11.5 -27.5t27.5 -10.5t27.5 10.5t11.5 27.5z" />
    <glyph glyph-name="Ograve" unicode="&#xd2;" horiz-adv-x="716" 
d="M690 314q0 -71 -25.5 -130.5t-70 -103t-105.5 -68t-131 -24.5q-71 0 -131.5 24.5t-105 68t-70 103t-25.5 130.5q0 72 25 132t69.5 103.5t105.5 67.5t132 24q70 0 130.5 -24.5t105.5 -68t70.5 -103.5t25.5 -131zM358 515q17 0 27.5 11t10.5 28q0 16 -10.5 27t-27.5 11
q-15 0 -27 -11.5t-12 -26.5q0 -17 11.5 -28t27.5 -11zM302 530q0 16 -11.5 27.5t-27.5 11.5q-17 0 -28 -11.5t-11 -27.5t11 -27.5t28 -11.5q15 0 27 12t12 27zM358 165q61 0 99 38.5t38 110.5t-38 111t-99 39q-63 0 -100 -38.5t-37 -111.5q0 -72 37 -110.5t100 -38.5z
M225 480q0 16 -11.5 27.5t-27.5 11.5t-27 -11.5t-11 -27.5t11 -27t27 -11t27.5 11t11.5 27zM139 365q16 0 27 11.5t11 27.5q0 17 -11 28t-27 11t-27.5 -11t-11.5 -28q0 -15 11.5 -27t27.5 -12zM163 314q0 17 -11.5 28t-27.5 11q-17 0 -27.5 -11t-10.5 -28q0 -16 10.5 -27
t27.5 -11q16 0 27.5 11t11.5 27zM358 37q17 0 27.5 11.5t10.5 27.5t-10.5 27t-27.5 11q-16 0 -27.5 -11t-11.5 -27t11.5 -27.5t27.5 -11.5zM176 225q0 17 -11.5 28t-27.5 11t-27.5 -11t-11.5 -28q0 -15 12 -27t27 -12q16 0 27.5 11.5t11.5 27.5zM302 98q0 16 -11.5 27.5
t-27.5 11.5q-17 0 -28 -11.5t-11 -27.5t11 -27t28 -11q15 0 27 11t12 27zM225 148q0 16 -11.5 27t-27.5 11t-27 -11t-11 -27t11 -27.5t27 -11.5t27.5 12t11.5 27zM453 491q17 0 27.5 11.5t10.5 27.5t-10.5 27.5t-27.5 11.5q-16 0 -27.5 -11.5t-11.5 -27.5q0 -15 12 -27
t27 -12zM568 480q0 16 -11.5 27.5t-27.5 11.5t-27 -11.5t-11 -27.5t11.5 -27t26.5 -11q16 0 27.5 11t11.5 27zM616 404q0 17 -11.5 28t-27.5 11t-27.5 -11t-11.5 -28q0 -16 11.5 -27.5t27.5 -11.5q15 0 27 12t12 27zM630 314q0 17 -11 28t-28 11q-16 0 -27 -11t-11 -28
q0 -16 11 -27t27 -11q17 0 28 11t11 27zM579 186q15 0 26.5 12t11.5 27q0 17 -11 28t-27 11t-27.5 -11t-11.5 -28q0 -16 11.5 -27.5t27.5 -11.5zM491 98q0 16 -10.5 27.5t-27.5 11.5q-16 0 -27.5 -11.5t-11.5 -27.5t12 -27t27 -11q17 0 27.5 11t10.5 27zM568 148
q0 16 -11.5 27t-27.5 11t-27 -11t-11 -27q0 -15 11.5 -27t26.5 -12q16 0 27.5 11.5t11.5 27.5zM398 722q0 16 -11 27t-28 11q-16 0 -27.5 -11t-11.5 -27q0 -17 11.5 -28t27.5 -11q17 0 28 11t11 28zM361 815q0 16 -11.5 27t-27.5 11q-17 0 -28 -11t-11 -27t11 -27.5
t28 -11.5q16 0 27.5 11.5t11.5 27.5zM314 659l-100 221h170l58 -221h-128z" />
    <glyph glyph-name="Oacute" unicode="&#xd3;" horiz-adv-x="716" 
d="M690 314q0 -71 -25.5 -130.5t-70 -103t-105.5 -68t-131 -24.5q-71 0 -131.5 24.5t-105 68t-70 103t-25.5 130.5q0 72 25 132t69.5 103.5t105.5 67.5t132 24q70 0 130.5 -24.5t105.5 -68t70.5 -103.5t25.5 -131zM358 515q17 0 27.5 11t10.5 28q0 16 -10.5 27t-27.5 11
q-15 0 -27 -11.5t-12 -26.5q0 -17 11.5 -28t27.5 -11zM302 530q0 16 -11.5 27.5t-27.5 11.5q-17 0 -28 -11.5t-11 -27.5t11 -27.5t28 -11.5q15 0 27 12t12 27zM358 165q61 0 99 38.5t38 110.5t-38 111t-99 39q-63 0 -100 -38.5t-37 -111.5q0 -72 37 -110.5t100 -38.5z
M225 480q0 16 -11.5 27.5t-27.5 11.5t-27 -11.5t-11 -27.5t11 -27t27 -11t27.5 11t11.5 27zM139 365q16 0 27 11.5t11 27.5q0 17 -11 28t-27 11t-27.5 -11t-11.5 -28q0 -15 11.5 -27t27.5 -12zM163 314q0 17 -11.5 28t-27.5 11q-17 0 -27.5 -11t-10.5 -28q0 -16 10.5 -27
t27.5 -11q16 0 27.5 11t11.5 27zM358 37q17 0 27.5 11.5t10.5 27.5t-10.5 27t-27.5 11q-16 0 -27.5 -11t-11.5 -27t11.5 -27.5t27.5 -11.5zM176 225q0 17 -11.5 28t-27.5 11t-27.5 -11t-11.5 -28q0 -15 12 -27t27 -12q16 0 27.5 11.5t11.5 27.5zM302 98q0 16 -11.5 27.5
t-27.5 11.5q-17 0 -28 -11.5t-11 -27.5t11 -27t28 -11q15 0 27 11t12 27zM225 148q0 16 -11.5 27t-27.5 11t-27 -11t-11 -27t11 -27.5t27 -11.5t27.5 12t11.5 27zM453 491q17 0 27.5 11.5t10.5 27.5t-10.5 27.5t-27.5 11.5q-16 0 -27.5 -11.5t-11.5 -27.5q0 -15 12 -27
t27 -12zM568 480q0 16 -11.5 27.5t-27.5 11.5t-27 -11.5t-11 -27.5t11.5 -27t26.5 -11q16 0 27.5 11t11.5 27zM616 404q0 17 -11.5 28t-27.5 11t-27.5 -11t-11.5 -28q0 -16 11.5 -27.5t27.5 -11.5q15 0 27 12t12 27zM630 314q0 17 -11 28t-28 11q-16 0 -27 -11t-11 -28
q0 -16 11 -27t27 -11q17 0 28 11t11 27zM579 186q15 0 26.5 12t11.5 27q0 17 -11 28t-27 11t-27.5 -11t-11.5 -28q0 -16 11.5 -27.5t27.5 -11.5zM491 98q0 16 -10.5 27.5t-27.5 11.5q-16 0 -27.5 -11.5t-11.5 -27.5t12 -27t27 -11q17 0 27.5 11t10.5 27zM568 148
q0 16 -11.5 27t-27.5 11t-27 -11t-11 -27q0 -15 11.5 -27t26.5 -12q16 0 27.5 11.5t11.5 27.5zM273 659l58 221h171l-101 -221h-128zM432 815q0 16 -11 27t-28 11q-16 0 -27 -11t-11 -27t11 -27.5t27 -11.5q17 0 28 11.5t11 27.5zM395 722q0 16 -11.5 27t-27.5 11
q-17 0 -27.5 -11t-10.5 -27q0 -17 10.5 -28t27.5 -11q16 0 27.5 11t11.5 28z" />
    <glyph glyph-name="Ocircumflex" unicode="&#xd4;" horiz-adv-x="716" 
d="M690 314q0 -71 -25.5 -130.5t-70 -103t-105.5 -68t-131 -24.5q-71 0 -131.5 24.5t-105 68t-70 103t-25.5 130.5q0 72 25 132t69.5 103.5t105.5 67.5t132 24q70 0 130.5 -24.5t105.5 -68t70.5 -103.5t25.5 -131zM358 515q17 0 27.5 11t10.5 28q0 16 -10.5 27t-27.5 11
q-15 0 -27 -11.5t-12 -26.5q0 -17 11.5 -28t27.5 -11zM302 530q0 16 -11.5 27.5t-27.5 11.5q-17 0 -28 -11.5t-11 -27.5t11 -27.5t28 -11.5q15 0 27 12t12 27zM358 165q61 0 99 38.5t38 110.5t-38 111t-99 39q-63 0 -100 -38.5t-37 -111.5q0 -72 37 -110.5t100 -38.5z
M225 480q0 16 -11.5 27.5t-27.5 11.5t-27 -11.5t-11 -27.5t11 -27t27 -11t27.5 11t11.5 27zM139 365q16 0 27 11.5t11 27.5q0 17 -11 28t-27 11t-27.5 -11t-11.5 -28q0 -15 11.5 -27t27.5 -12zM163 314q0 17 -11.5 28t-27.5 11q-17 0 -27.5 -11t-10.5 -28q0 -16 10.5 -27
t27.5 -11q16 0 27.5 11t11.5 27zM358 37q17 0 27.5 11.5t10.5 27.5t-10.5 27t-27.5 11q-16 0 -27.5 -11t-11.5 -27t11.5 -27.5t27.5 -11.5zM176 225q0 17 -11.5 28t-27.5 11t-27.5 -11t-11.5 -28q0 -15 12 -27t27 -12q16 0 27.5 11.5t11.5 27.5zM302 98q0 16 -11.5 27.5
t-27.5 11.5q-17 0 -28 -11.5t-11 -27.5t11 -27t28 -11q15 0 27 11t12 27zM225 148q0 16 -11.5 27t-27.5 11t-27 -11t-11 -27t11 -27.5t27 -11.5t27.5 12t11.5 27zM453 491q17 0 27.5 11.5t10.5 27.5t-10.5 27.5t-27.5 11.5q-16 0 -27.5 -11.5t-11.5 -27.5q0 -15 12 -27
t27 -12zM568 480q0 16 -11.5 27.5t-27.5 11.5t-27 -11.5t-11 -27.5t11.5 -27t26.5 -11q16 0 27.5 11t11.5 27zM616 404q0 17 -11.5 28t-27.5 11t-27.5 -11t-11.5 -28q0 -16 11.5 -27.5t27.5 -11.5q15 0 27 12t12 27zM630 314q0 17 -11 28t-28 11q-16 0 -27 -11t-11 -28
q0 -16 11 -27t27 -11q17 0 28 11t11 27zM579 186q15 0 26.5 12t11.5 27q0 17 -11 28t-27 11t-27.5 -11t-11.5 -28q0 -16 11.5 -27.5t27.5 -11.5zM491 98q0 16 -10.5 27.5t-27.5 11.5q-16 0 -27.5 -11.5t-11.5 -27.5t12 -27t27 -11q17 0 27.5 11t10.5 27zM568 148
q0 16 -11.5 27t-27.5 11t-27 -11t-11 -27q0 -15 11.5 -27t26.5 -12q16 0 27.5 11.5t11.5 27.5zM466 722q0 16 -11 27t-28 11q-16 0 -27 -11t-11 -27q0 -17 11 -28t27 -11q17 0 28 11t11 28zM357 776q17 0 27.5 11.5t10.5 27.5t-10.5 27t-27.5 11q-16 0 -27.5 -11t-11.5 -27
t11.5 -27.5t27.5 -11.5zM288 683q16 0 27 11t11 28q0 16 -11 27t-27 11q-17 0 -28 -11t-11 -27q0 -17 11 -28t28 -11zM389 659l-32 73l-33 -73h-146l138 221h83l138 -221h-148z" />
    <glyph glyph-name="Otilde" unicode="&#xd5;" horiz-adv-x="716" 
d="M690 314q0 -71 -25.5 -130.5t-70 -103t-105.5 -68t-131 -24.5q-71 0 -131.5 24.5t-105 68t-70 103t-25.5 130.5q0 72 25 132t69.5 103.5t105.5 67.5t132 24q70 0 130.5 -24.5t105.5 -68t70.5 -103.5t25.5 -131zM358 515q17 0 27.5 11t10.5 28q0 16 -10.5 27t-27.5 11
q-15 0 -27 -11.5t-12 -26.5q0 -17 11.5 -28t27.5 -11zM302 530q0 16 -11.5 27.5t-27.5 11.5q-17 0 -28 -11.5t-11 -27.5t11 -27.5t28 -11.5q15 0 27 12t12 27zM358 165q61 0 99 38.5t38 110.5t-38 111t-99 39q-63 0 -100 -38.5t-37 -111.5q0 -72 37 -110.5t100 -38.5z
M225 480q0 16 -11.5 27.5t-27.5 11.5t-27 -11.5t-11 -27.5t11 -27t27 -11t27.5 11t11.5 27zM139 365q16 0 27 11.5t11 27.5q0 17 -11 28t-27 11t-27.5 -11t-11.5 -28q0 -15 11.5 -27t27.5 -12zM163 314q0 17 -11.5 28t-27.5 11q-17 0 -27.5 -11t-10.5 -28q0 -16 10.5 -27
t27.5 -11q16 0 27.5 11t11.5 27zM358 37q17 0 27.5 11.5t10.5 27.5t-10.5 27t-27.5 11q-16 0 -27.5 -11t-11.5 -27t11.5 -27.5t27.5 -11.5zM176 225q0 17 -11.5 28t-27.5 11t-27.5 -11t-11.5 -28q0 -15 12 -27t27 -12q16 0 27.5 11.5t11.5 27.5zM302 98q0 16 -11.5 27.5
t-27.5 11.5q-17 0 -28 -11.5t-11 -27.5t11 -27t28 -11q15 0 27 11t12 27zM225 148q0 16 -11.5 27t-27.5 11t-27 -11t-11 -27t11 -27.5t27 -11.5t27.5 12t11.5 27zM453 491q17 0 27.5 11.5t10.5 27.5t-10.5 27.5t-27.5 11.5q-16 0 -27.5 -11.5t-11.5 -27.5q0 -15 12 -27
t27 -12zM568 480q0 16 -11.5 27.5t-27.5 11.5t-27 -11.5t-11 -27.5t11.5 -27t26.5 -11q16 0 27.5 11t11.5 27zM616 404q0 17 -11.5 28t-27.5 11t-27.5 -11t-11.5 -28q0 -16 11.5 -27.5t27.5 -11.5q15 0 27 12t12 27zM630 314q0 17 -11 28t-28 11q-16 0 -27 -11t-11 -28
q0 -16 11 -27t27 -11q17 0 28 11t11 27zM579 186q15 0 26.5 12t11.5 27q0 17 -11 28t-27 11t-27.5 -11t-11.5 -28q0 -16 11.5 -27.5t27.5 -11.5zM491 98q0 16 -10.5 27.5t-27.5 11.5q-16 0 -27.5 -11.5t-11.5 -27.5t12 -27t27 -11q17 0 27.5 11t10.5 27zM568 148
q0 16 -11.5 27t-27.5 11t-27 -11t-11 -27q0 -15 11.5 -27t26.5 -12q16 0 27.5 11.5t11.5 27.5zM547 732q-26 -22 -51 -32t-63 -10q-21 0 -41 7t-40 15t-40 15t-41 7q-37 0 -60.5 -10.5t-43.5 -37.5v123q16 17 40.5 30.5t59.5 13.5q25 0 47.5 -7t43 -16t40 -16t40.5 -7
q39 0 64 13t45 43v-131zM268 784q0 15 -12 26.5t-27 11.5q-16 0 -27.5 -11t-11.5 -27q0 -17 11.5 -28t27.5 -11t27.5 11t11.5 28zM355 785q0 15 -12 26.5t-27 11.5q-16 0 -27 -11t-11 -27q0 -17 11 -28t27 -11t27.5 11t11.5 28zM437 753q0 16 -11.5 27.5t-26.5 11.5
q-16 0 -27.5 -11.5t-11.5 -27.5q0 -17 11.5 -27.5t27.5 -10.5t27 10.5t11 27.5zM524 760q0 15 -12 27t-27 12q-16 0 -27.5 -11.5t-11.5 -27.5q0 -17 11.5 -27.5t27.5 -10.5t27.5 10.5t11.5 27.5z" />
    <glyph glyph-name="Odieresis" unicode="&#xd6;" horiz-adv-x="716" 
d="M690 314q0 -71 -25.5 -130.5t-70 -103t-105.5 -68t-131 -24.5q-71 0 -131.5 24.5t-105 68t-70 103t-25.5 130.5q0 72 25 132t69.5 103.5t105.5 67.5t132 24q70 0 130.5 -24.5t105.5 -68t70.5 -103.5t25.5 -131zM358 515q17 0 27.5 11t10.5 28q0 16 -10.5 27t-27.5 11
q-15 0 -27 -11.5t-12 -26.5q0 -17 11.5 -28t27.5 -11zM302 530q0 16 -11.5 27.5t-27.5 11.5q-17 0 -28 -11.5t-11 -27.5t11 -27.5t28 -11.5q15 0 27 12t12 27zM358 165q61 0 99 38.5t38 110.5t-38 111t-99 39q-63 0 -100 -38.5t-37 -111.5q0 -72 37 -110.5t100 -38.5z
M225 480q0 16 -11.5 27.5t-27.5 11.5t-27 -11.5t-11 -27.5t11 -27t27 -11t27.5 11t11.5 27zM139 365q16 0 27 11.5t11 27.5q0 17 -11 28t-27 11t-27.5 -11t-11.5 -28q0 -15 11.5 -27t27.5 -12zM163 314q0 17 -11.5 28t-27.5 11q-17 0 -27.5 -11t-10.5 -28q0 -16 10.5 -27
t27.5 -11q16 0 27.5 11t11.5 27zM358 37q17 0 27.5 11.5t10.5 27.5t-10.5 27t-27.5 11q-16 0 -27.5 -11t-11.5 -27t11.5 -27.5t27.5 -11.5zM176 225q0 17 -11.5 28t-27.5 11t-27.5 -11t-11.5 -28q0 -15 12 -27t27 -12q16 0 27.5 11.5t11.5 27.5zM302 98q0 16 -11.5 27.5
t-27.5 11.5q-17 0 -28 -11.5t-11 -27.5t11 -27t28 -11q15 0 27 11t12 27zM225 148q0 16 -11.5 27t-27.5 11t-27 -11t-11 -27t11 -27.5t27 -11.5t27.5 12t11.5 27zM453 491q17 0 27.5 11.5t10.5 27.5t-10.5 27.5t-27.5 11.5q-16 0 -27.5 -11.5t-11.5 -27.5q0 -15 12 -27
t27 -12zM568 480q0 16 -11.5 27.5t-27.5 11.5t-27 -11.5t-11 -27.5t11.5 -27t26.5 -11q16 0 27.5 11t11.5 27zM616 404q0 17 -11.5 28t-27.5 11t-27.5 -11t-11.5 -28q0 -16 11.5 -27.5t27.5 -11.5q15 0 27 12t12 27zM630 314q0 17 -11 28t-28 11q-16 0 -27 -11t-11 -28
q0 -16 11 -27t27 -11q17 0 28 11t11 27zM579 186q15 0 26.5 12t11.5 27q0 17 -11 28t-27 11t-27.5 -11t-11.5 -28q0 -16 11.5 -27.5t27.5 -11.5zM491 98q0 16 -10.5 27.5t-27.5 11.5q-16 0 -27.5 -11.5t-11.5 -27.5t12 -27t27 -11q17 0 27.5 11t10.5 27zM568 148
q0 16 -11.5 27t-27.5 11t-27 -11t-11 -27q0 -15 11.5 -27t26.5 -12q16 0 27.5 11.5t11.5 27.5zM573 766q0 -45 -26.5 -71t-71.5 -26q-43 0 -70.5 26t-27.5 71q0 43 27.5 71t70.5 28t70.5 -28.5t27.5 -70.5zM514 766q0 17 -11.5 28t-27.5 11q-17 0 -27.5 -11t-10.5 -28
q0 -16 10.5 -27.5t27.5 -11.5q16 0 27.5 11.5t11.5 27.5zM338 766q0 -45 -26.5 -71t-71.5 -26q-43 0 -70.5 26t-27.5 71q0 43 27.5 71t70.5 28t70.5 -28.5t27.5 -70.5zM279 766q0 17 -11.5 28t-27.5 11q-17 0 -28 -11t-11 -28q0 -16 11 -27.5t28 -11.5q16 0 27.5 11.5
t11.5 27.5z" />
    <glyph glyph-name="multiply" unicode="&#xd7;" horiz-adv-x="455" 
d="M376 166q11 11 11 28q0 16 -11 26.5t-27 10.5q-17 0 -28 -11.5t-11 -26.5t11.5 -27t27.5 -12q15 0 27 12zM317 226q10 10 10 27t-10.5 28t-27.5 11q-16 0 -27.5 -11.5t-11.5 -27.5q0 -15 12 -27t27 -12q16 0 28 12zM202 284q14 -11 28 -11t25.5 10.5t11.5 27.5
q0 18 -11.5 29t-25.5 11q-16 0 -28 -12t-12 -27q0 -16 12 -28zM197 347q10 11 10 27q0 17 -11 27.5t-28 10.5t-27.5 -11t-10.5 -26q0 -18 12.5 -29t26.5 -11t28 12zM81 461q-11 -11 -11 -28q0 -15 12 -26.5t26 -11.5t26.5 11t12.5 28q0 16 -11.5 27t-26.5 11q-14 0 -28 -11z
M137 218q-11 11 -27 11t-27.5 -11t-11.5 -27q0 -14 10 -27t27 -13q16 0 27.5 11t11.5 28q0 18 -10 28zM197 223q11 11 11 27t-11.5 27.5t-27.5 11.5q-15 0 -27 -12t-12 -27q0 -14 11 -26t28 -12t28 11zM318 343q10 10 10 27t-11 28t-26 11q-18 0 -29 -12.5t-11 -26.5
q0 -13 11 -25.5t28 -12.5q14 0 28 11zM377 403q11 11 11 27q0 17 -11.5 28.5t-26.5 11.5q-16 0 -27.5 -12.5t-11.5 -27.5q0 -14 11 -26t28 -12q16 0 27 11zM228 218l-119 -118l-93 93l119 119l-119 118l93 93l119 -118l118 118l93 -93l-117 -118l117 -119l-93 -93z" />
    <glyph glyph-name="Oslash" unicode="&#xd8;" horiz-adv-x="716" 
d="M358 515q17 0 27.5 11t10.5 28q0 16 -10.5 27t-27.5 11q-15 0 -27 -11.5t-12 -26.5q0 -17 11.5 -28t27.5 -11zM302 530q0 16 -11.5 27.5t-27.5 11.5q-17 0 -28 -11.5t-11 -27.5t11 -27.5t28 -11.5q15 0 27 12t12 27zM225 480q0 16 -11.5 27.5t-27.5 11.5t-27 -11.5
t-11 -27.5t11 -27t27 -11t27.5 11t11.5 27zM139 365q16 0 27 11.5t11 27.5q0 17 -11 28t-27 11t-27.5 -11t-11.5 -28q0 -15 11.5 -27t27.5 -12zM163 314q0 17 -11.5 28t-27.5 11q-17 0 -27.5 -11t-10.5 -28q0 -16 10.5 -27t27.5 -11q16 0 27.5 11t11.5 27zM358 37
q17 0 27.5 11.5t10.5 27.5t-10.5 27t-27.5 11q-16 0 -27.5 -11t-11.5 -27t11.5 -27.5t27.5 -11.5zM176 225q0 17 -11.5 28t-27.5 11t-27.5 -11t-11.5 -28q0 -15 12 -27t27 -12q16 0 27.5 11.5t11.5 27.5zM302 98q0 16 -11.5 27.5t-27.5 11.5q-17 0 -28 -11.5t-11 -27.5
t11 -27t28 -11q15 0 27 11t12 27zM225 148q0 16 -11.5 27t-27.5 11t-27 -11t-11 -27t11 -27.5t27 -11.5t27.5 12t11.5 27zM453 491q17 0 27.5 11.5t10.5 27.5t-10.5 27.5t-27.5 11.5q-16 0 -27.5 -11.5t-11.5 -27.5q0 -15 12 -27t27 -12zM568 480q0 16 -11.5 27.5
t-27.5 11.5t-27 -11.5t-11 -27.5t11.5 -27t26.5 -11q16 0 27.5 11t11.5 27zM616 404q0 17 -11.5 28t-27.5 11t-27.5 -11t-11.5 -28q0 -16 11.5 -27.5t27.5 -11.5q15 0 27 12t12 27zM630 314q0 17 -11 28t-28 11q-16 0 -27 -11t-11 -28q0 -16 11 -27t27 -11q17 0 28 11t11 27
zM579 186q15 0 26.5 12t11.5 27q0 17 -11 28t-27 11t-27.5 -11t-11.5 -28q0 -16 11.5 -27.5t27.5 -11.5zM491 98q0 16 -10.5 27.5t-27.5 11.5q-16 0 -27.5 -11.5t-11.5 -27.5t12 -27t27 -11q17 0 27.5 11t10.5 27zM568 148q0 16 -11.5 27t-27.5 11t-27 -11t-11 -27
q0 -15 11.5 -27t26.5 -12q16 0 27.5 11.5t11.5 27.5zM364 283q0 15 -12 27.5t-27 12.5q-14 0 -26.5 -11.5t-12.5 -28.5q0 -15 11.5 -27t26.5 -12t27.5 11t12.5 28zM497 412q0 14 -11 26.5t-27 12.5q-14 0 -27 -11t-13 -28q0 -16 12 -27t27 -11q17 0 28 12t11 26zM164 90
q0 14 -11 26t-29 12q-17 0 -27 -11t-10 -27t11 -28t26 -12t27.5 12.5t12.5 27.5zM297 219q0 15 -10.5 26.5t-27.5 11.5t-28 -11t-11 -28t12 -27.5t26 -10.5t26.5 11t12.5 28zM630 540q0 14 -10.5 27t-27.5 13q-15 0 -27 -11t-12 -27t11 -27.5t27 -11.5t27.5 10.5t11.5 26.5z
M391 308q14 0 27 12t13 28q0 13 -11.5 25.5t-28.5 12.5t-27.5 -11t-10.5 -27q0 -17 12 -28.5t26 -11.5zM643 486q47 -74 47 -172q0 -71 -25.5 -130.5t-70 -103t-105.5 -68t-131 -24.5q-51 0 -96.5 12.5t-83.5 35.5l-62 -60l-102 105l60 58q-23 37 -35.5 80.5t-12.5 94.5
q0 72 25 132t69.5 103.5t105.5 67.5t132 24q51 0 97 -13.5t85 -37.5l60 58l101 -105zM403 457q-11 3 -22 5t-23 2q-63 0 -100 -38.5t-37 -111.5q0 -8 0.5 -16t1.5 -15zM317 171q18 -6 41 -6q61 0 99 38.5t38 110.5q0 7 -0.5 14t-1.5 13z" />
    </font>
</defs>
</svg>
